<?xml version="1.0" encoding="UTF-8" standalone="no"?>
<svg
   xmlns:dc="http://purl.org/dc/elements/1.1/"
   xmlns:cc="http://creativecommons.org/ns#"
   xmlns:rdf="http://www.w3.org/1999/02/22-rdf-syntax-ns#"
   xmlns:svg="http://www.w3.org/2000/svg"
   xmlns="http://www.w3.org/2000/svg"
   xmlns:sodipodi="http://sodipodi.sourceforge.net/DTD/sodipodi-0.dtd"
   xmlns:inkscape="http://www.inkscape.org/namespaces/inkscape"
   width="600"
   height="400"
   viewBox="0 0 158.75 105.83333"
   version="1.1"
   id="svg853"
   inkscape:version="1.0.2-2 (e86c870879, 2021-01-15)"
   sodipodi:docname="logo-cyclone-tcp.svg">
  <defs
     id="defs847" />
  <sodipodi:namedview
     id="base"
     pagecolor="#ffffff"
     bordercolor="#666666"
     borderopacity="1.0"
     inkscape:pageopacity="0.0"
     inkscape:pageshadow="2"
     inkscape:zoom="0.98994949"
     inkscape:cx="175.08625"
     inkscape:cy="156.59452"
     inkscape:document-units="mm"
     inkscape:current-layer="layer1"
     inkscape:document-rotation="0"
     showgrid="false"
     units="px"
     inkscape:window-width="1847"
     inkscape:window-height="867"
     inkscape:window-x="588"
     inkscape:window-y="120"
     inkscape:window-maximized="0" />
  <metadata
     id="metadata850">
    <rdf:RDF>
      <cc:Work
         rdf:about="">
        <dc:format>image/svg+xml</dc:format>
        <dc:type
           rdf:resource="http://purl.org/dc/dcmitype/StillImage" />
        <dc:title />
      </cc:Work>
    </rdf:RDF>
  </metadata>
  <g
     inkscape:label="Layer 1"
     inkscape:groupmode="layer"
     id="layer1">
    <g
       id="CycloneTCP"
       transform="matrix(0.22794389,0,0,0.20514622,7.2287422,-8.7027303)">
      <g
         enable-background="new    "
         id="g1430">
        <path
           fill="#041a87"
           d="m 117.243,323.082 v -0.135 c 0,-13.431 10.056,-24.432 24.364,-24.432 8.706,0 13.97,3.037 18.492,7.356 l -5.332,6.142 c -3.78,-3.51 -7.829,-5.872 -13.228,-5.872 -8.976,0 -15.59,7.425 -15.59,16.671 v 0.135 c 0,9.246 6.546,16.737 15.59,16.737 5.804,0 9.516,-2.295 13.565,-6.074 l 5.332,5.399 c -4.927,5.129 -10.326,8.368 -19.167,8.368 -13.767,10e-4 -24.026,-10.729 -24.026,-24.295 z"
           id="path1416" />
        <path
           fill="#041a87"
           d="m 192.229,310.934 h 8.503 l -14.173,36.647 c -2.834,7.288 -6.006,9.988 -11.743,9.988 -3.375,0 -5.939,-0.81 -8.436,-2.16 l 2.767,-6.074 c 1.485,0.811 3.104,1.351 4.792,1.351 2.295,0 3.712,-1.013 5.062,-4.05 l -14.848,-35.702 h 8.773 l 10.056,26.456 z"
           id="path1418" />
        <path
           fill="#041a87"
           d="m 203.773,328.953 v -0.135 c 0,-10.123 7.829,-18.627 18.56,-18.627 6.682,0 10.866,2.497 14.241,6.142 l -5.129,5.467 c -2.497,-2.632 -5.129,-4.454 -9.179,-4.454 -5.939,0 -10.326,5.129 -10.326,11.338 v 0.135 c 0,6.345 4.387,11.406 10.663,11.406 3.847,0 6.682,-1.755 9.246,-4.387 l 4.927,4.858 c -3.509,3.915 -7.626,6.682 -14.578,6.682 -10.596,0 -18.425,-8.301 -18.425,-18.425 z"
           id="path1420" />
        <path
           fill="#041a87"
           d="m 244.742,297.301 h 8.167 v 49.268 h -8.167 z"
           id="path1422" />
        <path
           fill="#041a87"
           d="m 261.616,328.953 v -0.135 c 0,-10.19 8.099,-18.627 19.032,-18.627 10.933,0 18.964,8.301 18.964,18.492 v 0.135 c 0,10.124 -8.099,18.56 -19.099,18.56 -10.865,0 -18.897,-8.301 -18.897,-18.425 z m 29.831,0 v -0.135 c 0,-6.276 -4.522,-11.473 -10.933,-11.473 -6.547,0 -10.731,5.129 -10.731,11.338 v 0.135 c 0,6.209 4.521,11.406 10.866,11.406 6.613,0.001 10.798,-5.129 10.798,-11.271 z"
           id="path1424" />
        <path
           fill="#041a87"
           d="m 307.919,310.934 h 8.166 v 5.467 c 2.295,-3.307 5.602,-6.209 11.136,-6.209 8.031,0 12.688,5.399 12.688,13.633 v 22.744 h -8.166 v -20.247 c 0,-5.534 -2.767,-8.706 -7.626,-8.706 -4.724,0 -8.031,3.307 -8.031,8.841 v 20.112 h -8.166 v -35.635 z"
           id="path1426" />
        <path
           fill="#041a87"
           d="m 347.808,328.886 v -0.135 c 0,-10.19 7.222,-18.56 17.412,-18.56 11.338,0 17.075,8.908 17.075,19.167 0,0.742 -0.067,1.485 -0.135,2.295 h -26.187 c 0.878,5.804 4.994,9.043 10.259,9.043 3.981,0 6.816,-1.484 9.651,-4.251 l 4.791,4.251 c -3.374,4.05 -8.031,6.682 -14.577,6.682 -10.325,0 -18.289,-7.491 -18.289,-18.492 z m 26.389,-2.632 c -0.54,-5.264 -3.645,-9.381 -9.044,-9.381 -4.994,0 -8.503,3.847 -9.245,9.381 z"
           id="path1428" />
      </g>
      <g
         enable-background="new    "
         id="g1438">
        <path
           fill="#041a87"
           d="m 404.772,308.909 h -14.376 v -9.584 h 39.145 v 9.584 h -14.375 v 37.659 h -10.394 z"
           id="path1432" />
        <path
           fill="#041a87"
           d="m 433.392,323.082 v -0.135 c 0,-13.431 10.123,-24.432 24.633,-24.432 8.908,0 14.24,2.97 18.627,7.289 l -6.613,7.626 c -3.645,-3.307 -7.356,-5.331 -12.081,-5.331 -7.964,0 -13.7,6.613 -13.7,14.713 v 0.135 c 0,8.099 5.602,14.848 13.7,14.848 5.399,0 8.706,-2.16 12.418,-5.534 l 6.614,6.682 c -4.859,5.196 -10.258,8.436 -19.369,8.436 -13.903,-0.001 -24.229,-10.731 -24.229,-24.297 z"
           id="path1434" />
        <path
           fill="#041a87"
           d="m 485.295,299.325 h 19.303 c 11.271,0 18.088,6.682 18.088,16.333 v 0.135 c 0,10.934 -8.504,16.603 -19.1,16.603 h -7.896 v 14.173 h -10.395 z m 18.628,23.825 c 5.196,0 8.233,-3.104 8.233,-7.154 v -0.135 c 0,-4.656 -3.239,-7.153 -8.436,-7.153 h -8.031 v 14.442 z"
           id="path1436" />
      </g>
      <g
         id="g1465">
        <path
           fill="#041a87"
           d="m 297.572,243.19 c 0.292,-0.004 0.589,-0.019 0.891,-0.034 45.094,-2.998 61.401,-21.814 61.142,-42.621 -0.362,-28.431 -29.014,-39.462 -65.178,-37.642 -21.167,1.063 -44.786,6.549 -49.953,16.872 0,0 -0.75,3.686 0.648,8.698 2.005,7.173 7.813,11.782 7.813,11.782 6.303,-12.469 24.058,-22.328 45.874,-24.004 28.454,-2.188 52.975,10.349 54.769,28.006 1.79,17.661 -19.823,33.747 -48.284,35.938 -13.046,0.998 -25.229,-1.116 -34.812,-5.38 l 6.85,6.642 c 7.383,1.431 11.916,2.101 20.24,1.743 z"
           id="path1440" />
        <path
           fill="#041a87"
           d="m 384.51,142.302 c 0.145,-5.015 -0.068,-9.734 -1.431,-14.133 0.36,0.406 0.754,0.803 1.088,1.214 0.968,-19.508 -41.42,-47.934 -95.476,-42.879 -30.821,2.881 -60.875,13.37 -72.941,31.075 l 1.181,6.294 c -0.057,0.286 -0.084,0.576 -0.133,0.859 -0.343,0.465 -0.729,0.91 -1.048,1.384 l 1.181,6.295 c -0.125,0.66 -0.232,1.315 -0.302,1.988 -0.655,6.42 11.5,16.109 16.028,21.633 0.002,-0.036 0.002,-0.063 0.005,-0.095 0.021,0.027 0.049,0.059 0.071,0.081 -0.021,-0.308 -0.002,-0.606 -0.011,-0.915 0.354,-5.621 1.914,-10.671 4.584,-15.136 11.737,-17.019 42.854,-24.191 57.265,-25.477 42.162,-3.767 72.821,12.646 75.899,40.091 -2.933,24.174 -31.122,40.188 -73.855,48.852 -8.5,1.722 18.774,6.401 6.271,2.347 0,0 19.642,-0.838 39.658,-8.984 -12.11,6.438 -27.691,11.482 -45.929,15.177 -8.5,1.722 18.774,6.406 6.27,2.346 0,0 79.955,-3.354 81.625,-63.475 0.065,-2.307 0.034,-4.555 -0.125,-6.732 0.038,-0.606 0.111,-1.186 0.125,-1.81 z"
           id="path1442" />
        <linearGradient
           id="SVGID_1_"
           gradientUnits="userSpaceOnUse"
           x1="581.29858"
           y1="234.01781"
           x2="361.48691"
           y2="200.8961"
           gradientTransform="matrix(1.063,0.1354,0.2041,-0.8745,-243.293,355.675)">
          <stop
             offset="0"
             style="stop-color:#03E7FF"
             id="stop1444" />
          <stop
             offset="1"
             style="stop-color:#105EFF"
             id="stop1446" />
        </linearGradient>
        <path
           fill="url(#SVGID_1_)"
           d="m 359.378,205.085 c -2.574,17.985 -23.862,35.045 -52.677,36.197 -17.31,0.694 -32.761,-3.524 -42.592,-10.618 0.103,0.451 0.207,0.901 0.341,1.352 4.869,16.564 32.518,25.104 57.395,20.57 43.855,-7.985 37.732,-46.983 37.533,-47.501 z"
           id="path1449"
           style="fill:url(#SVGID_1_)" />
        <linearGradient
           id="SVGID_2_"
           gradientUnits="userSpaceOnUse"
           x1="558.59058"
           y1="300.6868"
           x2="299.7312"
           y2="183.6691"
           gradientTransform="matrix(1,0,0,-1,-100.8999,423.4009)">
          <stop
             offset="0"
             style="stop-color:#03E7FF"
             id="stop1451" />
          <stop
             offset="1"
             style="stop-color:#105EFF"
             id="stop1453" />
        </linearGradient>
        <path
           fill="url(#SVGID_2_)"
           d="m 383.861,151.192 c -0.204,0.334 0.018,0.914 0.049,1.271 0.092,0.962 0.12,1.945 0.104,2.917 -0.023,1.436 -0.163,2.824 -0.531,4.22 -0.851,3.229 -2.476,6.201 -4.461,8.864 -5.133,6.883 -12.517,11.964 -20.006,15.975 -20.033,10.737 -43.778,15.516 -66.395,15.462 -10.607,-0.018 -21.608,-1.035 -31.62,-4.755 -7.157,-2.659 -14.826,-7.36 -16.529,-15.381 -2.355,8.707 -1.646,19.521 4.507,26.439 4.307,4.854 11.757,8.944 17.819,10.872 9.213,2.939 18.986,4.022 28.619,4.167 12.184,0.178 24.738,-0.974 36.589,-3.877 29.154,-7.142 61.651,-33.604 52.405,-67.099 0.085,0.318 -0.42,0.707 -0.55,0.925 z"
           id="path1456"
           style="fill:url(#SVGID_2_)" />
        <linearGradient
           id="SVGID_3_"
           gradientUnits="userSpaceOnUse"
           x1="533.65698"
           y1="348.65259"
           x2="288.4306"
           y2="237.7977"
           gradientTransform="matrix(1,0,0,-1,-100.8999,423.4009)">
          <stop
             offset="0"
             style="stop-color:#03E7FF"
             id="stop1458" />
          <stop
             offset="1"
             style="stop-color:#105EFF"
             id="stop1460" />
        </linearGradient>
        <path
           fill="url(#SVGID_3_)"
           d="m 422.296,93.355 c -1.255,-6.879 -6.027,-12.718 -12.741,-17.566 0.093,0.419 0.209,0.83 0.275,1.267 0.397,2.476 0.385,4.97 -0.02,7.468 -0.086,-0.063 -0.164,-0.134 -0.257,-0.195 0.051,0.23 0.101,0.464 0.152,0.695 -4.381,24.072 -44.603,48.196 -96.517,56.297 -41.852,6.522 -92.619,-0.009 -97.439,-23.74 -0.856,2.007 -4.308,10.305 -0.216,25.927 6.997,26.721 56.866,38.404 114.188,27.301 56.448,-10.94 98.783,-43.457 92.575,-77.454 z"
           id="path1463"
           style="fill:url(#SVGID_3_)" />
      </g>
    </g>
    <rect
       style="fill:none;fill-opacity:1;stroke:#000000;stroke-width:0.787488;stroke-miterlimit:4;stroke-dasharray:none"
       id="rect1503"
       width="158.58168"
       height="105.58443"
       x="-0.13542277"
       y="-0.13542277" />
    <g
       id="g1315"
       transform="matrix(0.23214506,0,0,0.20862856,34.328103,71.741926)">
      <g
         display="none"
         id="g1080">
        <g
           display="inline"
           id="g987">
          <g
             display="none"
             id="g933">
            <path
               display="inline"
               fill="#105eff"
               d="M 136.39,134.737 C 113.494,113.127 98.593,90.372 88.866,69.934 c -1.473,-3.092 -2.843,-6.138 -4.087,-9.109 -0.241,0.334 -0.485,0.673 -0.74,1.029 -2.686,3.728 -6.132,8.432 -9.013,12.131 -0.21,0.271 -0.414,0.527 -0.618,0.785 0.514,1.803 1.046,3.559 1.586,5.292 3.966,12.69 8.591,23.416 12.157,30.853 0.334,0.701 0.657,1.36 0.971,2 1.583,3.102 3.367,6.368 4.918,9.139 29.16,4.18 42.445,12.775 42.445,12.775 -0.032,-0.031 -0.063,-0.061 -0.095,-0.092 z"
               id="path901" />
            <path
               display="inline"
               fill="#008ffe"
               d="m 84.806,60.7 c 0,0 -0.031,0.049 -0.047,0.074 -0.252,-0.6 -0.477,-1.183 -0.717,-1.776 0.251,0.569 0.503,1.14 0.764,1.702 z"
               id="path903" />
            <path
               display="inline"
               fill="#008ffe"
               d="m 70.189,1.19 c 0,0 0.067,0.854 0.227,2.383 -0.326,1.416 -0.645,2.833 -0.909,4.254 0.25,-2.192 0.494,-4.386 0.682,-6.637 z"
               id="path905" />
            <path
               display="inline"
               fill="#30b0ff"
               d="m 71.363,78.449 c 0.141,-0.155 0.306,-0.353 0.459,-0.526 -0.147,0.175 -0.302,0.359 -0.453,0.536 z"
               id="path907" />
            <path
               display="inline"
               fill="#60cffe"
               d="m 93.941,122.038 c 0,0 -1.968,-3.338 -4.818,-9.123 1.583,3.102 3.367,6.368 4.918,9.139 -0.035,-0.006 -0.065,-0.013 -0.1,-0.016 z"
               id="path909" />
            <path
               fill="#2447f8"
               d="m 136.486,134.829 c -0.033,-0.03 -0.063,-0.061 -0.096,-0.092 0.302,0.196 0.599,0.38 0.899,0.58 0,0 -15.488,-9.576 -43.126,-13.045 -0.041,-0.071 -0.082,-0.146 -0.123,-0.218 29.16,4.179 42.446,12.775 42.446,12.775 z"
               id="path911" />
            <path
               fill="#0c3dee"
               d="m 1.805,135.349 c 0,0 0.03,-0.017 0.075,-0.039 19.083,-9.554 35.375,-22.232 48.348,-34.425 7.938,1.378 18.841,3.769 31.38,7.816 l 2,12.612 c -21.712,-1.25 -49.35,1.534 -81.803,14.036 z"
               id="path913" />
            <path
               display="inline"
               fill="#2447f8"
               d="m 89.123,112.915 c -0.347,-0.684 -0.684,-1.354 -1.007,-2.013 0.012,0.003 0.024,0.008 0.037,0.012 0.333,0.701 0.656,1.36 0.97,2.001 z"
               id="path915" />
            <path
               display="inline"
               fill="#186bff"
               d="m 75.026,73.985 c -0.21,0.271 -0.414,0.527 -0.618,0.785 0,-10e-4 0,-0.004 0,-0.008 0.212,-0.265 0.411,-0.517 0.618,-0.777 z"
               id="path917" />
            <path
               display="inline"
               fill="#186bff"
               d="m 69.506,7.827 c -0.402,3.538 -0.865,7.017 -1.418,10.402 0.312,-3.471 0.774,-6.943 1.418,-10.402 z"
               id="path919" />
            <path
               display="inline"
               fill="#186bff"
               d="m 70.644,2.493 c 0,0 0.037,2.835 0.588,7.8 -0.39,-2.839 -0.653,-5.143 -0.816,-6.72 0.081,-0.358 0.142,-0.721 0.228,-1.08 z"
               id="path921" />
            <path
               display="inline"
               fill="#186bff"
               d="m 84.758,60.773 c 0.007,0.017 0.013,0.035 0.021,0.051 -0.241,0.334 -0.485,0.673 -0.74,1.029 0.41,-0.606 0.642,-0.961 0.719,-1.08 z"
               id="path923" />
            <path
               display="inline"
               fill="#186bff"
               d="m 84.041,58.997 c -3.397,-7.663 -6.007,-15.913 -7.989,-23.723 1.908,7.135 4.496,15.137 7.989,23.723 z"
               id="path925" />
            <path
               display="inline"
               fill="#008ffe"
               d="m 76.052,35.274 c -2.83,-10.587 -4.182,-19.231 -4.82,-24.981 0.866,6.314 2.363,15.297 4.82,24.981 z"
               id="path927" />
            <path
               opacity="0.4"
               fill="#0827ec"
               d="m 88.115,110.902 c 0.324,0.658 0.66,1.329 1.007,2.013 2.851,5.785 4.818,9.123 4.818,9.123 0.035,0.003 0.065,0.01 0.1,0.016 0.041,0.071 0.082,0.147 0.123,0.218 -3.342,-0.419 -6.861,-0.746 -10.555,-0.958 l -2,-12.612 c 2.127,0.686 4.292,1.412 6.507,2.2 z"
               id="path929" />
            <path
               fill="#1551f5"
               d="m 84.779,60.825 c -0.241,0.334 -0.485,0.673 -0.74,1.029 -2.686,3.728 -6.132,8.432 -9.013,12.131 -0.21,0.271 -0.414,0.527 -0.618,0.785 0.514,1.803 1.046,3.559 1.586,5.292 L 88.865,69.934 c -1.472,-3.092 -2.842,-6.138 -4.086,-9.109 z"
               id="path931" />
          </g>
          <linearGradient
             id="SVGID_1_-4"
             gradientUnits="userSpaceOnUse"
             x1="728.46393"
             y1="110.6548"
             x2="672.7821"
             y2="48.361"
             gradientTransform="matrix(-1,0,0,1,737.2051,0)">
            <stop
               offset="0"
               style="stop-color:#46C8FE"
               id="stop935" />
            <stop
               offset="1"
               style="stop-color:#33B1FF"
               id="stop937" />
          </linearGradient>
          <path
             display="none"
             fill="url(#SVGID_1_)"
             d="m 68.088,18.229 c 0.553,-3.385 1.016,-6.864 1.418,-10.402 0.265,-1.421 0.583,-2.838 0.909,-4.254 0.163,1.577 0.426,3.881 0.816,6.72 0.638,5.75 1.99,14.394 4.82,24.981 1.982,7.811 4.592,16.06 7.989,23.723 0.24,0.593 0.465,1.177 0.717,1.776 -0.077,0.119 -0.31,0.473 -0.719,1.081 -2.686,3.728 -6.132,8.432 -9.013,12.131 -0.207,0.259 -0.406,0.512 -0.618,0.776 -0.818,1.016 -1.681,2.07 -2.585,3.161 -0.153,0.173 -0.318,0.371 -0.459,0.526 l 0.007,0.01 C 65.872,85.034 58.778,92.847 50.228,100.884 37.255,113.078 20.962,125.756 1.88,135.31 c -0.024,0.012 -0.049,0.026 -0.075,0.039 0,0 53.19,-37.047 66.283,-117.12 z"
             id="path940"
             style="fill:url(#SVGID_1_-4)" />
          <path
             fill="#105eff"
             d="m 136.486,134.829 c 0,0 -13.312,-8.615 -42.545,-12.791 0,0 -37.041,-62.553 -23.297,-119.545 0,0 0.64,70.87 65.842,132.336 z"
             id="path942" />
          <linearGradient
             id="SVGID_2_-8"
             gradientUnits="userSpaceOnUse"
             x1="1.8047"
             y1="117.165"
             x2="137.28909"
             y2="117.165">
            <stop
               offset="0"
               style="stop-color:#31FEFF"
               id="stop944" />
            <stop
               offset="1"
               style="stop-color:#2C54D8"
               id="stop946" />
          </linearGradient>
          <path
             display="none"
             opacity="0.9"
             fill="url(#SVGID_2_)"
             d="m 1.805,135.349 c 0,0 13.399,-7.657 34.104,-36.368 0,0 51.68,3.307 101.38,36.335 0,0 -51.868,-32.182 -135.484,0.033 z"
             id="path949"
             style="fill:url(#SVGID_2_-8)" />
          <linearGradient
             id="SVGID_3_-0"
             gradientUnits="userSpaceOnUse"
             x1="728.46393"
             y1="110.6548"
             x2="672.7821"
             y2="48.361"
             gradientTransform="matrix(-1,0,0,1,737.2051,0)">
            <stop
               offset="0"
               style="stop-color:#46C8FE"
               id="stop951" />
            <stop
               offset="1"
               style="stop-color:#33B1FF"
               id="stop953" />
          </linearGradient>
          <path
             fill="url(#SVGID_3_)"
             d="m 68.088,18.229 c 0.553,-3.385 1.016,-6.864 1.418,-10.402 0.265,-1.421 0.583,-2.838 0.909,-4.254 0.163,1.577 0.426,3.881 0.816,6.72 0.638,5.75 1.99,14.394 4.82,24.981 1.982,7.811 4.592,16.06 7.989,23.723 0.24,0.593 0.465,1.177 0.717,1.776 -0.077,0.119 -0.31,0.473 -0.719,1.081 -2.686,3.728 -6.132,8.432 -9.013,12.131 -0.207,0.259 -0.406,0.512 -0.618,0.776 -0.818,1.016 -1.681,2.07 -2.585,3.161 -0.153,0.173 -0.318,0.371 -0.459,0.526 l 0.007,0.01 C 65.872,85.034 58.778,92.847 50.228,100.884 37.255,113.078 20.962,125.756 1.88,135.31 c -0.024,0.012 -0.049,0.026 -0.075,0.039 0,0 53.19,-37.047 66.283,-117.12 z"
             id="path956"
             style="fill:url(#SVGID_3_-0)" />
          <linearGradient
             id="SVGID_4_"
             gradientUnits="userSpaceOnUse"
             x1="728.46393"
             y1="110.6548"
             x2="672.7821"
             y2="48.361"
             gradientTransform="matrix(-1,0,0,1,737.2051,0)">
            <stop
               offset="0"
               style="stop-color:#31FEFF"
               id="stop958" />
            <stop
               offset="1"
               style="stop-color:#0394FF"
               id="stop960" />
          </linearGradient>
          <path
             fill="url(#SVGID_4_)"
             d="m 68.088,18.229 c 0.553,-3.385 1.016,-6.864 1.418,-10.402 0.265,-1.421 0.583,-2.838 0.909,-4.254 0.163,1.577 0.426,3.881 0.816,6.72 0.638,5.75 1.99,14.394 4.82,24.981 1.982,7.811 4.592,16.06 7.989,23.723 0.24,0.593 0.465,1.177 0.717,1.776 -0.077,0.119 -0.31,0.473 -0.719,1.081 -2.686,3.728 -6.132,8.432 -9.013,12.131 -0.207,0.259 -0.406,0.512 -0.618,0.776 -0.818,1.016 -1.681,2.07 -2.585,3.161 -0.153,0.173 -0.318,0.371 -0.459,0.526 l 0.007,0.01 C 65.872,85.034 58.778,92.847 50.228,100.884 37.255,113.078 20.962,125.756 1.88,135.31 c -0.024,0.012 -0.049,0.026 -0.075,0.039 0,0 53.19,-37.047 66.283,-117.12 z"
             id="path963"
             style="fill:url(#SVGID_4_)" />
          <g
             id="g985">
            <path
               opacity="0.9"
               fill="#2c54d8"
               d="M 50.216,100.896 C 37.245,113.085 20.957,125.759 1.88,135.31 c -0.024,0.012 -0.049,0.026 -0.075,0.039 83.616,-32.215 135.484,-0.033 135.484,-0.033 C 103.603,112.93 69.013,104.2 50.216,100.896 Z"
               id="path965" />
            <path
               fill="#1c4bdc"
               d="m 136.486,134.829 c -0.039,-0.037 -0.076,-0.074 -0.115,-0.11 -16.546,-10.87 -33.273,-18.473 -48.206,-23.769 3.363,7.01 5.776,11.088 5.776,11.088 29.233,4.175 42.545,12.791 42.545,12.791 z"
               id="path967" />
            <linearGradient
               id="SVGID_5_"
               gradientUnits="userSpaceOnUse"
               x1="728.46393"
               y1="110.6548"
               x2="672.7821"
               y2="48.361"
               gradientTransform="matrix(-1,0,0,1,737.2051,0)">
              <stop
                 offset="0"
                 style="stop-color:#31FEFF"
                 id="stop969" />
              <stop
                 offset="1"
                 style="stop-color:#0394FF"
                 id="stop971" />
            </linearGradient>
            <path
               fill="url(#SVGID_5_)"
               d="m 35.909,98.981 c 0,0 5.371,0.345 14.307,1.916 0.004,-0.004 0.008,-0.007 0.012,-0.011 8.55,-8.038 15.645,-15.85 21.142,-22.426 l -0.007,-0.01 c 0.141,-0.155 0.306,-0.353 0.459,-0.526 0.905,-1.091 1.768,-2.146 2.585,-3.161 0.212,-0.265 0.411,-0.517 0.618,-0.776 2.881,-3.7 6.328,-8.404 9.013,-12.131 0.41,-0.607 0.642,-0.962 0.719,-1.081 C 84.505,60.175 84.28,59.592 84.04,58.999 80.643,51.336 78.033,43.086 76.051,35.276 73.221,24.689 71.869,16.045 71.231,10.295 70.841,7.456 70.578,5.152 70.415,3.575 70.089,4.991 69.77,6.408 69.506,7.829 69.104,11.367 68.641,14.846 68.088,18.231 54.995,98.302 1.805,135.349 1.805,135.349 c 0,0 13.399,-7.657 34.104,-36.368 z"
               id="path974"
               style="fill:url(#SVGID_5_)" />
            <path
               opacity="0.9"
               fill="#2c54d8"
               d="M 50.216,100.896 C 41.28,99.326 35.909,98.98 35.909,98.98 15.203,127.691 1.805,135.348 1.805,135.348 c 0.026,-0.013 0.051,-0.027 0.075,-0.039 19.077,-9.55 35.365,-22.224 48.336,-34.413 z"
               id="path976" />
            <linearGradient
               id="SVGID_6_"
               gradientUnits="userSpaceOnUse"
               x1="25.059601"
               y1="119.2686"
               x2="72.0597"
               y2="62.601898">
              <stop
                 offset="0"
                 style="stop-color:#31FEFF"
                 id="stop978" />
              <stop
                 offset="1"
                 style="stop-color:#4265DC"
                 id="stop980" />
            </linearGradient>
            <path
               fill="url(#SVGID_6_)"
               d="M 50.216,100.896 C 41.28,99.326 35.909,98.98 35.909,98.98 15.203,127.691 1.805,135.348 1.805,135.348 c 0.026,-0.013 0.051,-0.027 0.075,-0.039 19.077,-9.55 35.365,-22.224 48.336,-34.413 z"
               id="path983"
               style="fill:url(#SVGID_6_)" />
          </g>
        </g>
        <g
           id="texte_5_"
           display="inline">
          <g
             display="none"
             id="g993">
            <rect
               x="155.909"
               y="89.411003"
               display="inline"
               fill="none"
               width="629.55298"
               height="148.254"
               id="rect989" />
            <text
               transform="translate(155.9082,116.8481)"
               display="inline"
               fill="#041a87"
               font-family="Gotham-Medium"
               font-size="37.5854px"
               id="text991">Embedded</text>
          </g>
          <rect
             x="-388.99899"
             y="355.07001"
             fill="none"
             width="225.51199"
             height="63.687"
             id="rect995" />
          <text
             transform="translate(-389,409.9443)"
             display="none"
             fill="#0a1975"
             font-family="Gotham-Medium"
             font-size="75.1707px"
             id="text997">Ory</text>
          <g
             display="none"
             id="g1017">
            <g
               display="inline"
               id="g1009">
              <g
                 id="g1007">
                <path
                   fill="#ffffff"
                   d="m 160.341,49.224 v -0.151 c 0,-14.808 11.425,-27.21 27.585,-27.21 16.158,0 27.435,12.252 27.435,27.06 v 0.151 c 0,14.806 -11.427,27.208 -27.586,27.208 -16.16,-10e-4 -27.434,-12.254 -27.434,-27.058 z m 45.321,0 v -0.151 c 0,-10.222 -7.438,-18.715 -17.887,-18.715 -10.447,0 -17.738,8.342 -17.738,18.564 v 0.151 c 0,10.22 7.44,18.64 17.89,18.64 10.446,-10e-4 17.735,-8.269 17.735,-18.489 z"
                   id="path999" />
                <path
                   fill="#ffffff"
                   d="m 294.519,54.636 -20.896,-31.87 h 10.975 l 14.656,23.224 14.881,-23.224 h 10.599 l -20.895,31.641 v 20.97 h -9.32 z"
                   id="path1001" />
                <path
                   fill="#ffffff"
                   d="m 375.323,22.766 -18.34,25.705 19.091,26.906 H 365.177 L 351.271,55.31 337.441,75.377 H 326.845 L 345.859,48.62 327.596,22.766 h 10.896 l 13.08,19.09 13.151,-19.09 z"
                   id="path1003" />
                <path
                   fill="#ffffff"
                   d="M 271.287,75.377 257.081,55.461 c 7.291,-2.106 12.477,-7.29 12.477,-15.936 v -0.149 c 0,-4.586 -1.578,-8.493 -4.36,-11.35 -3.381,-3.305 -8.567,-5.261 -15.181,-5.261 h -23.45 v 52.611 h 9.242 V 31.184 h 13.455 c 6.839,0 10.9,3.082 10.9,8.72 v 0.148 c 0,5.339 -4.21,8.795 -10.825,8.795 h -7.392 l 7.969,11.782 10.396,14.749 h 10.975 z"
                   id="path1005" />
              </g>
            </g>
            <g
               display="inline"
               id="g1015">
              <rect
                 x="155.909"
                 y="89.411003"
                 fill="none"
                 width="629.55298"
                 height="148.254"
                 id="rect1011" />
              <text
                 transform="translate(155.9082,116.8481)"
                 fill="#ffffff"
                 font-family="Gotham-Book"
                 font-size="37.5854px"
                 id="text1013">Embedded</text>
            </g>
          </g>
          <g
             id="g1077">
            <g
               id="g1057">
              <g
                 id="g1055">
                <path
                   fill="#041a87"
                   d="m 160.341,49.224 v -0.151 c 0,-14.808 11.425,-27.21 27.585,-27.21 16.158,0 27.435,12.252 27.435,27.06 v 0.151 c 0,14.806 -11.427,27.208 -27.586,27.208 -16.16,-10e-4 -27.434,-12.254 -27.434,-27.058 z m 45.321,0 v -0.151 c 0,-10.222 -7.438,-18.715 -17.887,-18.715 -10.447,0 -17.738,8.342 -17.738,18.564 v 0.151 c 0,10.22 7.44,18.64 17.89,18.64 10.446,-10e-4 17.735,-8.269 17.735,-18.489 z"
                   id="path1019" />
                <path
                   fill="#041a87"
                   d="m 294.519,54.636 -20.896,-31.87 h 10.975 l 14.656,23.224 14.881,-23.224 h 10.599 l -20.895,31.641 v 20.97 h -9.32 z"
                   id="path1021" />
                <path
                   fill="#041a87"
                   d="M 271.287,75.377 257.081,55.461 c 7.291,-2.106 12.477,-7.29 12.477,-15.936 v -0.149 c 0,-4.586 -1.578,-8.493 -4.36,-11.35 -3.381,-3.305 -8.567,-5.261 -15.181,-5.261 h -23.45 v 52.611 h 9.242 V 31.184 h 13.455 c 6.839,0 10.9,3.082 10.9,8.72 v 0.148 c 0,5.339 -4.21,8.795 -10.825,8.795 h -7.392 l 7.969,11.782 10.396,14.749 h 10.975 z"
                   id="path1023" />
                <g
                   id="g1053">
                  <polygon
                     fill="#041a87"
                     points="344.739,47.036 350.079,39.678 338.492,22.766 327.596,22.766 "
                     id="polygon1025" />
                  <polygon
                     fill="#041a87"
                     points="358.117,50.069 352.766,57.468 365.177,75.377 376.074,75.377 "
                     id="polygon1027" />
                  <polygon
                     fill="#03e7ff"
                     points="370.124,30.053 375.366,22.805 375.296,22.805 364.795,22.805 362.863,25.467 351.279,41.429 336.267,62.118 326.819,75.137 327.016,75.137 337.52,75.137 339.359,72.594 351.558,55.726 "
                     id="polygon1029" />
                  <g
                     display="none"
                     id="g1051">
                    <polygon
                       display="inline"
                       fill="#ffffff"
                       points="352.162,56.597 351.558,55.726 339.359,72.594 337.44,75.377 326.845,75.377 327.016,75.137 326.819,75.137 336.267,62.118 345.858,48.62 345.35,47.899 324.858,76.137 338.03,76.137 "
                       id="polygon1031" />
                    <polygon
                       display="inline"
                       fill="#ffffff"
                       points="345.858,48.62 336.267,62.118 351.279,41.429 350.68,40.554 345.35,47.899 "
                       id="polygon1033" />
                    <polygon
                       display="inline"
                       fill="#ffffff"
                       points="370.124,30.053 351.558,55.726 352.162,56.597 357.506,49.208 356.983,48.471 "
                       id="polygon1035" />
                    <polygon
                       display="inline"
                       fill="#ffffff"
                       points="375.296,22.805 375.323,22.766 364.724,22.766 362.863,25.467 364.795,22.805 "
                       id="polygon1037" />
                    <polygon
                       display="inline"
                       fill="#ffffff"
                       points="327.016,75.137 326.845,75.377 337.44,75.377 339.359,72.594 337.52,75.137 "
                       id="polygon1039" />
                    <polygon
                       display="inline"
                       fill="#ffffff"
                       points="358.117,50.069 376.986,23.977 379.281,20.805 375.366,20.805 364.795,20.805 363.775,20.805 363.176,21.63 350.079,39.678 350.68,40.554 364.285,21.805 377.323,21.805 357.506,49.208 "
                       id="polygon1041" />
                    <polygon
                       display="inline"
                       fill="#ffffff"
                       points="352.766,57.468 352.162,56.597 338.03,76.137 324.858,76.137 345.35,47.899 344.739,47.036 325.2,73.962 322.896,77.137 326.819,77.137 337.52,77.137 338.541,77.137 339.141,76.309 "
                       id="polygon1043" />
                    <polygon
                       display="inline"
                       fill="#ffffff"
                       points="358.117,50.069 357.506,49.208 352.162,56.597 352.766,57.468 "
                       id="polygon1045" />
                    <polygon
                       display="inline"
                       fill="#ffffff"
                       points="344.739,47.036 345.35,47.899 350.68,40.554 350.079,39.678 "
                       id="polygon1047" />
                    <polygon
                       display="inline"
                       fill="#ffffff"
                       points="350.68,40.554 351.279,41.429 362.863,25.467 364.724,22.766 375.323,22.766 375.296,22.805 375.366,22.805 370.124,30.053 356.983,48.471 357.506,49.208 377.323,21.805 364.285,21.805 "
                       id="polygon1049" />
                  </g>
                </g>
              </g>
            </g>
            <g
               id="g1075">
              <path
                 fill="#041a87"
                 d="m 159.63,90.53 h 19.023 v 2.708 H 162.6 v 8.985 h 14.361 v 2.707 H 162.6 v 9.211 h 16.242 v 2.708 H 159.63 Z"
                 id="path1059" />
              <path
                 fill="#041a87"
                 d="m 184.812,90.53 h 3.009 l 9.586,14.363 9.589,-14.363 h 3.006 v 26.319 h -2.97 V 95.532 l -9.588,14.098 h -0.151 l -9.586,-14.061 v 21.28 h -2.895 z"
                 id="path1061" />
              <path
                 fill="#041a87"
                 d="m 217.436,90.53 h 11.203 c 3.01,0 5.379,0.866 6.879,2.333 1.094,1.127 1.693,2.518 1.693,4.21 v 0.074 c 0,3.422 -2.105,5.188 -4.172,6.091 3.119,0.94 5.64,2.745 5.64,6.354 v 0.076 c 0,4.511 -3.797,7.181 -9.551,7.181 h -11.692 z m 16.769,6.956 c 0,-2.593 -2.067,-4.285 -5.828,-4.285 h -8.01 v 9.061 h 7.783 c 3.57,0 6.055,-1.617 6.055,-4.7 z m -5.527,7.408 h -8.311 v 9.286 h 8.837 c 3.984,0 6.465,-1.767 6.465,-4.699 v -0.076 c 0,-2.858 -2.406,-4.511 -6.991,-4.511 z"
                 id="path1063" />
              <path
                 fill="#041a87"
                 d="m 244.572,90.53 h 19.023 v 2.708 H 247.54 v 8.985 h 14.364 v 2.707 H 247.54 v 9.211 h 16.244 v 2.708 h -19.212 z"
                 id="path1065" />
              <path
                 fill="#041a87"
                 d="m 269.755,90.53 h 9.136 c 8.271,0 13.985,5.678 13.985,13.085 v 0.075 c 0,7.406 -5.714,13.159 -13.985,13.159 h -9.136 z m 2.969,2.745 v 20.829 h 6.167 c 6.654,0 10.901,-4.512 10.901,-10.339 v -0.075 c 0,-5.828 -4.247,-10.415 -10.901,-10.415 z"
                 id="path1067" />
              <path
                 fill="#041a87"
                 d="m 299.146,90.53 h 9.136 c 8.271,0 13.985,5.678 13.985,13.085 v 0.075 c 0,7.406 -5.715,13.159 -13.985,13.159 h -9.136 z m 2.97,2.745 v 20.829 h 6.166 c 6.654,0 10.901,-4.512 10.901,-10.339 v -0.075 c 0,-5.828 -4.247,-10.415 -10.901,-10.415 z"
                 id="path1069" />
              <path
                 fill="#041a87"
                 d="m 328.54,90.53 h 19.021 v 2.708 h -16.053 v 8.985 h 14.361 v 2.707 h -14.361 v 9.211 h 16.243 v 2.708 H 328.54 Z"
                 id="path1071" />
              <path
                 fill="#041a87"
                 d="m 353.721,90.53 h 9.135 c 8.274,0 13.986,5.678 13.986,13.085 v 0.075 c 0,7.406 -5.712,13.159 -13.986,13.159 h -9.135 z m 2.97,2.745 v 20.829 h 6.164 c 6.654,0 10.904,-4.512 10.904,-10.339 v -0.075 c 0,-5.828 -4.25,-10.415 -10.904,-10.415 z"
                 id="path1073" />
            </g>
          </g>
        </g>
      </g>
      <g
         id="g1167">
        <path
           fill="#2447f8"
           d="m 90.346,112.393 c -0.344,-0.678 -0.678,-1.344 -1,-1.998 0.012,0.003 0.024,0.007 0.037,0.012 0.332,0.697 0.651,1.35 0.963,1.986 z"
           id="path1082" />
        <path
           fill="#186bff"
           d="m 76.351,73.743 c -0.208,0.27 -0.411,0.525 -0.614,0.78 0,-0.002 0,-0.004 0,-0.009 0.211,-0.263 0.409,-0.514 0.614,-0.771 z"
           id="path1084" />
        <path
           fill="#186bff"
           d="m 70.871,8.06 c -0.398,3.513 -0.859,6.966 -1.407,10.327 0.309,-3.446 0.767,-6.893 1.407,-10.327 z"
           id="path1086" />
        <path
           fill="#186bff"
           d="m 72,2.764 c 0,0 0.036,2.814 0.583,7.743 C 72.196,7.69 71.935,5.402 71.772,3.837 71.854,3.481 71.915,3.121 72,2.764 Z"
           id="path1088" />
        <path
           fill="#186bff"
           d="m 86.014,60.626 c 0.006,0.017 0.012,0.035 0.021,0.051 -0.239,0.332 -0.482,0.668 -0.735,1.022 0.406,-0.603 0.637,-0.955 0.714,-1.073 z"
           id="path1090" />
        <path
           fill="#186bff"
           d="M 85.301,58.863 C 81.929,51.255 79.337,43.065 77.369,35.31 c 1.895,7.084 4.464,15.028 7.932,23.553 z"
           id="path1092" />
        <path
           fill="#186bff"
           d="m 90.091,69.72 c 9.657,20.292 24.452,42.883 47.183,64.338 0.032,0.031 0.063,0.062 0.095,0.091 0,0 -13.189,-8.533 -42.14,-12.683 -1.541,-2.751 -3.312,-5.995 -4.883,-9.074 -0.312,-0.636 -0.631,-1.289 -0.963,-1.986 -3.542,-7.383 -8.133,-18.032 -12.07,-30.63 z"
           id="path1094" />
        <path
           fill="#008ffe"
           d="m 77.369,35.31 c -2.81,-10.511 -4.152,-19.093 -4.786,-24.803 0.86,6.271 2.347,15.189 4.786,24.803 z"
           id="path1096" />
        <path
           fill="#008ffe"
           d="m 86.061,60.553 c 0,0 -0.03,0.048 -0.047,0.073 -0.251,-0.595 -0.474,-1.174 -0.713,-1.763 0.251,0.565 0.5,1.132 0.76,1.69 z"
           id="path1098" />
        <path
           fill="#008ffe"
           d="m 71.549,1.471 c 0,0 0.066,0.848 0.224,2.367 -0.324,1.405 -0.639,2.812 -0.902,4.223 0.248,-2.177 0.491,-4.355 0.678,-6.59 z"
           id="path1100" />
        <path
           fill="#30b0ff"
           d="m 72.714,78.175 c 0.14,-0.154 0.304,-0.35 0.456,-0.522 -0.146,0.174 -0.3,0.356 -0.449,0.532 z"
           id="path1102" />
        <path
           fill="#60cffe"
           d="m 95.13,121.45 c 0,0 -1.953,-3.314 -4.784,-9.058 1.571,3.079 3.342,6.322 4.883,9.074 -0.034,-0.006 -0.064,-0.012 -0.099,-0.016 z"
           id="path1104" />
        <linearGradient
           id="SVGID_7_"
           gradientUnits="userSpaceOnUse"
           x1="726.66309"
           y1="110.1494"
           x2="671.38092"
           y2="48.3027"
           gradientTransform="matrix(-1,0,0,1,737.2051,0)">
          <stop
             offset="0"
             style="stop-color:#46C8FE"
             id="stop1106" />
          <stop
             offset="1"
             style="stop-color:#33B1FF"
             id="stop1108" />
        </linearGradient>
        <path
           fill="url(#SVGID_7_)"
           d="m 69.464,18.387 c 0.548,-3.361 1.008,-6.814 1.407,-10.327 0.263,-1.411 0.579,-2.818 0.902,-4.223 0.163,1.565 0.423,3.853 0.811,6.67 0.633,5.709 1.976,14.292 4.786,24.803 1.968,7.754 4.56,15.945 7.932,23.553 0.239,0.589 0.462,1.168 0.713,1.763 -0.077,0.118 -0.308,0.47 -0.715,1.073 -2.666,3.701 -6.087,8.371 -8.948,12.043 -0.205,0.257 -0.403,0.508 -0.614,0.771 -0.812,1.008 -1.668,2.055 -2.567,3.138 -0.152,0.172 -0.316,0.368 -0.456,0.522 l 0.007,0.01 C 67.264,84.712 60.22,92.468 51.731,100.449 38.852,112.553 22.675,125.141 3.73,134.626 c -0.023,0.012 -0.048,0.027 -0.075,0.039 0,0.002 52.809,-36.78 65.809,-116.278 z"
           id="path1111"
           style="fill:url(#SVGID_7_)" />
        <path
           fill="#041a87"
           d="m 3.655,134.667 c 0,0 13.303,-7.603 33.86,-36.108 0,0 51.309,3.284 100.652,36.075 0,0 -51.496,-31.951 -134.512,0.033 z"
           id="path1113" />
        <path
           fill="#041a87"
           d="m 137.369,134.149 c 0,0 -13.215,-8.553 -42.239,-12.699 0,0 -36.774,-62.104 -23.129,-118.686 -0.001,0 0.635,70.361 65.368,131.385 z"
           id="path1115" />
        <linearGradient
           id="SVGID_8_"
           gradientUnits="userSpaceOnUse"
           x1="726.66309"
           y1="110.1494"
           x2="671.38092"
           y2="48.3027"
           gradientTransform="matrix(-1,0,0,1,737.2051,0)">
          <stop
             offset="0"
             style="stop-color:#46C8FE"
             id="stop1117" />
          <stop
             offset="1"
             style="stop-color:#33B1FF"
             id="stop1119" />
        </linearGradient>
        <path
           fill="url(#SVGID_8_)"
           d="m 69.464,18.387 c 0.548,-3.361 1.008,-6.814 1.407,-10.327 0.263,-1.411 0.579,-2.818 0.902,-4.223 0.163,1.565 0.423,3.853 0.811,6.67 0.633,5.709 1.976,14.292 4.786,24.803 1.968,7.754 4.56,15.945 7.932,23.553 0.239,0.589 0.462,1.168 0.713,1.763 -0.077,0.118 -0.308,0.47 -0.715,1.073 -2.666,3.701 -6.087,8.371 -8.948,12.043 -0.205,0.257 -0.403,0.508 -0.614,0.771 -0.812,1.008 -1.668,2.055 -2.567,3.138 -0.152,0.172 -0.316,0.368 -0.456,0.522 l 0.007,0.01 C 67.264,84.712 60.22,92.468 51.731,100.449 38.852,112.553 22.675,125.141 3.73,134.626 c -0.023,0.012 -0.048,0.027 -0.075,0.039 0,0.002 52.809,-36.78 65.809,-116.278 z"
           id="path1122"
           style="fill:url(#SVGID_8_)" />
        <linearGradient
           id="SVGID_9_"
           gradientUnits="userSpaceOnUse"
           x1="726.66309"
           y1="110.1494"
           x2="671.38092"
           y2="48.3027"
           gradientTransform="matrix(-1,0,0,1,737.2051,0)">
          <stop
             offset="0"
             style="stop-color:#03E7FF"
             id="stop1124" />
          <stop
             offset="1"
             style="stop-color:#105EFF"
             id="stop1126" />
        </linearGradient>
        <path
           fill="url(#SVGID_9_)"
           d="m 69.464,18.387 c 0.548,-3.361 1.008,-6.814 1.407,-10.327 0.263,-1.411 0.579,-2.818 0.902,-4.223 0.163,1.565 0.423,3.853 0.811,6.67 0.633,5.709 1.976,14.292 4.786,24.803 1.968,7.754 4.56,15.945 7.932,23.553 0.239,0.589 0.462,1.168 0.713,1.763 -0.077,0.118 -0.308,0.47 -0.715,1.073 -2.666,3.701 -6.087,8.371 -8.948,12.043 -0.205,0.257 -0.403,0.508 -0.614,0.771 -0.812,1.008 -1.668,2.055 -2.567,3.138 -0.152,0.172 -0.316,0.368 -0.456,0.522 l 0.007,0.01 C 67.264,84.712 60.22,92.468 51.731,100.449 38.852,112.553 22.675,125.141 3.73,134.626 c -0.023,0.012 -0.048,0.027 -0.075,0.039 0,0.002 52.809,-36.78 65.809,-116.278 z"
           id="path1129"
           style="fill:url(#SVGID_9_)" />
        <g
           id="g1159">
          <g
             id="g1139">
            <g
               id="g1137">
              <path
                 fill="#041a87"
                 d="m 161.054,49.16 v -0.15 c 0,-14.702 11.343,-27.014 27.387,-27.014 16.042,0 27.237,12.163 27.237,26.864 v 0.15 c 0,14.7 -11.346,27.013 -27.387,27.013 C 172.247,76.022 161.054,63.857 161.054,49.16 Z m 44.994,0 v -0.15 c 0,-10.148 -7.383,-18.581 -17.757,-18.581 -10.374,0 -17.611,8.282 -17.611,18.431 v 0.15 c 0,10.147 7.387,18.506 17.76,18.506 10.373,0 17.608,-8.21 17.608,-18.356 z"
                 id="path1131" />
              <path
                 fill="#041a87"
                 d="M 294.267,54.533 273.522,22.892 h 10.896 l 14.549,23.057 14.776,-23.057 h 10.521 l -20.742,31.414 v 20.82 h -9.254 V 54.533 Z"
                 id="path1133" />
              <path
                 fill="#041a87"
                 d="M 271.203,75.126 257.099,55.353 c 7.238,-2.092 12.388,-7.238 12.388,-15.821 v -0.148 c 0,-4.553 -1.569,-8.433 -4.33,-11.269 -3.355,-3.282 -8.507,-5.223 -15.071,-5.223 h -23.284 v 52.234 h 9.177 V 31.249 h 13.36 c 6.788,0 10.821,3.059 10.821,8.657 v 0.148 c 0,5.3 -4.18,8.731 -10.746,8.731 h -7.34 l 7.913,11.697 10.321,14.644 z"
                 id="path1135" />
            </g>
          </g>
          <g
             id="g1157">
            <path
               fill="#041a87"
               d="m 160.347,90.17 h 18.887 v 2.688 h -15.938 v 8.921 h 14.258 v 2.688 h -14.258 v 9.144 h 16.125 v 2.688 h -19.074 z"
               id="path1141" />
            <path
               fill="#041a87"
               d="m 185.348,90.17 h 2.986 l 9.518,14.26 9.519,-14.26 h 2.986 v 26.129 h -2.948 V 95.135 l -9.52,13.998 h -0.15 l -9.517,-13.96 V 116.3 h -2.875 V 90.17 Z"
               id="path1143" />
            <path
               fill="#041a87"
               d="m 217.737,90.17 h 11.124 c 2.985,0 5.339,0.859 6.831,2.315 1.083,1.119 1.679,2.499 1.679,4.18 v 0.074 c 0,3.397 -2.089,5.151 -4.143,6.047 3.098,0.933 5.6,2.725 5.6,6.309 v 0.075 c 0,4.479 -3.771,7.129 -9.482,7.129 H 217.738 V 90.17 Z m 16.649,6.905 c 0,-2.575 -2.054,-4.254 -5.787,-4.254 h -7.951 v 8.995 h 7.728 c 3.546,0 6.01,-1.605 6.01,-4.666 z m -5.488,7.355 h -8.25 v 9.219 h 8.772 c 3.958,0 6.422,-1.754 6.422,-4.666 v -0.075 c 0,-2.837 -2.389,-4.478 -6.944,-4.478 z"
               id="path1145" />
            <path
               fill="#041a87"
               d="m 244.679,90.17 h 18.887 v 2.688 h -15.938 v 8.921 h 14.259 v 2.688 h -14.259 v 9.144 h 16.126 v 2.688 h -19.075 z"
               id="path1147" />
            <path
               fill="#041a87"
               d="m 269.679,90.17 h 9.07 c 8.213,0 13.887,5.637 13.887,12.99 v 0.075 c 0,7.353 -5.674,13.064 -13.887,13.064 h -9.07 z m 2.951,2.725 v 20.679 h 6.119 c 6.609,0 10.827,-4.478 10.827,-10.265 v -0.074 c 0,-5.785 -4.218,-10.34 -10.827,-10.34 z"
               id="path1149" />
            <path
               fill="#041a87"
               d="m 298.862,90.17 h 9.069 c 8.21,0 13.885,5.637 13.885,12.99 v 0.075 c 0,7.353 -5.675,13.064 -13.885,13.064 h -9.069 z m 2.949,2.725 v 20.679 h 6.121 c 6.606,0 10.824,-4.478 10.824,-10.265 v -0.074 c 0,-5.785 -4.218,-10.34 -10.824,-10.34 z"
               id="path1151" />
            <path
               fill="#041a87"
               d="m 328.042,90.17 h 18.888 v 2.688 h -15.938 v 8.921 h 14.259 v 2.688 h -14.259 v 9.144 h 16.126 v 2.688 H 328.043 V 90.17 Z"
               id="path1153" />
            <path
               fill="#041a87"
               d="m 353.043,90.17 h 9.07 c 8.212,0 13.887,5.637 13.887,12.99 v 0.075 c 0,7.353 -5.675,13.064 -13.887,13.064 h -9.07 z m 2.95,2.725 v 20.679 h 6.12 c 6.608,0 10.826,-4.478 10.826,-10.265 v -0.074 c 0,-5.785 -4.218,-10.34 -10.826,-10.34 z"
               id="path1155" />
          </g>
        </g>
        <polygon
           fill="#041a87"
           points="342.81,45.124 348.132,37.79 337.924,22.892 327.105,22.892 "
           id="polygon1161" />
        <polygon
           fill="#041a87"
           points="358.73,51.86 353.401,59.229 364.418,75.126 375.237,75.126 "
           id="polygon1163" />
        <polygon
           fill="#041a87"
           points="369.305,30.163 374.535,22.93 374.465,22.93 364.038,22.93 362.146,25.539 350.621,41.42 335.763,61.893 326.335,74.887 326.53,74.887 336.96,74.887 338.757,72.402 350.896,55.615 "
           id="polygon1165" />
      </g>
    </g>
  </g>
</svg>
