<?xml version="1.0" encoding="utf-8"?>
<!-- Generator: Adobe Illustrator 16.0.0, SVG Export Plug-In . SVG Version: 6.00 Build 0)  -->
<!DOCTYPE svg PUBLIC "-//W3C//DTD SVG 1.1//EN" "http://www.w3.org/Graphics/SVG/1.1/DTD/svg11.dtd">
<svg version="1.1" id="Layer_2" xmlns="http://www.w3.org/2000/svg" xmlns:xlink="http://www.w3.org/1999/xlink" x="0px" y="0px"
	 width="790.331px" height="198.666px" viewBox="0 0 790.331 198.666" enable-background="new 0 0 790.331 198.666"
	 xml:space="preserve">
<g>
	<g>
		<path fill="#EAEAEA" d="M5,39V5c0-2.761,2.239-5,5-5"/>
		<path fill="#EAEAEA" d="M5,5v34h621V0H10C7.239,0,5,2.239,5,5z"/>
		<line fill="#FFFFFF" x1="5" y1="78" x2="5" y2="39"/>
		<rect x="5" y="39" fill="#FFFFFF" width="621" height="39"/>
		<line fill="#EAEAEA" x1="5" y1="117" x2="5" y2="78"/>
		<rect x="5" y="78" fill="#FFFFFF" width="621" height="39"/>
		<line fill="#FFFFFF" x1="5" y1="156" x2="5" y2="117"/>
		<rect x="5" y="117" fill="#FFFFFF" width="621" height="39"/>
		<line fill="#EAEAEA" x1="5" y1="195" x2="5" y2="156"/>
		<rect x="5" y="156" fill="#EAEAEA" width="621" height="39"/>
	</g>
	<g>
		<g>
			<path fill="#041A87" d="M785,0H626v37v1h162v-1V3C788,0.239,787.762,0,785,0z"/>
			<polygon fill="#36479F" points="626,38 626,76 626,117 626,156 788,156 788,117 788,76 788,38 			"/>
		</g>
		<rect x="626" y="156" fill="#041A87" width="162" height="39"/>
	</g>
	<g id="Texte_4_" display="none">
		<rect x="31.665" y="13.998" display="inline" fill="none" width="617.335" height="21.333"/>
		<text transform="matrix(1 0 0 1 31.665 24.2178)" display="inline" fill="#4D4D4D" font-family="'Gotham-Medium'" font-size="14">HTTP          HTTP/2          MQTT        MQTT-SN         CoAP             FTP             SMTP</text>
		<rect x="85.666" y="129.668" display="inline" fill="none" width="495.336" height="21.332"/>
		
			<text transform="matrix(1 0 0 1 85.666 139.8877)" display="inline" fill="#4D4D4D" font-family="'Gotham-Medium'" font-size="14">TLS Record Protocol                                      DTLS Record Protocol</text>
		<rect x="5.333" y="169" display="inline" fill="none" width="620.667" height="24"/>
		
			<text transform="matrix(1 0 0 1 291.4111 179.2197)" display="inline" fill="#4D4D4D" font-family="'Gotham-Medium'" font-size="14">Socket</text>
		<rect x="5" y="60.333" display="inline" fill="none" width="153" height="52.666"/>
		<text transform="matrix(1 0 0 1 32.0249 70.5527)" display="inline"><tspan x="0" y="0" fill="#4D4D4D" font-family="'Gotham-Medium'" font-size="14">TLS Hanshake</tspan><tspan x="17.135" y="16.8" fill="#4D4D4D" font-family="'Gotham-Medium'" font-size="14"> Protocol</tspan></text>
		<rect x="159" y="55.333" display="inline" fill="none" width="153" height="52.666"/>
		<text transform="matrix(1 0 0 1 193.1714 65.5527)" display="inline"><tspan x="0" y="0" fill="#4D4D4D" font-family="'Gotham-Medium'" font-size="14">TLS Change</tspan><tspan x="-0.497" y="16.8" fill="#4D4D4D" font-family="'Gotham-Medium'" font-size="14">Cipher Spec </tspan><tspan x="12.089" y="33.6" fill="#4D4D4D" font-family="'Gotham-Medium'" font-size="14">Protocol</tspan></text>
		<rect x="315" y="60.333" display="inline" fill="none" width="153" height="52.666"/>
		<text transform="matrix(1 0 0 1 358.5234 70.5527)" display="inline"><tspan x="0" y="0" fill="#4D4D4D" font-family="'Gotham-Medium'" font-size="14">TLS Alert</tspan><tspan x="2.737" y="16.8" fill="#4D4D4D" font-family="'Gotham-Medium'" font-size="14">Protocol</tspan></text>
		<rect x="472" y="60.333" display="inline" fill="none" width="153" height="52.666"/>
		<text transform="matrix(1 0 0 1 507.6484 70.5527)" display="inline"><tspan x="0" y="0" fill="#4D4D4D" font-family="'Gotham-Medium'" font-size="14">Application</tspan><tspan x="24.283" y="16.8" fill="#4D4D4D" font-family="'Gotham-Medium'" font-size="14">Data</tspan></text>
		<rect x="642.998" y="14.332" display="inline" fill="none" width="147.333" height="309.668"/>
		<text transform="matrix(1 0 0 1 642.998 24.4395)" display="inline"><tspan x="0" y="0" fill="#FFFFFF" font-family="'GothamNarrow-Medium'" font-size="14">7 - Application</tspan><tspan x="0" y="68" fill="#FFFFFF" font-family="'GothamNarrow-Medium'" font-size="14">6 - Presentation</tspan><tspan x="0" y="155" fill="#FFFFFF" font-family="'GothamNarrow-Medium'" font-size="14">5 - Session</tspan></text>
	</g>
	<g id="Texte_1_">
		<g>
			<path fill="#4D4D4D" d="M32.926,14.413h1.723v4.076h4.679v-4.076h1.723v9.805h-1.723v-4.132h-4.679v4.132h-1.723V14.413z"/>
			<path fill="#4D4D4D" d="M45.975,16.009h-3.11v-1.597h7.957v1.597h-3.11v8.208h-1.737V16.009z"/>
			<path fill="#4D4D4D" d="M55.047,16.009h-3.109v-1.597h7.956v1.597h-3.11v8.208h-1.737V16.009z"/>
			<path fill="#4D4D4D" d="M61.709,14.413h3.866c2.297,0,3.726,1.303,3.726,3.278v0.028c0,2.199-1.765,3.348-3.922,3.348h-1.947
				v3.152h-1.723V14.413z M65.436,19.511c1.303,0,2.115-0.729,2.115-1.751v-0.028c0-1.149-0.827-1.751-2.115-1.751h-2.003v3.53
				H65.436z"/>
			<path fill="#4D4D4D" d="M113.059,14.413h1.723v4.076h4.679v-4.076h1.723v9.805h-1.723v-4.132h-4.679v4.132h-1.723V14.413z"/>
			<path fill="#4D4D4D" d="M126.108,16.009h-3.11v-1.597h7.957v1.597h-3.11v8.208h-1.737V16.009z"/>
			<path fill="#4D4D4D" d="M135.18,16.009h-3.109v-1.597h7.956v1.597h-3.11v8.208h-1.737V16.009z"/>
			<path fill="#4D4D4D" d="M141.842,14.413h3.866c2.297,0,3.726,1.303,3.726,3.278v0.028c0,2.199-1.765,3.348-3.922,3.348h-1.947
				v3.152h-1.723V14.413z M145.568,19.511c1.303,0,2.115-0.729,2.115-1.751v-0.028c0-1.149-0.827-1.751-2.115-1.751h-2.003v3.53
				H145.568z"/>
			<path fill="#4D4D4D" d="M155.075,13.04h1.471l-6.332,12.971h-1.471L155.075,13.04z"/>
			<path fill="#4D4D4D" d="M156.794,22.859l3.375-2.872c1.345-1.148,1.835-1.765,1.835-2.647c0-0.966-0.686-1.526-1.583-1.526
				s-1.513,0.49-2.255,1.471l-1.232-0.967c0.938-1.303,1.863-2.045,3.614-2.045c1.919,0,3.236,1.177,3.236,2.928v0.028
				c0,1.541-0.813,2.381-2.549,3.796l-2.017,1.681h4.665v1.513h-7.088V22.859z"/>
			<path fill="#4D4D4D" d="M207.948,14.413h1.835l2.983,4.636l2.984-4.636h1.835v9.805h-1.723v-7.032l-3.096,4.623h-0.056
				l-3.068-4.595v7.004h-1.695V14.413z"/>
			<path fill="#4D4D4D" d="M228.938,24.512l-1.177-1.05c-0.827,0.574-1.835,0.924-2.983,0.924c-3.012,0-5.113-2.283-5.113-5.042
				v-0.028c0-2.759,2.129-5.071,5.141-5.071s5.113,2.284,5.113,5.043v0.028c0,1.107-0.364,2.157-0.995,3.012l1.121,0.953
				L228.938,24.512z M226.501,22.341l-1.695-1.443l1.106-1.261l1.723,1.569c0.308-0.532,0.476-1.163,0.476-1.863v-0.028
				c0-1.905-1.387-3.488-3.333-3.488c-1.947,0-3.306,1.555-3.306,3.46v0.028c0,1.905,1.387,3.474,3.334,3.474
				C225.45,22.789,226.025,22.621,226.501,22.341z"/>
			<path fill="#4D4D4D" d="M233.876,16.009h-3.11v-1.597h7.957v1.597h-3.11v8.208h-1.737V16.009z"/>
			<path fill="#4D4D4D" d="M242.948,16.009h-3.109v-1.597h7.956v1.597h-3.11v8.208h-1.737V16.009z"/>
			<path fill="#4D4D4D" d="M283.208,14.413h1.835l2.983,4.636l2.984-4.636h1.835v9.805h-1.723v-7.032l-3.096,4.623h-0.056
				l-3.068-4.595v7.004h-1.695V14.413z"/>
			<path fill="#4D4D4D" d="M304.199,24.512l-1.177-1.05c-0.827,0.574-1.835,0.924-2.983,0.924c-3.012,0-5.113-2.283-5.113-5.042
				v-0.028c0-2.759,2.129-5.071,5.141-5.071s5.113,2.284,5.113,5.043v0.028c0,1.107-0.364,2.157-0.995,3.012l1.121,0.953
				L304.199,24.512z M301.762,22.341l-1.695-1.443l1.106-1.261l1.723,1.569c0.308-0.532,0.476-1.163,0.476-1.863v-0.028
				c0-1.905-1.387-3.488-3.333-3.488c-1.947,0-3.306,1.555-3.306,3.46v0.028c0,1.905,1.387,3.474,3.334,3.474
				C300.711,22.789,301.286,22.621,301.762,22.341z"/>
			<path fill="#4D4D4D" d="M309.138,16.009h-3.109v-1.597h7.956v1.597h-3.11v8.208h-1.737V16.009z"/>
			<path fill="#4D4D4D" d="M318.209,16.009h-3.11v-1.597h7.957v1.597h-3.11v8.208h-1.737V16.009z"/>
			<path fill="#4D4D4D" d="M323.136,19.091h4.146v1.667h-4.146V19.091z"/>
			<path fill="#4D4D4D" d="M328.666,22.789l1.036-1.233c0.938,0.813,1.891,1.275,3.096,1.275c1.065,0,1.737-0.504,1.737-1.233V21.57
				c0-0.7-0.393-1.079-2.213-1.499c-2.087-0.504-3.264-1.12-3.264-2.927v-0.028c0-1.681,1.401-2.843,3.348-2.843
				c1.429,0,2.563,0.434,3.558,1.232l-0.925,1.303c-0.882-0.658-1.765-1.008-2.661-1.008c-1.009,0-1.597,0.518-1.597,1.163v0.028
				c0,0.756,0.448,1.093,2.339,1.541c2.073,0.504,3.138,1.247,3.138,2.872v0.028c0,1.835-1.443,2.928-3.502,2.928
				C331.257,24.358,329.842,23.839,328.666,22.789z"/>
			<path fill="#4D4D4D" d="M338.284,14.413h1.597l5.253,6.78v-6.78h1.695v9.805h-1.443l-5.407-6.976v6.976h-1.695V14.413z"/>
			<path fill="#4D4D4D" d="M386.708,19.343v-0.028c0-2.787,2.087-5.071,5.057-5.071c1.807,0,2.899,0.63,3.838,1.527l-1.106,1.275
				c-0.785-0.729-1.625-1.219-2.746-1.219c-1.863,0-3.236,1.541-3.236,3.46v0.028c0,1.919,1.359,3.474,3.236,3.474
				c1.205,0,1.975-0.477,2.815-1.261l1.107,1.121c-1.023,1.064-2.144,1.737-3.979,1.737
				C388.836,24.386,386.708,22.159,386.708,19.343z"/>
			<path fill="#4D4D4D" d="M396.731,20.562v-0.028c0-2.115,1.681-3.866,3.951-3.866s3.936,1.723,3.936,3.838v0.028
				c0,2.101-1.681,3.852-3.964,3.852C398.398,24.386,396.731,22.663,396.731,20.562z M402.922,20.562v-0.028
				c0-1.303-0.938-2.381-2.269-2.381c-1.358,0-2.228,1.065-2.228,2.354v0.028c0,1.289,0.939,2.367,2.256,2.367
				C402.055,22.901,402.922,21.836,402.922,20.562z"/>
			<path fill="#4D4D4D" d="M410.005,14.342h1.597l4.314,9.875h-1.82l-0.995-2.367h-4.636l-1.01,2.367h-1.764L410.005,14.342z
				 M412.471,20.324l-1.695-3.922l-1.681,3.922H412.471z"/>
			<path fill="#4D4D4D" d="M417.592,14.413h3.865c2.297,0,3.727,1.303,3.727,3.278v0.028c0,2.199-1.766,3.348-3.922,3.348h-1.947
				v3.152h-1.723V14.413z M421.317,19.511c1.303,0,2.115-0.729,2.115-1.751v-0.028c0-1.149-0.827-1.751-2.115-1.751h-2.003v3.53
				H421.317z"/>
			<path fill="#4D4D4D" d="M481.545,14.413h7.298v1.569h-5.575v2.675h4.945v1.569h-4.945v3.992h-1.723V14.413z"/>
			<path fill="#4D4D4D" d="M493.138,16.009h-3.109v-1.597h7.956v1.597h-3.109v8.208h-1.737V16.009z"/>
			<path fill="#4D4D4D" d="M499.801,14.413h3.866c2.297,0,3.726,1.303,3.726,3.278v0.028c0,2.199-1.765,3.348-3.922,3.348h-1.947
				v3.152h-1.723V14.413z M503.526,19.511c1.303,0,2.115-0.729,2.115-1.751v-0.028c0-1.149-0.826-1.751-2.115-1.751h-2.003v3.53
				H503.526z"/>
			<path fill="#4D4D4D" d="M563.097,22.789l1.036-1.233c0.938,0.813,1.892,1.275,3.096,1.275c1.064,0,1.737-0.504,1.737-1.233V21.57
				c0-0.7-0.393-1.079-2.214-1.499c-2.087-0.504-3.264-1.12-3.264-2.927v-0.028c0-1.681,1.401-2.843,3.349-2.843
				c1.429,0,2.563,0.434,3.558,1.232l-0.925,1.303c-0.882-0.658-1.765-1.008-2.661-1.008c-1.009,0-1.597,0.518-1.597,1.163v0.028
				c0,0.756,0.448,1.093,2.339,1.541c2.073,0.504,3.138,1.247,3.138,2.872v0.028c0,1.835-1.442,2.928-3.502,2.928
				C565.688,24.358,564.273,23.839,563.097,22.789z"/>
			<path fill="#4D4D4D" d="M572.715,14.413h1.835l2.983,4.636l2.983-4.636h1.835v9.805h-1.723v-7.032l-3.096,4.623h-0.056
				l-3.067-4.595v7.004h-1.695V14.413z"/>
			<path fill="#4D4D4D" d="M587.276,16.009h-3.109v-1.597h7.956v1.597h-3.109v8.208h-1.737V16.009z"/>
			<path fill="#4D4D4D" d="M593.939,14.413h3.866c2.297,0,3.726,1.303,3.726,3.278v0.028c0,2.199-1.765,3.348-3.922,3.348h-1.947
				v3.152h-1.723V14.413z M597.665,19.511c1.303,0,2.115-0.729,2.115-1.751v-0.028c0-1.149-0.826-1.751-2.115-1.751h-2.003v3.53
				H597.665z"/>
		</g>
		<g>
			<path fill="#4D4D4D" d="M89.336,131.679h-3.109v-1.597h7.956v1.597h-3.11v8.208h-1.737V131.679z"/>
			<path fill="#4D4D4D" d="M95.999,130.083h1.723v8.236h5.155v1.569h-6.877V130.083z"/>
			<path fill="#4D4D4D" d="M104.006,138.459l1.036-1.233c0.939,0.813,1.891,1.275,3.096,1.275c1.065,0,1.737-0.504,1.737-1.233
				v-0.028c0-0.7-0.393-1.079-2.213-1.499c-2.087-0.504-3.264-1.12-3.264-2.927v-0.028c0-1.681,1.401-2.843,3.348-2.843
				c1.429,0,2.563,0.434,3.558,1.232l-0.925,1.303c-0.882-0.658-1.765-1.008-2.661-1.008c-1.009,0-1.597,0.518-1.597,1.163v0.028
				c0,0.756,0.448,1.093,2.339,1.541c2.073,0.504,3.138,1.247,3.138,2.872v0.028c0,1.835-1.443,2.928-3.502,2.928
				C106.598,140.028,105.183,139.509,104.006,138.459z"/>
			<path fill="#4D4D4D" d="M117.824,130.083h4.37c1.233,0,2.199,0.364,2.83,0.98c0.519,0.532,0.813,1.261,0.813,2.115v0.028
				c0,1.611-0.966,2.578-2.325,2.97l2.647,3.712h-2.045l-2.41-3.418h-2.157v3.418h-1.723V130.083z M122.068,134.943
				c1.233,0,2.017-0.644,2.017-1.639v-0.028c0-1.051-0.756-1.625-2.031-1.625h-2.508v3.292H122.068z"/>
			<path fill="#4D4D4D" d="M127.204,136.218v-0.028c0-2.115,1.499-3.852,3.614-3.852c2.353,0,3.544,1.849,3.544,3.979
				c0,0.154-0.014,0.308-0.028,0.476h-5.435c0.182,1.205,1.037,1.877,2.129,1.877c0.827,0,1.415-0.308,2.003-0.882l0.995,0.882
				c-0.7,0.84-1.667,1.387-3.025,1.387C128.856,140.056,127.204,138.501,127.204,136.218z M132.681,135.671
				c-0.112-1.093-0.756-1.947-1.877-1.947c-1.037,0-1.765,0.798-1.919,1.947H132.681z"/>
			<path fill="#4D4D4D" d="M135.66,136.232v-0.028c0-2.101,1.625-3.866,3.852-3.866c1.387,0,2.255,0.519,2.956,1.275l-1.064,1.135
				c-0.518-0.546-1.064-0.925-1.905-0.925c-1.233,0-2.144,1.065-2.144,2.354v0.028c0,1.317,0.911,2.367,2.213,2.367
				c0.798,0,1.387-0.364,1.919-0.91l1.023,1.008c-0.729,0.813-1.583,1.387-3.026,1.387
				C137.285,140.056,135.66,138.333,135.66,136.232z"/>
			<path fill="#4D4D4D" d="M143.444,136.232v-0.028c0-2.115,1.681-3.866,3.95-3.866c2.27,0,3.936,1.723,3.936,3.838v0.028
				c0,2.101-1.681,3.852-3.964,3.852C145.111,140.056,143.444,138.333,143.444,136.232z M149.635,136.232v-0.028
				c0-1.303-0.938-2.381-2.269-2.381c-1.359,0-2.228,1.065-2.228,2.354v0.028c0,1.289,0.939,2.367,2.255,2.367
				C148.767,138.571,149.635,137.506,149.635,136.232z"/>
			<path fill="#4D4D4D" d="M153.048,132.492h1.695v1.667c0.462-1.107,1.317-1.863,2.62-1.807v1.793h-0.098
				c-1.485,0-2.521,0.967-2.521,2.928v2.815h-1.695V132.492z"/>
			<path fill="#4D4D4D" d="M158.242,136.204v-0.028c0-2.451,1.667-3.838,3.432-3.838c1.219,0,1.989,0.603,2.521,1.303v-3.978h1.695
				v10.226h-1.695v-1.232c-0.546,0.77-1.317,1.387-2.521,1.387C159.937,140.042,158.242,138.655,158.242,136.204z M164.223,136.204
				v-0.028c0-1.429-1.008-2.367-2.143-2.367c-1.163,0-2.129,0.896-2.129,2.367v0.028c0,1.429,0.98,2.367,2.129,2.367
				C163.214,138.571,164.223,137.619,164.223,136.204z"/>
			<path fill="#4D4D4D" d="M172.41,130.083h3.866c2.297,0,3.726,1.303,3.726,3.278v0.028c0,2.199-1.765,3.348-3.922,3.348h-1.947
				v3.152h-1.723V130.083z M176.136,135.181c1.303,0,2.115-0.729,2.115-1.751v-0.028c0-1.149-0.827-1.751-2.115-1.751h-2.003v3.53
				H176.136z"/>
			<path fill="#4D4D4D" d="M181.565,132.492h1.695v1.667c0.462-1.107,1.317-1.863,2.62-1.807v1.793h-0.098
				c-1.485,0-2.521,0.967-2.521,2.928v2.815h-1.695V132.492z"/>
			<path fill="#4D4D4D" d="M186.689,136.232v-0.028c0-2.115,1.681-3.866,3.95-3.866c2.27,0,3.936,1.723,3.936,3.838v0.028
				c0,2.101-1.681,3.852-3.964,3.852C188.356,140.056,186.689,138.333,186.689,136.232z M192.881,136.232v-0.028
				c0-1.303-0.938-2.381-2.269-2.381c-1.359,0-2.227,1.065-2.227,2.354v0.028c0,1.289,0.938,2.367,2.255,2.367
				C192.013,138.571,192.881,137.506,192.881,136.232z"/>
			<path fill="#4D4D4D" d="M196.643,137.843v-3.895h-0.938v-1.457h0.938v-2.031h1.695v2.031h1.989v1.457h-1.989v3.628
				c0,0.658,0.336,0.924,0.91,0.924c0.378,0,0.714-0.084,1.051-0.252v1.387c-0.42,0.238-0.882,0.378-1.527,0.378
				C197.526,140.014,196.643,139.467,196.643,137.843z"/>
			<path fill="#4D4D4D" d="M201.431,136.232v-0.028c0-2.115,1.681-3.866,3.95-3.866c2.27,0,3.936,1.723,3.936,3.838v0.028
				c0,2.101-1.681,3.852-3.964,3.852C203.098,140.056,201.431,138.333,201.431,136.232z M207.622,136.232v-0.028
				c0-1.303-0.938-2.381-2.269-2.381c-1.359,0-2.227,1.065-2.227,2.354v0.028c0,1.289,0.938,2.367,2.255,2.367
				C206.754,138.571,207.622,137.506,207.622,136.232z"/>
			<path fill="#4D4D4D" d="M210.628,136.232v-0.028c0-2.101,1.625-3.866,3.852-3.866c1.387,0,2.255,0.519,2.956,1.275l-1.064,1.135
				c-0.518-0.546-1.064-0.925-1.905-0.925c-1.233,0-2.144,1.065-2.144,2.354v0.028c0,1.317,0.911,2.367,2.213,2.367
				c0.798,0,1.387-0.364,1.919-0.91l1.023,1.008c-0.729,0.813-1.583,1.387-3.026,1.387
				C212.253,140.056,210.628,138.333,210.628,136.232z"/>
			<path fill="#4D4D4D" d="M218.413,136.232v-0.028c0-2.115,1.681-3.866,3.95-3.866c2.27,0,3.936,1.723,3.936,3.838v0.028
				c0,2.101-1.681,3.852-3.964,3.852C220.08,140.056,218.413,138.333,218.413,136.232z M224.604,136.232v-0.028
				c0-1.303-0.938-2.381-2.269-2.381c-1.359,0-2.228,1.065-2.228,2.354v0.028c0,1.289,0.939,2.367,2.255,2.367
				C223.736,138.571,224.604,137.506,224.604,136.232z"/>
			<path fill="#4D4D4D" d="M228.115,129.662h1.695v10.226h-1.695V129.662z"/>
			<path fill="#4D4D4D" d="M391.806,130.083h3.656c3.082,0,5.21,2.115,5.21,4.875v0.028c0,2.76-2.128,4.903-5.21,4.903h-3.656
				V130.083z M393.528,131.651v6.667h1.933c2.059,0,3.404-1.387,3.404-3.306v-0.028c0-1.919-1.345-3.333-3.404-3.333H393.528z"/>
			<path fill="#4D4D4D" d="M404.533,131.679h-3.11v-1.597h7.956v1.597h-3.109v8.208h-1.736V131.679z"/>
			<path fill="#4D4D4D" d="M411.195,130.083h1.723v8.236h5.154v1.569h-6.877V130.083z"/>
			<path fill="#4D4D4D" d="M419.203,138.459l1.036-1.233c0.938,0.813,1.892,1.275,3.096,1.275c1.065,0,1.737-0.504,1.737-1.233
				v-0.028c0-0.7-0.393-1.079-2.213-1.499c-2.088-0.504-3.264-1.12-3.264-2.927v-0.028c0-1.681,1.4-2.843,3.348-2.843
				c1.428,0,2.563,0.434,3.558,1.232l-0.925,1.303c-0.883-0.658-1.765-1.008-2.661-1.008c-1.009,0-1.597,0.518-1.597,1.163v0.028
				c0,0.756,0.447,1.093,2.339,1.541c2.073,0.504,3.138,1.247,3.138,2.872v0.028c0,1.835-1.443,2.928-3.502,2.928
				C421.795,140.028,420.379,139.509,419.203,138.459z"/>
			<path fill="#4D4D4D" d="M433.021,130.083h4.369c1.233,0,2.199,0.364,2.83,0.98c0.519,0.532,0.813,1.261,0.813,2.115v0.028
				c0,1.611-0.967,2.578-2.325,2.97l2.647,3.712h-2.045l-2.41-3.418h-2.156v3.418h-1.723V130.083z M437.266,134.943
				c1.232,0,2.017-0.644,2.017-1.639v-0.028c0-1.051-0.757-1.625-2.031-1.625h-2.507v3.292H437.266z"/>
			<path fill="#4D4D4D" d="M442.4,136.218v-0.028c0-2.115,1.5-3.852,3.615-3.852c2.353,0,3.543,1.849,3.543,3.979
				c0,0.154-0.014,0.308-0.027,0.476h-5.436c0.182,1.205,1.037,1.877,2.129,1.877c0.827,0,1.415-0.308,2.004-0.882l0.994,0.882
				c-0.7,0.84-1.667,1.387-3.025,1.387C444.054,140.056,442.4,138.501,442.4,136.218z M447.878,135.671
				c-0.112-1.093-0.757-1.947-1.877-1.947c-1.036,0-1.765,0.798-1.919,1.947H447.878z"/>
			<path fill="#4D4D4D" d="M450.857,136.232v-0.028c0-2.101,1.625-3.866,3.852-3.866c1.387,0,2.256,0.519,2.955,1.275l-1.064,1.135
				c-0.518-0.546-1.064-0.925-1.904-0.925c-1.232,0-2.144,1.065-2.144,2.354v0.028c0,1.317,0.911,2.367,2.214,2.367
				c0.798,0,1.387-0.364,1.918-0.91l1.023,1.008c-0.729,0.813-1.583,1.387-3.025,1.387
				C452.482,140.056,450.857,138.333,450.857,136.232z"/>
			<path fill="#4D4D4D" d="M458.641,136.232v-0.028c0-2.115,1.682-3.866,3.951-3.866s3.936,1.723,3.936,3.838v0.028
				c0,2.101-1.681,3.852-3.964,3.852C460.309,140.056,458.641,138.333,458.641,136.232z M464.832,136.232v-0.028
				c0-1.303-0.938-2.381-2.269-2.381c-1.358,0-2.228,1.065-2.228,2.354v0.028c0,1.289,0.939,2.367,2.256,2.367
				C463.965,138.571,464.832,137.506,464.832,136.232z"/>
			<path fill="#4D4D4D" d="M468.245,132.492h1.694v1.667c0.463-1.107,1.317-1.863,2.62-1.807v1.793h-0.099
				c-1.484,0-2.521,0.967-2.521,2.928v2.815h-1.694V132.492z"/>
			<path fill="#4D4D4D" d="M473.438,136.204v-0.028c0-2.451,1.667-3.838,3.432-3.838c1.219,0,1.989,0.603,2.521,1.303v-3.978h1.695
				v10.226h-1.695v-1.232c-0.546,0.77-1.317,1.387-2.521,1.387C475.133,140.042,473.438,138.655,473.438,136.204z M479.42,136.204
				v-0.028c0-1.429-1.009-2.367-2.144-2.367c-1.163,0-2.129,0.896-2.129,2.367v0.028c0,1.429,0.98,2.367,2.129,2.367
				C478.411,138.571,479.42,137.619,479.42,136.204z"/>
			<path fill="#4D4D4D" d="M487.606,130.083h3.866c2.297,0,3.726,1.303,3.726,3.278v0.028c0,2.199-1.765,3.348-3.922,3.348h-1.947
				v3.152h-1.723V130.083z M491.332,135.181c1.303,0,2.115-0.729,2.115-1.751v-0.028c0-1.149-0.826-1.751-2.115-1.751h-2.003v3.53
				H491.332z"/>
			<path fill="#4D4D4D" d="M496.762,132.492h1.695v1.667c0.462-1.107,1.316-1.863,2.619-1.807v1.793h-0.098
				c-1.485,0-2.521,0.967-2.521,2.928v2.815h-1.695V132.492z"/>
			<path fill="#4D4D4D" d="M501.886,136.232v-0.028c0-2.115,1.681-3.866,3.95-3.866s3.937,1.723,3.937,3.838v0.028
				c0,2.101-1.682,3.852-3.965,3.852C503.553,140.056,501.886,138.333,501.886,136.232z M508.077,136.232v-0.028
				c0-1.303-0.938-2.381-2.27-2.381c-1.358,0-2.227,1.065-2.227,2.354v0.028c0,1.289,0.938,2.367,2.255,2.367
				C507.209,138.571,508.077,137.506,508.077,136.232z"/>
			<path fill="#4D4D4D" d="M511.841,137.843v-3.895h-0.938v-1.457h0.938v-2.031h1.694v2.031h1.989v1.457h-1.989v3.628
				c0,0.658,0.337,0.924,0.911,0.924c0.378,0,0.714-0.084,1.05-0.252v1.387c-0.42,0.238-0.882,0.378-1.526,0.378
				C512.723,140.014,511.841,139.467,511.841,137.843z"/>
			<path fill="#4D4D4D" d="M516.628,136.232v-0.028c0-2.115,1.681-3.866,3.95-3.866s3.937,1.723,3.937,3.838v0.028
				c0,2.101-1.682,3.852-3.965,3.852C518.295,140.056,516.628,138.333,516.628,136.232z M522.819,136.232v-0.028
				c0-1.303-0.938-2.381-2.27-2.381c-1.358,0-2.227,1.065-2.227,2.354v0.028c0,1.289,0.938,2.367,2.255,2.367
				C521.951,138.571,522.819,137.506,522.819,136.232z"/>
			<path fill="#4D4D4D" d="M525.826,136.232v-0.028c0-2.101,1.625-3.866,3.853-3.866c1.387,0,2.255,0.519,2.955,1.275l-1.064,1.135
				c-0.519-0.546-1.064-0.925-1.905-0.925c-1.232,0-2.143,1.065-2.143,2.354v0.028c0,1.317,0.91,2.367,2.213,2.367
				c0.799,0,1.387-0.364,1.919-0.91l1.022,1.008c-0.729,0.813-1.583,1.387-3.025,1.387
				C527.451,140.056,525.826,138.333,525.826,136.232z"/>
			<path fill="#4D4D4D" d="M533.61,136.232v-0.028c0-2.115,1.681-3.866,3.95-3.866s3.937,1.723,3.937,3.838v0.028
				c0,2.101-1.682,3.852-3.965,3.852C535.277,140.056,533.61,138.333,533.61,136.232z M539.802,136.232v-0.028
				c0-1.303-0.938-2.381-2.27-2.381c-1.358,0-2.227,1.065-2.227,2.354v0.028c0,1.289,0.938,2.367,2.255,2.367
				C538.934,138.571,539.802,137.506,539.802,136.232z"/>
			<path fill="#4D4D4D" d="M543.313,129.662h1.694v10.226h-1.694V129.662z"/>
		</g>
		<g>
			<path fill="#4D4D4D" d="M292.189,177.791l1.036-1.232c0.938,0.813,1.891,1.274,3.096,1.274c1.065,0,1.737-0.505,1.737-1.233
				v-0.027c0-0.7-0.393-1.079-2.213-1.499c-2.087-0.504-3.264-1.12-3.264-2.927v-0.028c0-1.681,1.401-2.843,3.348-2.843
				c1.429,0,2.563,0.434,3.558,1.232l-0.925,1.303c-0.882-0.658-1.765-1.008-2.661-1.008c-1.009,0-1.597,0.518-1.597,1.163v0.028
				c0,0.756,0.448,1.093,2.339,1.541c2.073,0.504,3.138,1.247,3.138,2.872v0.027c0,1.836-1.443,2.928-3.502,2.928
				C294.78,179.359,293.365,178.842,292.189,177.791z"/>
			<path fill="#4D4D4D" d="M301.205,175.564v-0.028c0-2.115,1.681-3.866,3.95-3.866c2.27,0,3.936,1.723,3.936,3.838v0.028
				c0,2.101-1.681,3.852-3.964,3.852C302.872,179.388,301.205,177.665,301.205,175.564z M307.396,175.564v-0.028
				c0-1.303-0.938-2.381-2.269-2.381c-1.359,0-2.227,1.065-2.227,2.354v0.028c0,1.289,0.938,2.367,2.255,2.367
				C306.528,177.902,307.396,176.838,307.396,175.564z"/>
			<path fill="#4D4D4D" d="M310.402,175.564v-0.028c0-2.101,1.625-3.866,3.852-3.866c1.387,0,2.255,0.519,2.956,1.275l-1.064,1.135
				c-0.518-0.546-1.064-0.925-1.905-0.925c-1.233,0-2.144,1.065-2.144,2.354v0.028c0,1.317,0.911,2.367,2.213,2.367
				c0.798,0,1.387-0.363,1.919-0.91l1.023,1.009c-0.729,0.813-1.583,1.387-3.026,1.387
				C312.027,179.388,310.402,177.665,310.402,175.564z"/>
			<path fill="#4D4D4D" d="M318.803,168.994h1.695v6.107l3.068-3.278h2.059l-2.941,3.012l3.04,4.384h-1.989l-2.185-3.208
				l-1.051,1.093v2.115h-1.695V168.994z"/>
			<path fill="#4D4D4D" d="M326.194,175.55v-0.028c0-2.115,1.499-3.852,3.614-3.852c2.353,0,3.544,1.849,3.544,3.979
				c0,0.154-0.014,0.308-0.028,0.476h-5.435c0.182,1.204,1.037,1.877,2.129,1.877c0.827,0,1.415-0.308,2.003-0.882l0.995,0.882
				c-0.7,0.841-1.667,1.387-3.025,1.387C327.847,179.388,326.194,177.833,326.194,175.55z M331.671,175.003
				c-0.112-1.093-0.756-1.947-1.877-1.947c-1.037,0-1.765,0.798-1.919,1.947H331.671z"/>
			<path fill="#4D4D4D" d="M335.407,177.175v-3.895h-0.938v-1.457h0.938v-2.031h1.695v2.031h1.989v1.457h-1.989v3.628
				c0,0.658,0.336,0.925,0.91,0.925c0.378,0,0.714-0.084,1.051-0.252v1.387c-0.42,0.237-0.882,0.378-1.527,0.378
				C336.29,179.346,335.407,178.799,335.407,177.175z"/>
		</g>
		<g>
			<path fill="#4D4D4D" d="M35.87,62.344H32.76v-1.597h7.956v1.597h-3.11v8.208H35.87V62.344z"/>
			<path fill="#4D4D4D" d="M42.532,60.748h1.723v8.236h5.155v1.569h-6.877V60.748z"/>
			<path fill="#4D4D4D" d="M50.54,69.124l1.036-1.233c0.939,0.813,1.891,1.275,3.096,1.275c1.065,0,1.737-0.504,1.737-1.233v-0.028
				c0-0.7-0.393-1.079-2.213-1.499c-2.087-0.504-3.264-1.121-3.264-2.928v-0.028c0-1.681,1.401-2.843,3.348-2.843
				c1.429,0,2.563,0.434,3.558,1.232l-0.925,1.303c-0.882-0.658-1.765-1.008-2.661-1.008c-1.009,0-1.597,0.518-1.597,1.163v0.028
				c0,0.756,0.448,1.093,2.339,1.541c2.073,0.504,3.138,1.247,3.138,2.872v0.028c0,1.835-1.443,2.928-3.502,2.928
				C53.131,70.693,51.716,70.174,50.54,69.124z"/>
			<path fill="#4D4D4D" d="M64.358,60.748h1.723v4.076h4.679v-4.076h1.723v9.805h-1.723V66.42h-4.679v4.132h-1.723V60.748z"/>
			<path fill="#4D4D4D" d="M74.312,68.423v-0.028c0-1.597,1.247-2.381,3.054-2.381c0.827,0,1.415,0.126,1.989,0.308V66.14
				c0-1.05-0.645-1.611-1.835-1.611c-0.827,0-1.443,0.182-2.115,0.462l-0.448-1.331c0.813-0.364,1.611-0.603,2.788-0.603
				c1.106,0,1.933,0.294,2.451,0.827c0.546,0.532,0.798,1.316,0.798,2.283v4.384H79.34v-0.924c-0.504,0.602-1.275,1.079-2.409,1.079
				C75.544,70.707,74.312,69.908,74.312,68.423z M79.382,67.891v-0.504c-0.434-0.168-1.008-0.294-1.681-0.294
				c-1.093,0-1.737,0.462-1.737,1.233v0.028c0,0.714,0.63,1.121,1.443,1.121C78.528,69.474,79.382,68.83,79.382,67.891z"/>
			<path fill="#4D4D4D" d="M83.02,63.157h1.695v1.135c0.477-0.687,1.163-1.289,2.312-1.289c1.667,0,2.633,1.121,2.633,2.83v4.721
				h-1.695v-4.202c0-1.149-0.574-1.807-1.583-1.807c-0.98,0-1.667,0.687-1.667,1.835v4.174H83.02V63.157z"/>
			<path fill="#4D4D4D" d="M91.098,69.586l0.756-1.149c0.813,0.603,1.667,0.911,2.423,0.911c0.728,0,1.148-0.308,1.148-0.798v-0.028
				c0-0.574-0.784-0.77-1.653-1.037c-1.093-0.308-2.311-0.756-2.311-2.171v-0.028c0-1.4,1.163-2.255,2.633-2.255
				c0.924,0,1.933,0.322,2.717,0.84l-0.672,1.205c-0.714-0.434-1.471-0.7-2.087-0.7c-0.659,0-1.037,0.308-1.037,0.729v0.028
				c0,0.546,0.798,0.771,1.667,1.05c1.079,0.336,2.297,0.827,2.297,2.157v0.028c0,1.555-1.205,2.325-2.745,2.325
				C93.185,70.693,92.022,70.314,91.098,69.586z"/>
			<path fill="#4D4D4D" d="M98.713,60.327h1.695v3.964c0.477-0.687,1.163-1.289,2.312-1.289c1.667,0,2.633,1.121,2.633,2.83v4.721
				h-1.695v-4.202c0-1.149-0.574-1.807-1.583-1.807c-0.98,0-1.667,0.687-1.667,1.835v4.174h-1.695V60.327z"/>
			<path fill="#4D4D4D" d="M106.903,68.423v-0.028c0-1.597,1.247-2.381,3.054-2.381c0.827,0,1.415,0.126,1.989,0.308V66.14
				c0-1.05-0.645-1.611-1.835-1.611c-0.827,0-1.443,0.182-2.115,0.462l-0.448-1.331c0.813-0.364,1.611-0.603,2.788-0.603
				c1.106,0,1.933,0.294,2.451,0.827c0.546,0.532,0.798,1.316,0.798,2.283v4.384h-1.653v-0.924
				c-0.504,0.602-1.275,1.079-2.409,1.079C108.136,70.707,106.903,69.908,106.903,68.423z M111.974,67.891v-0.504
				c-0.434-0.168-1.008-0.294-1.681-0.294c-1.093,0-1.737,0.462-1.737,1.233v0.028c0,0.714,0.63,1.121,1.443,1.121
				C111.119,69.474,111.974,68.83,111.974,67.891z"/>
			<path fill="#4D4D4D" d="M115.611,60.327h1.695v6.107l3.068-3.278h2.059l-2.941,3.012l3.04,4.384h-1.989l-2.185-3.208
				l-1.051,1.092v2.115h-1.695V60.327z"/>
			<path fill="#4D4D4D" d="M123.002,66.883v-0.028c0-2.115,1.499-3.853,3.614-3.853c2.353,0,3.544,1.849,3.544,3.979
				c0,0.154-0.014,0.308-0.028,0.476h-5.435c0.182,1.205,1.036,1.877,2.129,1.877c0.827,0,1.415-0.308,2.003-0.882l0.995,0.882
				c-0.7,0.84-1.667,1.387-3.025,1.387C124.655,70.721,123.002,69.166,123.002,66.883z M128.479,66.336
				c-0.112-1.093-0.756-1.947-1.877-1.947c-1.037,0-1.765,0.799-1.919,1.947H128.479z"/>
			<path fill="#4D4D4D" d="M54.957,77.548h3.866c2.297,0,3.726,1.303,3.726,3.278v0.028c0,2.199-1.765,3.348-3.922,3.348h-1.947
				v3.152h-1.723V77.548z M58.683,82.646c1.303,0,2.115-0.729,2.115-1.751v-0.028c0-1.149-0.827-1.751-2.115-1.751h-2.003v3.53
				H58.683z"/>
			<path fill="#4D4D4D" d="M64.112,79.957h1.695v1.667c0.462-1.107,1.317-1.863,2.62-1.807v1.793h-0.098
				c-1.485,0-2.521,0.967-2.521,2.928v2.815h-1.695V79.957z"/>
			<path fill="#4D4D4D" d="M69.236,83.697v-0.028c0-2.115,1.681-3.866,3.95-3.866c2.27,0,3.936,1.723,3.936,3.838v0.028
				c0,2.101-1.681,3.852-3.964,3.852C70.903,87.521,69.236,85.798,69.236,83.697z M75.427,83.697v-0.028
				c0-1.303-0.938-2.381-2.269-2.381c-1.359,0-2.227,1.065-2.227,2.354v0.028c0,1.289,0.938,2.367,2.255,2.367
				C74.559,86.036,75.427,84.972,75.427,83.697z"/>
			<path fill="#4D4D4D" d="M79.19,85.308v-3.895h-0.938v-1.457h0.938v-2.031h1.695v2.031h1.989v1.457h-1.989v3.628
				c0,0.658,0.336,0.924,0.91,0.924c0.378,0,0.714-0.084,1.051-0.252v1.387c-0.42,0.238-0.882,0.378-1.527,0.378
				C80.073,87.479,79.19,86.933,79.19,85.308z"/>
			<path fill="#4D4D4D" d="M83.978,83.697v-0.028c0-2.115,1.681-3.866,3.95-3.866c2.27,0,3.936,1.723,3.936,3.838v0.028
				c0,2.101-1.681,3.852-3.964,3.852C85.645,87.521,83.978,85.798,83.978,83.697z M90.169,83.697v-0.028
				c0-1.303-0.938-2.381-2.269-2.381c-1.359,0-2.228,1.065-2.228,2.354v0.028c0,1.289,0.939,2.367,2.255,2.367
				C89.301,86.036,90.169,84.972,90.169,83.697z"/>
			<path fill="#4D4D4D" d="M93.175,83.697v-0.028c0-2.101,1.625-3.866,3.852-3.866c1.387,0,2.255,0.519,2.956,1.275l-1.064,1.135
				c-0.518-0.546-1.064-0.925-1.905-0.925c-1.233,0-2.143,1.065-2.143,2.354v0.028c0,1.317,0.91,2.367,2.213,2.367
				c0.798,0,1.387-0.364,1.919-0.91l1.022,1.008c-0.728,0.813-1.583,1.387-3.025,1.387C94.8,87.521,93.175,85.798,93.175,83.697z"/>
			<path fill="#4D4D4D" d="M100.959,83.697v-0.028c0-2.115,1.681-3.866,3.95-3.866c2.27,0,3.936,1.723,3.936,3.838v0.028
				c0,2.101-1.681,3.852-3.964,3.852C102.626,87.521,100.959,85.798,100.959,83.697z M107.151,83.697v-0.028
				c0-1.303-0.938-2.381-2.269-2.381c-1.359,0-2.227,1.065-2.227,2.354v0.028c0,1.289,0.938,2.367,2.255,2.367
				C106.283,86.036,107.151,84.972,107.151,83.697z"/>
			<path fill="#4D4D4D" d="M110.662,77.127h1.695v10.226h-1.695V77.127z"/>
		</g>
		<g>
			<path fill="#4D4D4D" d="M196.841,57.344h-3.109v-1.597h7.956v1.597h-3.11v8.208h-1.737V57.344z"/>
			<path fill="#4D4D4D" d="M203.504,55.748h1.723v8.236h5.155v1.569h-6.877V55.748z"/>
			<path fill="#4D4D4D" d="M211.512,64.124l1.036-1.233c0.939,0.813,1.891,1.275,3.096,1.275c1.065,0,1.737-0.504,1.737-1.233
				v-0.028c0-0.7-0.393-1.079-2.213-1.499c-2.087-0.504-3.264-1.121-3.264-2.928v-0.028c0-1.681,1.401-2.843,3.348-2.843
				c1.429,0,2.563,0.434,3.558,1.232l-0.925,1.303c-0.882-0.658-1.765-1.008-2.661-1.008c-1.009,0-1.597,0.518-1.597,1.163v0.028
				c0,0.756,0.448,1.093,2.339,1.541c2.073,0.504,3.138,1.247,3.138,2.872v0.028c0,1.835-1.443,2.928-3.502,2.928
				C214.103,65.693,212.688,65.174,211.512,64.124z"/>
			<path fill="#4D4D4D" d="M224.896,60.678V60.65c0-2.787,2.087-5.07,5.057-5.07c1.807,0,2.899,0.63,3.838,1.526l-1.106,1.275
				c-0.785-0.729-1.625-1.219-2.746-1.219c-1.863,0-3.236,1.541-3.236,3.46v0.028c0,1.919,1.359,3.474,3.236,3.474
				c1.205,0,1.975-0.476,2.815-1.261l1.107,1.121c-1.023,1.064-2.144,1.737-3.979,1.737
				C227.024,65.721,224.896,63.494,224.896,60.678z"/>
			<path fill="#4D4D4D" d="M235.465,55.327h1.695v3.964c0.477-0.687,1.163-1.289,2.312-1.289c1.667,0,2.633,1.121,2.633,2.83v4.721
				h-1.695v-4.202c0-1.149-0.574-1.807-1.583-1.807c-0.98,0-1.667,0.687-1.667,1.835v4.174h-1.695V55.327z"/>
			<path fill="#4D4D4D" d="M243.655,63.423v-0.028c0-1.597,1.247-2.381,3.054-2.381c0.827,0,1.415,0.126,1.989,0.308V61.14
				c0-1.05-0.645-1.611-1.835-1.611c-0.827,0-1.443,0.182-2.115,0.462l-0.448-1.331c0.813-0.364,1.611-0.603,2.788-0.603
				c1.106,0,1.933,0.294,2.451,0.827c0.546,0.532,0.798,1.316,0.798,2.283v4.384h-1.653v-0.924
				c-0.504,0.602-1.275,1.079-2.409,1.079C244.888,65.707,243.655,64.908,243.655,63.423z M248.726,62.891v-0.504
				c-0.434-0.168-1.008-0.294-1.681-0.294c-1.093,0-1.737,0.462-1.737,1.233v0.028c0,0.714,0.63,1.121,1.443,1.121
				C247.871,64.474,248.726,63.83,248.726,62.891z"/>
			<path fill="#4D4D4D" d="M252.363,58.157h1.695v1.135c0.477-0.687,1.163-1.289,2.312-1.289c1.667,0,2.633,1.121,2.633,2.83v4.721
				h-1.695v-4.202c0-1.149-0.574-1.807-1.583-1.807c-0.98,0-1.667,0.687-1.667,1.835v4.174h-1.695V58.157z"/>
			<path fill="#4D4D4D" d="M261.029,66.939l0.63-1.275c0.799,0.491,1.625,0.785,2.634,0.785c1.513,0,2.339-0.785,2.339-2.269v-0.575
				c-0.617,0.799-1.387,1.359-2.605,1.359c-1.737,0-3.362-1.289-3.362-3.46v-0.028c0-2.185,1.639-3.474,3.362-3.474
				c1.247,0,2.017,0.575,2.591,1.261v-1.106h1.695v5.883c0,1.247-0.322,2.171-0.938,2.788c-0.672,0.672-1.709,0.994-3.04,0.994
				C263.116,67.822,261.981,67.514,261.029,66.939z M266.646,61.491v-0.028c0-1.205-0.995-2.031-2.171-2.031
				c-1.177,0-2.101,0.812-2.101,2.031v0.028c0,1.205,0.938,2.031,2.101,2.031C265.651,63.521,266.646,62.695,266.646,61.491z"/>
			<path fill="#4D4D4D" d="M270.03,61.883v-0.028c0-2.115,1.499-3.853,3.614-3.853c2.353,0,3.544,1.849,3.544,3.979
				c0,0.154-0.014,0.308-0.028,0.476h-5.435c0.182,1.205,1.037,1.877,2.129,1.877c0.827,0,1.415-0.308,2.003-0.882l0.995,0.882
				c-0.7,0.84-1.667,1.387-3.025,1.387C271.683,65.721,270.03,64.166,270.03,61.883z M275.507,61.336
				c-0.112-1.093-0.756-1.947-1.877-1.947c-1.037,0-1.765,0.799-1.919,1.947H275.507z"/>
			<path fill="#4D4D4D" d="M193.501,77.479V77.45c0-2.787,2.087-5.071,5.057-5.071c1.807,0,2.899,0.63,3.838,1.527l-1.106,1.275
				c-0.785-0.729-1.625-1.219-2.746-1.219c-1.863,0-3.236,1.541-3.236,3.46v0.028c0,1.919,1.359,3.474,3.236,3.474
				c1.205,0,1.975-0.477,2.815-1.261l1.107,1.121c-1.023,1.064-2.144,1.737-3.979,1.737
				C195.63,82.521,193.501,80.294,193.501,77.479z"/>
			<path fill="#4D4D4D" d="M204.099,72.211h1.821v1.611h-1.821V72.211z M204.169,74.957h1.695v7.396h-1.695V74.957z"/>
			<path fill="#4D4D4D" d="M208.075,74.957h1.695v1.233c0.546-0.771,1.317-1.387,2.521-1.387c1.737,0,3.432,1.373,3.432,3.838v0.028
				c0,2.452-1.681,3.838-3.432,3.838c-1.232,0-2.003-0.617-2.521-1.303v3.39h-1.695V74.957z M214,78.669v-0.028
				c0-1.429-0.966-2.367-2.115-2.367c-1.148,0-2.157,0.952-2.157,2.367v0.028c0,1.415,1.009,2.367,2.157,2.367
				C213.047,81.036,214,80.126,214,78.669z"/>
			<path fill="#4D4D4D" d="M217.469,72.127h1.695v3.964c0.477-0.687,1.163-1.289,2.312-1.289c1.667,0,2.633,1.121,2.633,2.83v4.721
				h-1.695v-4.202c0-1.149-0.574-1.807-1.583-1.807c-0.98,0-1.667,0.687-1.667,1.835v4.174h-1.695V72.127z"/>
			<path fill="#4D4D4D" d="M225.743,78.683v-0.028c0-2.115,1.499-3.852,3.614-3.852c2.353,0,3.544,1.849,3.544,3.979
				c0,0.154-0.014,0.308-0.028,0.476h-5.435c0.182,1.205,1.036,1.877,2.129,1.877c0.827,0,1.415-0.308,2.003-0.882l0.995,0.882
				c-0.7,0.84-1.667,1.387-3.025,1.387C227.396,82.521,225.743,80.966,225.743,78.683z M231.22,78.137
				c-0.112-1.093-0.756-1.947-1.877-1.947c-1.037,0-1.765,0.798-1.919,1.947H231.22z"/>
			<path fill="#4D4D4D" d="M234.605,74.957h1.695v1.667c0.462-1.107,1.317-1.863,2.62-1.807v1.793h-0.098
				c-1.485,0-2.521,0.967-2.521,2.928v2.815h-1.695V74.957z"/>
			<path fill="#4D4D4D" d="M244.125,80.924l1.036-1.233c0.938,0.813,1.891,1.275,3.096,1.275c1.065,0,1.737-0.504,1.737-1.233
				v-0.028c0-0.7-0.393-1.079-2.213-1.499c-2.087-0.504-3.264-1.12-3.264-2.927v-0.028c0-1.681,1.401-2.843,3.348-2.843
				c1.429,0,2.563,0.434,3.558,1.232l-0.925,1.303c-0.882-0.658-1.765-1.008-2.661-1.008c-1.009,0-1.597,0.518-1.597,1.163v0.028
				c0,0.756,0.448,1.093,2.339,1.541c2.073,0.504,3.138,1.247,3.138,2.872v0.028c0,1.835-1.443,2.928-3.502,2.928
				C246.716,82.493,245.301,81.975,244.125,80.924z"/>
			<path fill="#4D4D4D" d="M253.546,74.957h1.695v1.233c0.546-0.771,1.317-1.387,2.521-1.387c1.737,0,3.432,1.373,3.432,3.838v0.028
				c0,2.452-1.681,3.838-3.432,3.838c-1.232,0-2.003-0.617-2.521-1.303v3.39h-1.695V74.957z M259.472,78.669v-0.028
				c0-1.429-0.966-2.367-2.115-2.367c-1.148,0-2.157,0.952-2.157,2.367v0.028c0,1.415,1.009,2.367,2.157,2.367
				C258.519,81.036,259.472,80.126,259.472,78.669z"/>
			<path fill="#4D4D4D" d="M262.534,78.683v-0.028c0-2.115,1.499-3.852,3.614-3.852c2.353,0,3.544,1.849,3.544,3.979
				c0,0.154-0.014,0.308-0.028,0.476h-5.435c0.182,1.205,1.037,1.877,2.129,1.877c0.827,0,1.415-0.308,2.003-0.882l0.995,0.882
				c-0.7,0.84-1.667,1.387-3.025,1.387C264.187,82.521,262.534,80.966,262.534,78.683z M268.011,78.137
				c-0.112-1.093-0.756-1.947-1.877-1.947c-1.037,0-1.765,0.798-1.919,1.947H268.011z"/>
			<path fill="#4D4D4D" d="M270.99,78.697v-0.028c0-2.101,1.625-3.866,3.852-3.866c1.387,0,2.255,0.519,2.956,1.275l-1.064,1.135
				c-0.518-0.546-1.064-0.925-1.905-0.925c-1.233,0-2.144,1.065-2.144,2.354v0.028c0,1.317,0.911,2.367,2.213,2.367
				c0.798,0,1.387-0.364,1.919-0.91l1.023,1.008c-0.729,0.813-1.583,1.387-3.026,1.387C272.615,82.521,270.99,80.798,270.99,78.697z
				"/>
			<path fill="#4D4D4D" d="M206.857,89.348h3.866c2.297,0,3.726,1.303,3.726,3.278v0.028c0,2.199-1.765,3.348-3.922,3.348h-1.947
				v3.152h-1.723V89.348z M210.583,94.446c1.303,0,2.115-0.729,2.115-1.751v-0.028c0-1.149-0.827-1.751-2.115-1.751h-2.003v3.53
				H210.583z"/>
			<path fill="#4D4D4D" d="M216.013,91.757h1.695v1.667c0.462-1.107,1.317-1.863,2.62-1.807v1.793h-0.098
				c-1.485,0-2.521,0.967-2.521,2.928v2.815h-1.695V91.757z"/>
			<path fill="#4D4D4D" d="M221.136,95.497v-0.028c0-2.115,1.681-3.866,3.95-3.866c2.27,0,3.936,1.723,3.936,3.838v0.028
				c0,2.101-1.681,3.852-3.964,3.852C222.803,99.321,221.136,97.598,221.136,95.497z M227.328,95.497v-0.028
				c0-1.303-0.938-2.381-2.269-2.381c-1.359,0-2.227,1.065-2.227,2.354v0.028c0,1.289,0.938,2.367,2.255,2.367
				C226.459,97.836,227.328,96.771,227.328,95.497z"/>
			<path fill="#4D4D4D" d="M231.09,97.108v-3.895h-0.938v-1.457h0.938v-2.031h1.695v2.031h1.989v1.457h-1.989v3.628
				c0,0.658,0.336,0.924,0.91,0.924c0.378,0,0.714-0.084,1.051-0.252v1.387c-0.42,0.238-0.882,0.378-1.527,0.378
				C231.973,99.279,231.09,98.732,231.09,97.108z"/>
			<path fill="#4D4D4D" d="M235.878,95.497v-0.028c0-2.115,1.681-3.866,3.95-3.866c2.27,0,3.936,1.723,3.936,3.838v0.028
				c0,2.101-1.681,3.852-3.964,3.852C237.545,99.321,235.878,97.598,235.878,95.497z M242.069,95.497v-0.028
				c0-1.303-0.938-2.381-2.269-2.381c-1.359,0-2.228,1.065-2.228,2.354v0.028c0,1.289,0.939,2.367,2.255,2.367
				C241.201,97.836,242.069,96.771,242.069,95.497z"/>
			<path fill="#4D4D4D" d="M245.076,95.497v-0.028c0-2.101,1.625-3.866,3.852-3.866c1.387,0,2.255,0.519,2.956,1.275l-1.064,1.135
				c-0.518-0.546-1.064-0.925-1.905-0.925c-1.233,0-2.143,1.065-2.143,2.354v0.028c0,1.317,0.91,2.367,2.213,2.367
				c0.798,0,1.387-0.364,1.919-0.91l1.022,1.008c-0.728,0.813-1.583,1.387-3.025,1.387
				C246.701,99.321,245.076,97.598,245.076,95.497z"/>
			<path fill="#4D4D4D" d="M252.86,95.497v-0.028c0-2.115,1.681-3.866,3.95-3.866c2.27,0,3.936,1.723,3.936,3.838v0.028
				c0,2.101-1.681,3.852-3.964,3.852C254.527,99.321,252.86,97.598,252.86,95.497z M259.051,95.497v-0.028
				c0-1.303-0.938-2.381-2.269-2.381c-1.359,0-2.227,1.065-2.227,2.354v0.028c0,1.289,0.938,2.367,2.255,2.367
				C258.183,97.836,259.051,96.771,259.051,95.497z"/>
			<path fill="#4D4D4D" d="M262.562,88.927h1.695v10.226h-1.695V88.927z"/>
		</g>
		<g>
			<path fill="#4D4D4D" d="M362.193,62.344h-3.11v-1.597h7.957v1.597h-3.11v8.208h-1.737V62.344z"/>
			<path fill="#4D4D4D" d="M368.856,60.748h1.723v8.236h5.155v1.569h-6.877V60.748z"/>
			<path fill="#4D4D4D" d="M376.864,69.124l1.036-1.233c0.938,0.813,1.891,1.275,3.096,1.275c1.065,0,1.737-0.504,1.737-1.233
				v-0.028c0-0.7-0.393-1.079-2.213-1.499c-2.087-0.504-3.264-1.121-3.264-2.928v-0.028c0-1.681,1.401-2.843,3.348-2.843
				c1.429,0,2.563,0.434,3.558,1.232l-0.925,1.303c-0.882-0.658-1.765-1.008-2.661-1.008c-1.009,0-1.597,0.518-1.597,1.163v0.028
				c0,0.756,0.448,1.093,2.339,1.541c2.073,0.504,3.138,1.247,3.138,2.872v0.028c0,1.835-1.443,2.928-3.502,2.928
				C379.455,70.693,378.04,70.174,376.864,69.124z"/>
			<path fill="#4D4D4D" d="M394.155,60.677h1.597l4.314,9.875h-1.821l-0.995-2.367h-4.636l-1.009,2.367h-1.765L394.155,60.677z
				 M396.621,66.659l-1.695-3.922l-1.681,3.922H396.621z"/>
			<path fill="#4D4D4D" d="M401.644,60.327h1.694v10.226h-1.694V60.327z"/>
			<path fill="#4D4D4D" d="M405.143,66.883v-0.028c0-2.115,1.5-3.853,3.615-3.853c2.353,0,3.543,1.849,3.543,3.979
				c0,0.154-0.014,0.308-0.027,0.476h-5.436c0.182,1.205,1.037,1.877,2.129,1.877c0.827,0,1.415-0.308,2.004-0.882l0.994,0.882
				c-0.7,0.84-1.667,1.387-3.025,1.387C406.796,70.721,405.143,69.166,405.143,66.883z M410.62,66.336
				c-0.112-1.093-0.757-1.947-1.877-1.947c-1.036,0-1.765,0.799-1.919,1.947H410.62z"/>
			<path fill="#4D4D4D" d="M414.006,63.157h1.694v1.667c0.462-1.106,1.317-1.863,2.62-1.807v1.793h-0.099
				c-1.485,0-2.521,0.967-2.521,2.928v2.815h-1.694V63.157z"/>
			<path fill="#4D4D4D" d="M420.137,68.508v-3.894h-0.938v-1.457h0.938v-2.031h1.695v2.031h1.989v1.457h-1.989v3.628
				c0,0.658,0.336,0.924,0.91,0.924c0.379,0,0.715-0.084,1.051-0.252v1.387c-0.42,0.238-0.882,0.378-1.526,0.378
				C421.02,70.679,420.137,70.132,420.137,68.508z"/>
			<path fill="#4D4D4D" d="M362.857,77.548h3.866c2.297,0,3.726,1.303,3.726,3.278v0.028c0,2.199-1.765,3.348-3.922,3.348h-1.947
				v3.152h-1.723V77.548z M366.583,82.646c1.303,0,2.115-0.729,2.115-1.751v-0.028c0-1.149-0.827-1.751-2.115-1.751h-2.003v3.53
				H366.583z"/>
			<path fill="#4D4D4D" d="M372.013,79.957h1.695v1.667c0.462-1.107,1.317-1.863,2.62-1.807v1.793h-0.098
				c-1.485,0-2.521,0.967-2.521,2.928v2.815h-1.695V79.957z"/>
			<path fill="#4D4D4D" d="M377.136,83.697v-0.028c0-2.115,1.681-3.866,3.95-3.866c2.27,0,3.936,1.723,3.936,3.838v0.028
				c0,2.101-1.681,3.852-3.964,3.852C378.803,87.521,377.136,85.798,377.136,83.697z M383.328,83.697v-0.028
				c0-1.303-0.938-2.381-2.269-2.381c-1.359,0-2.227,1.065-2.227,2.354v0.028c0,1.289,0.938,2.367,2.255,2.367
				C382.459,86.036,383.328,84.972,383.328,83.697z"/>
			<path fill="#4D4D4D" d="M387.09,85.308v-3.895h-0.938v-1.457h0.938v-2.031h1.695v2.031h1.989v1.457h-1.989v3.628
				c0,0.658,0.336,0.924,0.91,0.924c0.378,0,0.714-0.084,1.051-0.252v1.387c-0.42,0.238-0.882,0.378-1.527,0.378
				C387.973,87.479,387.09,86.933,387.09,85.308z"/>
			<path fill="#4D4D4D" d="M391.878,83.697v-0.028c0-2.115,1.681-3.866,3.95-3.866c2.27,0,3.936,1.723,3.936,3.838v0.028
				c0,2.101-1.68,3.852-3.963,3.852C393.545,87.521,391.878,85.798,391.878,83.697z M398.069,83.697v-0.028
				c0-1.303-0.938-2.381-2.269-2.381c-1.359,0-2.228,1.065-2.228,2.354v0.028c0,1.289,0.939,2.367,2.255,2.367
				C397.201,86.036,398.069,84.972,398.069,83.697z"/>
			<path fill="#4D4D4D" d="M401.076,83.697v-0.028c0-2.101,1.625-3.866,3.852-3.866c1.387,0,2.256,0.519,2.955,1.275l-1.064,1.135
				c-0.518-0.546-1.064-0.925-1.904-0.925c-1.232,0-2.143,1.065-2.143,2.354v0.028c0,1.317,0.91,2.367,2.213,2.367
				c0.798,0,1.387-0.364,1.918-0.91l1.023,1.008c-0.729,0.813-1.583,1.387-3.025,1.387
				C402.701,87.521,401.076,85.798,401.076,83.697z"/>
			<path fill="#4D4D4D" d="M408.859,83.697v-0.028c0-2.115,1.682-3.866,3.951-3.866s3.936,1.723,3.936,3.838v0.028
				c0,2.101-1.681,3.852-3.964,3.852C410.527,87.521,408.859,85.798,408.859,83.697z M415.051,83.697v-0.028
				c0-1.303-0.938-2.381-2.269-2.381c-1.358,0-2.228,1.065-2.228,2.354v0.028c0,1.289,0.939,2.367,2.256,2.367
				C414.184,86.036,415.051,84.972,415.051,83.697z"/>
			<path fill="#4D4D4D" d="M418.563,77.127h1.694v10.226h-1.694V77.127z"/>
		</g>
		<g>
			<path fill="#4D4D4D" d="M512.418,60.677h1.598l4.314,9.875h-1.822l-0.994-2.367h-4.637l-1.008,2.367h-1.766L512.418,60.677z
				 M514.883,66.659l-1.694-3.922l-1.681,3.922H514.883z"/>
			<path fill="#4D4D4D" d="M519.809,63.157h1.694v1.232c0.546-0.77,1.317-1.387,2.521-1.387c1.737,0,3.433,1.373,3.433,3.838v0.028
				c0,2.451-1.682,3.838-3.433,3.838c-1.232,0-2.003-0.617-2.521-1.303v3.39h-1.694V63.157z M525.733,66.869v-0.028
				c0-1.429-0.966-2.367-2.115-2.367c-1.148,0-2.157,0.952-2.157,2.367v0.028c0,1.415,1.009,2.367,2.157,2.367
				C524.781,69.236,525.733,68.326,525.733,66.869z"/>
			<path fill="#4D4D4D" d="M529.202,63.157h1.694v1.232c0.547-0.77,1.317-1.387,2.521-1.387c1.737,0,3.433,1.373,3.433,3.838v0.028
				c0,2.451-1.681,3.838-3.433,3.838c-1.232,0-2.002-0.617-2.521-1.303v3.39h-1.694V63.157z M535.127,66.869v-0.028
				c0-1.429-0.966-2.367-2.115-2.367c-1.148,0-2.156,0.952-2.156,2.367v0.028c0,1.415,1.008,2.367,2.156,2.367
				C534.175,69.236,535.127,68.326,535.127,66.869z"/>
			<path fill="#4D4D4D" d="M538.694,60.327h1.694v10.226h-1.694V60.327z"/>
			<path fill="#4D4D4D" d="M542.629,60.411h1.82v1.611h-1.82V60.411z M542.698,63.157h1.694v7.396h-1.694V63.157z"/>
			<path fill="#4D4D4D" d="M546.197,66.897v-0.028c0-2.101,1.625-3.866,3.853-3.866c1.387,0,2.255,0.519,2.956,1.275l-1.064,1.135
				c-0.519-0.546-1.064-0.925-1.905-0.925c-1.233,0-2.144,1.065-2.144,2.354v0.028c0,1.317,0.91,2.367,2.213,2.367
				c0.799,0,1.387-0.364,1.92-0.91l1.021,1.008c-0.728,0.813-1.582,1.387-3.025,1.387C547.822,70.721,546.197,68.998,546.197,66.897
				z"/>
			<path fill="#4D4D4D" d="M554.107,68.423v-0.028c0-1.597,1.247-2.381,3.055-2.381c0.826,0,1.414,0.126,1.988,0.308V66.14
				c0-1.05-0.645-1.611-1.834-1.611c-0.827,0-1.443,0.182-2.115,0.462l-0.449-1.331c0.813-0.364,1.611-0.603,2.788-0.603
				c1.106,0,1.933,0.294,2.451,0.827c0.546,0.532,0.798,1.316,0.798,2.283v4.384h-1.652v-0.924
				c-0.504,0.602-1.275,1.079-2.409,1.079C555.341,70.707,554.107,69.908,554.107,68.423z M559.179,67.891v-0.504
				c-0.435-0.168-1.009-0.294-1.681-0.294c-1.093,0-1.737,0.462-1.737,1.233v0.028c0,0.714,0.63,1.121,1.442,1.121
				C558.324,69.474,559.179,68.83,559.179,67.891z"/>
			<path fill="#4D4D4D" d="M563.096,68.508v-3.894h-0.938v-1.457h0.938v-2.031h1.695v2.031h1.989v1.457h-1.989v3.628
				c0,0.658,0.336,0.924,0.91,0.924c0.379,0,0.715-0.084,1.051-0.252v1.387c-0.42,0.238-0.882,0.378-1.526,0.378
				C563.979,70.679,563.096,70.132,563.096,68.508z"/>
			<path fill="#4D4D4D" d="M568.528,60.411h1.821v1.611h-1.821V60.411z M568.598,63.157h1.695v7.396h-1.695V63.157z"/>
			<path fill="#4D4D4D" d="M572.098,66.897v-0.028c0-2.115,1.682-3.866,3.95-3.866c2.27,0,3.937,1.723,3.937,3.838v0.028
				c0,2.101-1.682,3.852-3.965,3.852C573.765,70.721,572.098,68.998,572.098,66.897z M578.289,66.897v-0.028
				c0-1.303-0.938-2.381-2.27-2.381c-1.358,0-2.227,1.065-2.227,2.354v0.028c0,1.289,0.938,2.367,2.255,2.367
				C577.421,69.236,578.289,68.171,578.289,66.897z"/>
			<path fill="#4D4D4D" d="M581.701,63.157h1.695v1.135c0.477-0.687,1.162-1.289,2.312-1.289c1.667,0,2.634,1.121,2.634,2.83v4.721
				h-1.695v-4.202c0-1.149-0.574-1.807-1.583-1.807c-0.98,0-1.667,0.687-1.667,1.835v4.174h-1.695V63.157z"/>
			<path fill="#4D4D4D" d="M533.227,77.548h3.656c3.082,0,5.211,2.115,5.211,4.875v0.028c0,2.76-2.129,4.903-5.211,4.903h-3.656
				V77.548z M534.949,79.117v6.667h1.934c2.059,0,3.404-1.387,3.404-3.306V82.45c0-1.919-1.346-3.333-3.404-3.333H534.949z"/>
			<path fill="#4D4D4D" d="M543.488,85.224v-0.028c0-1.597,1.246-2.381,3.054-2.381c0.827,0,1.415,0.126,1.989,0.308V82.94
				c0-1.05-0.645-1.611-1.835-1.611c-0.827,0-1.442,0.182-2.115,0.462l-0.448-1.331c0.813-0.364,1.611-0.603,2.787-0.603
				c1.107,0,1.934,0.294,2.451,0.827c0.547,0.532,0.799,1.316,0.799,2.283v4.384h-1.652v-0.924c-0.505,0.602-1.275,1.079-2.41,1.079
				C544.721,87.507,543.488,86.708,543.488,85.224z M548.559,84.691v-0.504c-0.434-0.168-1.008-0.294-1.68-0.294
				c-1.094,0-1.738,0.462-1.738,1.233v0.028c0,0.714,0.631,1.121,1.443,1.121C547.705,86.274,548.559,85.63,548.559,84.691z"/>
			<path fill="#4D4D4D" d="M552.477,85.308v-3.895h-0.938v-1.457h0.938v-2.031h1.695v2.031h1.988v1.457h-1.988v3.628
				c0,0.658,0.336,0.924,0.91,0.924c0.379,0,0.715-0.084,1.051-0.252v1.387c-0.42,0.238-0.883,0.378-1.527,0.378
				C553.359,87.479,552.477,86.933,552.477,85.308z"/>
			<path fill="#4D4D4D" d="M557.391,85.224v-0.028c0-1.597,1.246-2.381,3.053-2.381c0.827,0,1.416,0.126,1.99,0.308V82.94
				c0-1.05-0.645-1.611-1.836-1.611c-0.826,0-1.442,0.182-2.115,0.462l-0.447-1.331c0.813-0.364,1.61-0.603,2.787-0.603
				c1.106,0,1.934,0.294,2.451,0.827c0.547,0.532,0.799,1.316,0.799,2.283v4.384h-1.653v-0.924
				c-0.505,0.602-1.274,1.079-2.409,1.079C558.623,87.507,557.391,86.708,557.391,85.224z M562.461,84.691v-0.504
				c-0.434-0.168-1.008-0.294-1.681-0.294c-1.093,0-1.737,0.462-1.737,1.233v0.028c0,0.714,0.631,1.121,1.443,1.121
				C561.606,86.274,562.461,85.63,562.461,84.691z"/>
		</g>
		<g>
			<path fill="#FFFFFF" d="M648.026,16.119h-4.271v-1.485h6.037v1.219l-3.769,8.586h-1.765L648.026,16.119z"/>
			<path fill="#FFFFFF" d="M654.717,19.369h3.894v1.569h-3.894V19.369z"/>
			<path fill="#FFFFFF" d="M666.871,14.578h1.568l3.6,9.861h-1.694l-0.813-2.311h-3.811l-0.813,2.311h-1.639L666.871,14.578z
				 M669.028,20.686l-1.401-3.936l-1.4,3.936H669.028z"/>
			<path fill="#FFFFFF" d="M673.267,17.016h1.583v1.19c0.462-0.714,1.106-1.331,2.171-1.331c1.485,0,2.886,1.247,2.886,3.754v0.196
				c0,2.493-1.387,3.754-2.886,3.754c-1.078,0-1.723-0.603-2.171-1.261v3.236h-1.583V17.016z M678.31,20.797v-0.126
				c0-1.485-0.771-2.395-1.724-2.395c-0.952,0-1.765,0.924-1.765,2.381v0.14c0,1.457,0.813,2.381,1.765,2.381
				C677.553,23.179,678.31,22.282,678.31,20.797z"/>
			<path fill="#FFFFFF" d="M681.387,17.016h1.583v1.19c0.462-0.714,1.106-1.331,2.171-1.331c1.485,0,2.886,1.247,2.886,3.754v0.196
				c0,2.493-1.387,3.754-2.886,3.754c-1.078,0-1.723-0.603-2.171-1.261v3.236h-1.583V17.016z M686.43,20.797v-0.126
				c0-1.485-0.771-2.395-1.724-2.395c-0.952,0-1.765,0.924-1.765,2.381v0.14c0,1.457,0.813,2.381,1.765,2.381
				C685.673,23.179,686.43,22.282,686.43,20.797z"/>
			<path fill="#FFFFFF" d="M689.591,14.326h1.583v10.113h-1.583V14.326z"/>
			<path fill="#FFFFFF" d="M693.077,14.382h1.681v1.555h-1.681V14.382z M693.133,17.016h1.583v7.424h-1.583V17.016z"/>
			<path fill="#FFFFFF" d="M696.255,20.826v-0.14c0-2.213,1.442-3.81,3.39-3.81c1.064,0,1.765,0.392,2.381,1.008l-0.882,1.163
				c-0.393-0.406-0.827-0.742-1.499-0.742c-1.037,0-1.793,0.995-1.793,2.395v0.07c0,1.443,0.756,2.409,1.835,2.409
				c0.645,0,1.078-0.322,1.513-0.756l0.854,1.051c-0.588,0.658-1.331,1.121-2.465,1.121
				C697.655,24.594,696.255,23.039,696.255,20.826z"/>
			<path fill="#FFFFFF" d="M702.904,22.311v-0.07c0-1.597,1.064-2.381,2.633-2.381c0.701,0,1.205,0.126,1.709,0.294v-0.309
				c0-0.994-0.588-1.513-1.597-1.513c-0.714,0-1.303,0.224-1.793,0.448l-0.448-1.261c0.715-0.35,1.457-0.588,2.451-0.588
				c0.967,0,1.709,0.266,2.186,0.756c0.49,0.49,0.742,1.218,0.742,2.143v4.608h-1.555v-0.911c-0.435,0.63-1.093,1.051-2.06,1.051
				C703.94,24.58,702.904,23.753,702.904,22.311z M707.261,21.946v-0.743c-0.364-0.154-0.841-0.266-1.373-0.266
				c-0.91,0-1.442,0.462-1.442,1.247v0.028c0,0.742,0.518,1.163,1.204,1.176C706.56,23.403,707.261,22.787,707.261,21.946z"/>
			<path fill="#FFFFFF" d="M710.73,22.646v-4.272h-0.813v-1.358h0.813v-2.003h1.582v2.003h1.667v1.358h-1.667v3.95
				c0,0.574,0.295,0.813,0.799,0.813c0.309,0,0.588-0.07,0.854-0.21v1.303c-0.364,0.196-0.784,0.322-1.316,0.322
				C711.557,24.552,710.73,24.089,710.73,22.646z"/>
			<path fill="#FFFFFF" d="M715.434,14.382h1.681v1.555h-1.681V14.382z M715.489,17.016h1.583v7.424h-1.583V17.016z"/>
			<path fill="#FFFFFF" d="M718.611,20.812v-0.126c0-2.186,1.457-3.81,3.432-3.81c1.961,0,3.404,1.597,3.404,3.796v0.126
				c0,2.185-1.457,3.796-3.433,3.796C720.054,24.594,718.611,23.011,718.611,20.812z M723.864,20.784v-0.084
				c0-1.387-0.771-2.423-1.85-2.423c-1.106,0-1.82,1.022-1.82,2.409v0.084c0,1.387,0.771,2.438,1.849,2.438
				C723.149,23.207,723.864,22.17,723.864,20.784z"/>
			<path fill="#FFFFFF" d="M726.899,17.016h1.583v1.092c0.42-0.658,1.022-1.232,2.031-1.232c1.429,0,2.283,1.008,2.283,2.591v4.973
				h-1.583v-4.524c0-1.037-0.49-1.611-1.331-1.611c-0.826,0-1.4,0.616-1.4,1.639v4.497h-1.583V17.016z"/>
			<path fill="#FFFFFF" d="M644.819,91.711c-0.7-0.714-1.135-1.751-1.135-3.796v-0.098c0-3.306,1.373-5.337,3.796-5.337
				c1.009,0,1.765,0.322,2.508,0.896l-0.799,1.289c-0.49-0.392-1.037-0.7-1.751-0.7c-1.415,0-2.06,1.457-2.102,3.11
				c0.505-0.546,1.163-0.896,2.06-0.896c1.597,0,2.983,1.037,2.983,3.054v0.028c0,1.975-1.429,3.334-3.264,3.334
				C646.136,92.594,645.379,92.271,644.819,91.711z M648.77,89.344v-0.028c0-1.065-0.673-1.765-1.695-1.765
				s-1.695,0.729-1.695,1.765v0.028c0,1.064,0.673,1.821,1.724,1.821C648.139,91.165,648.77,90.395,648.77,89.344z"/>
			<path fill="#FFFFFF" d="M655.375,87.369h3.894v1.569h-3.894V87.369z"/>
			<path fill="#FFFFFF" d="M664.657,82.634h3.138c2.144,0,3.53,1.232,3.53,3.264v0.028c0,2.171-1.597,3.306-3.628,3.334h-1.415v3.18
				h-1.625V82.634z M667.697,87.789c1.246,0,1.975-0.743,1.975-1.835V85.94c0-1.177-0.729-1.821-1.975-1.821h-1.415v3.67H667.697z"
				/>
			<path fill="#FFFFFF" d="M672.637,85.016h1.583v1.457c0.392-0.966,1.106-1.625,2.228-1.569v1.723h-0.07
				c-1.289,0-2.157,0.84-2.157,2.535v3.278h-1.583V85.016z"/>
			<path fill="#FFFFFF" d="M677.103,88.812v-0.112c0-2.227,1.345-3.824,3.165-3.824c2.018,0,3.082,1.681,3.082,3.908
				c0,0.098,0,0.322-0.014,0.546h-4.65c0.14,1.247,0.91,1.919,1.877,1.919c0.7,0,1.219-0.309,1.709-0.785l0.826,0.98
				c-0.673,0.714-1.499,1.149-2.605,1.149C678.587,92.594,677.103,91.137,677.103,88.812z M681.809,88.237
				c-0.084-1.177-0.616-2.031-1.541-2.031c-0.868,0-1.484,0.771-1.597,2.031H681.809z"/>
			<path fill="#FFFFFF" d="M684.158,91.543l0.742-1.135c0.673,0.546,1.387,0.869,2.045,0.869s1.037-0.35,1.037-0.813V90.45
				c0-0.532-0.574-0.77-1.457-1.148c-1.106-0.476-2.031-0.98-2.031-2.199v-0.028c0-1.331,1.064-2.171,2.451-2.171
				c0.827,0,1.709,0.294,2.409,0.798l-0.672,1.163c-0.561-0.378-1.177-0.658-1.765-0.658c-0.589,0-0.938,0.322-0.938,0.729v0.028
				c0,0.49,0.588,0.743,1.456,1.135c1.148,0.518,2.018,1.05,2.018,2.213v0.014c0,1.457-1.106,2.255-2.535,2.255
				C686.035,92.58,685.013,92.257,684.158,91.543z"/>
			<path fill="#FFFFFF" d="M690.515,88.812v-0.112c0-2.227,1.345-3.824,3.165-3.824c2.018,0,3.082,1.681,3.082,3.908
				c0,0.098,0,0.322-0.014,0.546h-4.65c0.14,1.247,0.91,1.919,1.877,1.919c0.7,0,1.219-0.309,1.709-0.785l0.826,0.98
				c-0.673,0.714-1.499,1.149-2.605,1.149C691.999,92.594,690.515,91.137,690.515,88.812z M695.221,88.237
				c-0.084-1.177-0.616-2.031-1.541-2.031c-0.868,0-1.484,0.771-1.597,2.031H695.221z"/>
			<path fill="#FFFFFF" d="M698.187,85.016h1.583v1.092c0.42-0.658,1.022-1.232,2.031-1.232c1.429,0,2.283,1.008,2.283,2.591v4.973
				h-1.583v-4.524c0-1.037-0.49-1.611-1.331-1.611c-0.826,0-1.4,0.616-1.4,1.639v4.497h-1.583V85.016z"/>
			<path fill="#FFFFFF" d="M706.084,90.646v-4.272h-0.813v-1.358h0.813v-2.003h1.582v2.003h1.667v1.358h-1.667v3.95
				c0,0.574,0.295,0.813,0.799,0.813c0.309,0,0.588-0.07,0.854-0.21v1.303c-0.364,0.196-0.784,0.322-1.316,0.322
				C706.91,92.552,706.084,92.089,706.084,90.646z"/>
			<path fill="#FFFFFF" d="M710.339,90.311v-0.07c0-1.597,1.064-2.381,2.633-2.381c0.7,0,1.205,0.126,1.709,0.294v-0.309
				c0-0.994-0.588-1.513-1.597-1.513c-0.714,0-1.303,0.224-1.793,0.448l-0.448-1.261c0.715-0.35,1.457-0.588,2.451-0.588
				c0.967,0,1.709,0.266,2.186,0.756c0.49,0.49,0.742,1.218,0.742,2.143v4.608h-1.555v-0.911c-0.435,0.63-1.093,1.051-2.06,1.051
				C711.375,92.58,710.339,91.753,710.339,90.311z M714.695,89.946v-0.743c-0.364-0.154-0.841-0.266-1.373-0.266
				c-0.91,0-1.443,0.462-1.443,1.247v0.028c0,0.742,0.519,1.163,1.205,1.176C713.994,91.403,714.695,90.787,714.695,89.946z"/>
			<path fill="#FFFFFF" d="M718.165,90.646v-4.272h-0.813v-1.358h0.813v-2.003h1.582v2.003h1.667v1.358h-1.667v3.95
				c0,0.574,0.295,0.813,0.799,0.813c0.309,0,0.588-0.07,0.854-0.21v1.303c-0.364,0.196-0.784,0.322-1.316,0.322
				C718.991,92.552,718.165,92.089,718.165,90.646z"/>
			<path fill="#FFFFFF" d="M722.868,82.382h1.681v1.555h-1.681V82.382z M722.924,85.016h1.583v7.424h-1.583V85.016z"/>
			<path fill="#FFFFFF" d="M726.046,88.812v-0.126c0-2.186,1.456-3.81,3.432-3.81c1.961,0,3.403,1.597,3.403,3.796v0.126
				c0,2.185-1.456,3.796-3.432,3.796C727.488,92.594,726.046,91.011,726.046,88.812z M731.299,88.784v-0.084
				c0-1.387-0.771-2.423-1.85-2.423c-1.106,0-1.82,1.022-1.82,2.409v0.084c0,1.387,0.77,2.438,1.849,2.438
				C730.584,91.207,731.299,90.17,731.299,88.784z"/>
			<path fill="#FFFFFF" d="M734.334,85.016h1.583v1.092c0.42-0.658,1.022-1.232,2.031-1.232c1.429,0,2.283,1.008,2.283,2.591v4.973
				h-1.583v-4.524c0-1.037-0.49-1.611-1.331-1.611c-0.826,0-1.4,0.616-1.4,1.639v4.497h-1.583V85.016z"/>
			<path fill="#FFFFFF" d="M643.517,178.361l0.924-1.205c0.645,0.574,1.289,0.938,2.088,0.938c1.05,0,1.751-0.687,1.751-1.751
				v-0.028c0-1.036-0.771-1.652-1.808-1.652c-0.588,0-1.078,0.168-1.484,0.364l-0.953-0.631l0.267-4.762h5.183v1.485h-3.81
				l-0.154,2.325c0.393-0.126,0.756-0.225,1.303-0.225c1.667,0,3.067,0.953,3.067,3.04v0.028c0,2.017-1.387,3.306-3.348,3.306
				C645.337,179.594,644.314,179.117,643.517,178.361z"/>
			<path fill="#FFFFFF" d="M654.885,174.369h3.894v1.568h-3.894V174.369z"/>
			<path fill="#FFFFFF" d="M663.467,178.15l0.98-1.219c0.729,0.659,1.541,1.163,2.577,1.163c0.938,0,1.541-0.519,1.541-1.247v-0.014
				c0-0.616-0.322-1.022-1.877-1.597c-1.863-0.7-2.829-1.387-2.829-2.956v-0.028c0-1.611,1.288-2.745,3.109-2.745
				c1.135,0,2.186,0.364,3.082,1.148l-0.925,1.247c-0.673-0.546-1.415-0.924-2.199-0.924c-0.883,0-1.429,0.49-1.429,1.134v0.014
				c0,0.687,0.364,1.05,2.031,1.695c1.82,0.7,2.661,1.457,2.661,2.886v0.028c0,1.723-1.345,2.829-3.18,2.829
				C665.75,179.565,664.531,179.131,663.467,178.15z"/>
			<path fill="#FFFFFF" d="M671.349,175.812v-0.112c0-2.227,1.345-3.824,3.165-3.824c2.018,0,3.082,1.681,3.082,3.908
				c0,0.099,0,0.322-0.014,0.547h-4.65c0.14,1.246,0.91,1.919,1.877,1.919c0.7,0,1.219-0.309,1.709-0.784l0.826,0.98
				c-0.673,0.714-1.499,1.148-2.605,1.148C672.833,179.594,671.349,178.137,671.349,175.812z M676.055,175.237
				c-0.084-1.177-0.616-2.031-1.541-2.031c-0.868,0-1.484,0.771-1.597,2.031H676.055z"/>
			<path fill="#FFFFFF" d="M678.404,178.543l0.742-1.135c0.673,0.547,1.387,0.868,2.045,0.868s1.037-0.35,1.037-0.812v-0.015
				c0-0.532-0.574-0.771-1.457-1.148c-1.106-0.477-2.031-0.98-2.031-2.199v-0.028c0-1.331,1.064-2.171,2.451-2.171
				c0.827,0,1.709,0.294,2.409,0.798l-0.672,1.163c-0.561-0.378-1.177-0.658-1.765-0.658c-0.589,0-0.938,0.322-0.938,0.729v0.028
				c0,0.49,0.588,0.742,1.456,1.134c1.148,0.519,2.018,1.051,2.018,2.214v0.014c0,1.457-1.106,2.255-2.535,2.255
				C680.281,179.579,679.259,179.258,678.404,178.543z"/>
			<path fill="#FFFFFF" d="M684.383,178.543l0.742-1.135c0.673,0.547,1.387,0.868,2.045,0.868s1.037-0.35,1.037-0.812v-0.015
				c0-0.532-0.574-0.771-1.457-1.148c-1.106-0.477-2.031-0.98-2.031-2.199v-0.028c0-1.331,1.064-2.171,2.451-2.171
				c0.827,0,1.709,0.294,2.409,0.798l-0.672,1.163c-0.561-0.378-1.177-0.658-1.765-0.658c-0.589,0-0.938,0.322-0.938,0.729v0.028
				c0,0.49,0.588,0.742,1.456,1.134c1.148,0.519,2.018,1.051,2.018,2.214v0.014c0,1.457-1.106,2.255-2.535,2.255
				C686.26,179.579,685.237,179.258,684.383,178.543z"/>
			<path fill="#FFFFFF" d="M691.104,169.382h1.681v1.555h-1.681V169.382z M691.159,172.016h1.583v7.424h-1.583V172.016z"/>
			<path fill="#FFFFFF" d="M694.281,175.812v-0.126c0-2.186,1.457-3.81,3.432-3.81c1.961,0,3.404,1.597,3.404,3.796v0.126
				c0,2.185-1.457,3.796-3.433,3.796C695.724,179.594,694.281,178.011,694.281,175.812z M699.534,175.783v-0.084
				c0-1.387-0.771-2.423-1.85-2.423c-1.106,0-1.82,1.022-1.82,2.409v0.084c0,1.387,0.771,2.438,1.849,2.438
				C698.819,178.207,699.534,177.17,699.534,175.783z"/>
			<path fill="#FFFFFF" d="M702.569,172.016h1.583v1.093c0.42-0.659,1.022-1.233,2.031-1.233c1.429,0,2.283,1.008,2.283,2.591v4.973
				h-1.583v-4.524c0-1.036-0.49-1.611-1.331-1.611c-0.826,0-1.4,0.617-1.4,1.64v4.496h-1.583V172.016z"/>
		</g>
	</g>
	<g id="trait_blc_ht">
		<g>
			<rect x="94" fill="#FFFFFF" width="2" height="39"/>
		</g>
		<g>
			<rect x="182" y="1" fill="#FFFFFF" width="2" height="38"/>
		</g>
		<g>
			<rect x="271" y="1" fill="#FFFFFF" width="2" height="38"/>
		</g>
		<g>
			<rect x="359" fill="#FFFFFF" width="2" height="39"/>
		</g>
		<g>
			<rect x="448" fill="#FFFFFF" width="2" height="39"/>
		</g>
		<g>
			<rect x="536" fill="#FFFFFF" width="2" height="39"/>
		</g>
	</g>
	<line fill="none" stroke="#EAEAEA" stroke-width="2" stroke-miterlimit="10" x1="5" y1="118" x2="626" y2="118"/>
	<g id="trait_gris_1_">
		<path fill="none" stroke="#EAEAEA" stroke-width="2" stroke-miterlimit="10" d="M626,233"/>
		<path fill="none" stroke="#EAEAEA" stroke-width="2" stroke-miterlimit="10" d="M5,233"/>
		<g>
			<line fill="none" stroke="#EAEAEA" stroke-width="2" stroke-miterlimit="10" x1="314" y1="38" x2="314" y2="117"/>
			<line fill="none" stroke="#EAEAEA" stroke-width="2" stroke-miterlimit="10" x1="470" y1="38" x2="470" y2="118"/>
			<line fill="none" stroke="#EAEAEA" stroke-width="2" stroke-miterlimit="10" x1="158" y1="39" x2="158" y2="118"/>
		</g>
		<line fill="none" stroke="#EAEAEA" stroke-width="2" stroke-miterlimit="10" x1="314" y1="118" x2="314" y2="156"/>
	</g>
</g>
</svg>
