<?xml version="1.0" encoding="utf-8"?>
<!-- Generator: Adobe Illustrator 16.0.0, SVG Export Plug-In . SVG Version: 6.00 Build 0)  -->
<!DOCTYPE svg PUBLIC "-//W3C//DTD SVG 1.1//EN" "http://www.w3.org/Graphics/SVG/1.1/DTD/svg11.dtd">
<svg version="1.1" id="Layer_1" 
	xmlns="http://www.w3.org/2000/svg" 
	xmlns:xlink="http://www.w3.org/1999/xlink" x="0px" y="0px" width="640px" height="480px" viewBox="0 0 640 480" enable-background="new 0 0 640 480" xml:space="preserve">
	<g id="CycloneTCP">
		<g enable-background="new    ">
			<path fill="#041A87" d="M117.243,323.082v-0.135c0-13.431,10.056-24.432,24.364-24.432c8.706,0,13.97,3.037,18.492,7.356
			l-5.332,6.142c-3.78-3.51-7.829-5.872-13.228-5.872c-8.976,0-15.59,7.425-15.59,16.671v0.135c0,9.246,6.546,16.737,15.59,16.737
			c5.804,0,9.516-2.295,13.565-6.074l5.332,5.399c-4.927,5.129-10.326,8.368-19.167,8.368
			C127.502,347.378,117.243,336.648,117.243,323.082z"/>
			<path fill="#041A87" d="M192.229,310.934h8.503l-14.173,36.647c-2.834,7.288-6.006,9.988-11.743,9.988
			c-3.375,0-5.939-0.81-8.436-2.16l2.767-6.074c1.485,0.811,3.104,1.351,4.792,1.351c2.295,0,3.712-1.013,5.062-4.05l-14.848-35.702
			h8.773l10.056,26.456L192.229,310.934z"/>
			<path fill="#041A87" d="M203.773,328.953v-0.135c0-10.123,7.829-18.627,18.56-18.627c6.682,0,10.866,2.497,14.241,6.142
			l-5.129,5.467c-2.497-2.632-5.129-4.454-9.179-4.454c-5.939,0-10.326,5.129-10.326,11.338v0.135
			c0,6.345,4.387,11.406,10.663,11.406c3.847,0,6.682-1.755,9.246-4.387l4.927,4.858c-3.509,3.915-7.626,6.682-14.578,6.682
			C211.602,347.378,203.773,339.077,203.773,328.953z"/>
			<path fill="#041A87" d="M244.742,297.301h8.167v49.268h-8.167V297.301z"/>
			<path fill="#041A87" d="M261.616,328.953v-0.135c0-10.19,8.099-18.627,19.032-18.627s18.964,8.301,18.964,18.492v0.135
			c0,10.124-8.099,18.56-19.099,18.56C269.648,347.378,261.616,339.077,261.616,328.953z M291.447,328.953v-0.135
			c0-6.276-4.522-11.473-10.933-11.473c-6.547,0-10.731,5.129-10.731,11.338v0.135c0,6.209,4.521,11.406,10.866,11.406
			C287.262,340.225,291.447,335.095,291.447,328.953z"/>
			<path fill="#041A87" d="M307.919,310.934h8.166v5.467c2.295-3.307,5.602-6.209,11.136-6.209c8.031,0,12.688,5.399,12.688,13.633
			v22.744h-8.166v-20.247c0-5.534-2.767-8.706-7.626-8.706c-4.724,0-8.031,3.307-8.031,8.841v20.112h-8.166V310.934z"/>
			<path fill="#041A87" d="M347.808,328.886v-0.135c0-10.19,7.222-18.56,17.412-18.56c11.338,0,17.075,8.908,17.075,19.167
			c0,0.742-0.067,1.485-0.135,2.295h-26.187c0.878,5.804,4.994,9.043,10.259,9.043c3.981,0,6.816-1.484,9.651-4.251l4.791,4.251
			c-3.374,4.05-8.031,6.682-14.577,6.682C355.772,347.378,347.808,339.887,347.808,328.886z M374.197,326.254
			c-0.54-5.264-3.645-9.381-9.044-9.381c-4.994,0-8.503,3.847-9.245,9.381H374.197z"/>
		</g>
		<g enable-background="new    ">
			<path fill="#041A87" d="M404.772,308.909h-14.376v-9.584h39.145v9.584h-14.375v37.659h-10.394V308.909z"/>
			<path fill="#041A87" d="M433.392,323.082v-0.135c0-13.431,10.123-24.432,24.633-24.432c8.908,0,14.24,2.97,18.627,7.289
			l-6.613,7.626c-3.645-3.307-7.356-5.331-12.081-5.331c-7.964,0-13.7,6.613-13.7,14.713v0.135c0,8.099,5.602,14.848,13.7,14.848
			c5.399,0,8.706-2.16,12.418-5.534l6.614,6.682c-4.859,5.196-10.258,8.436-19.369,8.436
			C443.718,347.378,433.392,336.648,433.392,323.082z"/>
			<path fill="#041A87" d="M485.295,299.325h19.303c11.271,0,18.088,6.682,18.088,16.333v0.135c0,10.934-8.504,16.603-19.1,16.603
			h-7.896v14.173h-10.395V299.325z M503.923,323.15c5.196,0,8.233-3.104,8.233-7.154v-0.135c0-4.656-3.239-7.153-8.436-7.153h-8.031
			v14.442H503.923z"/>
		</g>
		<g>
			<path fill="#041A87" d="M297.572,243.19c0.292-0.004,0.589-0.019,0.891-0.034c45.094-2.998,61.401-21.814,61.142-42.621
			c-0.362-28.431-29.014-39.462-65.178-37.642c-21.167,1.063-44.786,6.549-49.953,16.872c0,0-0.75,3.686,0.648,8.698
			c2.005,7.173,7.813,11.782,7.813,11.782c6.303-12.469,24.058-22.328,45.874-24.004c28.454-2.188,52.975,10.349,54.769,28.006
			c1.79,17.661-19.823,33.747-48.284,35.938c-13.046,0.998-25.229-1.116-34.812-5.38l6.85,6.642
			C284.715,242.878,289.248,243.548,297.572,243.19z"/>
			<path fill="#041A87" d="M384.51,142.302c0.145-5.015-0.068-9.734-1.431-14.133c0.36,0.406,0.754,0.803,1.088,1.214
			c0.968-19.508-41.42-47.934-95.476-42.879c-30.821,2.881-60.875,13.37-72.941,31.075l1.181,6.294
			c-0.057,0.286-0.084,0.576-0.133,0.859c-0.343,0.465-0.729,0.91-1.048,1.384l1.181,6.295c-0.125,0.66-0.232,1.315-0.302,1.988
			c-0.655,6.42,11.5,16.109,16.028,21.633c0.002-0.036,0.002-0.063,0.005-0.095c0.021,0.027,0.049,0.059,0.071,0.081
			c-0.021-0.308-0.002-0.606-0.011-0.915c0.354-5.621,1.914-10.671,4.584-15.136c11.737-17.019,42.854-24.191,57.265-25.477
			c42.162-3.767,72.821,12.646,75.899,40.091c-2.933,24.174-31.122,40.188-73.855,48.852c-8.5,1.722,18.774,6.401,6.271,2.347
			c0,0,19.642-0.838,39.658-8.984c-12.11,6.438-27.691,11.482-45.929,15.177c-8.5,1.722,18.774,6.406,6.27,2.346
			c0,0,79.955-3.354,81.625-63.475c0.065-2.307,0.034-4.555-0.125-6.732C384.423,143.506,384.496,142.926,384.51,142.302z"/>

			<linearGradient id="SVGID_1_" gradientUnits="userSpaceOnUse" x1="581.2986" y1="234.0178" x2="361.4869" y2="200.8961" gradientTransform="matrix(1.063 0.1354 0.2041 -0.8745 -243.293 355.675)">
				<stop offset="0" style="stop-color:#03E7FF"/>
				<stop offset="1" style="stop-color:#105EFF"/>
			</linearGradient>
			<path fill="url(#SVGID_1_)" d="M359.378,205.085c-2.574,17.985-23.862,35.045-52.677,36.197
			c-17.31,0.694-32.761-3.524-42.592-10.618c0.103,0.451,0.207,0.901,0.341,1.352c4.869,16.564,32.518,25.104,57.395,20.57
			C365.7,244.601,359.577,205.603,359.378,205.085z"/>

			<linearGradient id="SVGID_2_" gradientUnits="userSpaceOnUse" x1="558.5906" y1="300.6868" x2="299.7312" y2="183.6691" gradientTransform="matrix(1 0 0 -1 -100.8999 423.4009)">
				<stop offset="0" style="stop-color:#03E7FF"/>
				<stop offset="1" style="stop-color:#105EFF"/>
			</linearGradient>
			<path fill="url(#SVGID_2_)" d="M383.861,151.192c-0.204,0.334,0.018,0.914,0.049,1.271c0.092,0.962,0.12,1.945,0.104,2.917
			c-0.023,1.436-0.163,2.824-0.531,4.22c-0.851,3.229-2.476,6.201-4.461,8.864c-5.133,6.883-12.517,11.964-20.006,15.975
			c-20.033,10.737-43.778,15.516-66.395,15.462c-10.607-0.018-21.608-1.035-31.62-4.755c-7.157-2.659-14.826-7.36-16.529-15.381
			c-2.355,8.707-1.646,19.521,4.507,26.439c4.307,4.854,11.757,8.944,17.819,10.872c9.213,2.939,18.986,4.022,28.619,4.167
			c12.184,0.178,24.738-0.974,36.589-3.877c29.154-7.142,61.651-33.604,52.405-67.099
			C384.496,150.585,383.991,150.974,383.861,151.192z"/>

			<linearGradient id="SVGID_3_" gradientUnits="userSpaceOnUse" x1="533.657" y1="348.6526" x2="288.4306" y2="237.7977" gradientTransform="matrix(1 0 0 -1 -100.8999 423.4009)">
				<stop offset="0" style="stop-color:#03E7FF"/>
				<stop offset="1" style="stop-color:#105EFF"/>
			</linearGradient>
			<path fill="url(#SVGID_3_)" d="M422.296,93.355c-1.255-6.879-6.027-12.718-12.741-17.566c0.093,0.419,0.209,0.83,0.275,1.267
			c0.397,2.476,0.385,4.97-0.02,7.468c-0.086-0.063-0.164-0.134-0.257-0.195c0.051,0.23,0.101,0.464,0.152,0.695
			c-4.381,24.072-44.603,48.196-96.517,56.297c-41.852,6.522-92.619-0.009-97.439-23.74c-0.856,2.007-4.308,10.305-0.216,25.927
			c6.997,26.721,56.866,38.404,114.188,27.301C386.169,159.869,428.504,127.352,422.296,93.355z"/>
		</g>
	</g>
</svg>
