<?xml version="1.0" encoding="UTF-8" standalone="no"?>
<svg
   xmlns:dc="http://purl.org/dc/elements/1.1/"
   xmlns:cc="http://creativecommons.org/ns#"
   xmlns:rdf="http://www.w3.org/1999/02/22-rdf-syntax-ns#"
   xmlns:svg="http://www.w3.org/2000/svg"
   xmlns="http://www.w3.org/2000/svg"
   xmlns:xlink="http://www.w3.org/1999/xlink"
   xmlns:sodipodi="http://sodipodi.sourceforge.net/DTD/sodipodi-0.dtd"
   xmlns:inkscape="http://www.inkscape.org/namespaces/inkscape"
   width="800"
   height="500"
   viewBox="0 0 211.66667 132.29167"
   version="1.1"
   id="svg8"
   inkscape:version="1.0.2-2 (e86c870879, 2021-01-15)"
   sodipodi:docname="OryxEmbedded-Jumbotron.svg">
  <defs
     id="defs2">
    <linearGradient
       inkscape:collect="always"
       xlink:href="#SVGID_1_"
       id="linearGradient1469"
       gradientUnits="userSpaceOnUse"
       gradientTransform="matrix(1.063,0.1354,0.2041,-0.8745,-243.293,355.675)"
       x1="581.29858"
       y1="234.01781"
       x2="361.48691"
       y2="200.8961" />
    <linearGradient
       inkscape:collect="always"
       xlink:href="#SVGID_2_"
       id="linearGradient1471"
       gradientUnits="userSpaceOnUse"
       gradientTransform="matrix(1,0,0,-1,-100.8999,423.4009)"
       x1="558.59058"
       y1="300.6868"
       x2="299.7312"
       y2="183.6691" />
    <linearGradient
       inkscape:collect="always"
       xlink:href="#SVGID_3_"
       id="linearGradient1473"
       gradientUnits="userSpaceOnUse"
       gradientTransform="matrix(1,0,0,-1,-100.8999,423.4009)"
       x1="533.65698"
       y1="348.65259"
       x2="288.4306"
       y2="237.7977" />
    <linearGradient
       inkscape:collect="always"
       xlink:href="#SVGID_1_"
       id="linearGradient1475"
       gradientUnits="userSpaceOnUse"
       gradientTransform="matrix(1.063,0.1354,0.2041,-0.8745,-243.293,355.675)"
       x1="581.29858"
       y1="234.01781"
       x2="361.48691"
       y2="200.8961" />
    <linearGradient
       inkscape:collect="always"
       xlink:href="#SVGID_2_"
       id="linearGradient1477"
       gradientUnits="userSpaceOnUse"
       gradientTransform="matrix(1,0,0,-1,-100.8999,423.4009)"
       x1="558.59058"
       y1="300.6868"
       x2="299.7312"
       y2="183.6691" />
    <linearGradient
       inkscape:collect="always"
       xlink:href="#SVGID_3_"
       id="linearGradient1479"
       gradientUnits="userSpaceOnUse"
       gradientTransform="matrix(1,0,0,-1,-100.8999,423.4009)"
       x1="533.65698"
       y1="348.65259"
       x2="288.4306"
       y2="237.7977" />
    <linearGradient
       inkscape:collect="always"
       xlink:href="#SVGID_1_"
       id="linearGradient1481"
       gradientUnits="userSpaceOnUse"
       gradientTransform="matrix(1.063,0.1354,0.2041,-0.8745,-243.293,355.675)"
       x1="581.29858"
       y1="234.01781"
       x2="361.48691"
       y2="200.8961" />
    <linearGradient
       inkscape:collect="always"
       xlink:href="#SVGID_2_"
       id="linearGradient1483"
       gradientUnits="userSpaceOnUse"
       gradientTransform="matrix(1,0,0,-1,-100.8999,423.4009)"
       x1="558.59058"
       y1="300.6868"
       x2="299.7312"
       y2="183.6691" />
    <linearGradient
       inkscape:collect="always"
       xlink:href="#SVGID_3_"
       id="linearGradient1485"
       gradientUnits="userSpaceOnUse"
       gradientTransform="matrix(1,0,0,-1,-100.8999,423.4009)"
       x1="533.65698"
       y1="348.65259"
       x2="288.4306"
       y2="237.7977" />
  </defs>
  <sodipodi:namedview
     id="base"
     pagecolor="#ffffff"
     bordercolor="#666666"
     borderopacity="1.0"
     inkscape:pageopacity="0.0"
     inkscape:pageshadow="2"
     inkscape:zoom="0.7"
     inkscape:cx="362.65517"
     inkscape:cy="202.27736"
     inkscape:document-units="mm"
     inkscape:current-layer="layer1"
     inkscape:document-rotation="0"
     showgrid="false"
     units="px"
     inkscape:window-width="1920"
     inkscape:window-height="1005"
     inkscape:window-x="-9"
     inkscape:window-y="-9"
     inkscape:window-maximized="1" />
  <metadata
     id="metadata5">
    <rdf:RDF>
      <cc:Work
         rdf:about="">
        <dc:format>image/svg+xml</dc:format>
        <dc:type
           rdf:resource="http://purl.org/dc/dcmitype/StillImage" />
        <dc:title></dc:title>
      </cc:Work>
    </rdf:RDF>
  </metadata>
  <g
     inkscape:label="Layer 1"
     inkscape:groupmode="layer"
     id="layer1">
    <rect
       style="fill:#ffffff;fill-opacity:1;fill-rule:evenodd;stroke:#ffff00;stroke-width:0.0189978"
       id="rect1487"
       width="211.64767"
       height="132.27267"
       x="0.0094988924"
       y="0.0094988924" />
    <g
       id="CycloneTCP"
       transform="matrix(0.2136106,0,0,0.2136106,-15.368045,-10.153882)">
		<g
   enable-background="new    "
   id="g1180">
			<path
   fill="#041a87"
   d="m 117.243,323.082 v -0.135 c 0,-13.431 10.056,-24.432 24.364,-24.432 8.706,0 13.97,3.037 18.492,7.356 l -5.332,6.142 c -3.78,-3.51 -7.829,-5.872 -13.228,-5.872 -8.976,0 -15.59,7.425 -15.59,16.671 v 0.135 c 0,9.246 6.546,16.737 15.59,16.737 5.804,0 9.516,-2.295 13.565,-6.074 l 5.332,5.399 c -4.927,5.129 -10.326,8.368 -19.167,8.368 -13.767,10e-4 -24.026,-10.729 -24.026,-24.295 z"
   id="path1166" />

			<path
   fill="#041a87"
   d="m 192.229,310.934 h 8.503 l -14.173,36.647 c -2.834,7.288 -6.006,9.988 -11.743,9.988 -3.375,0 -5.939,-0.81 -8.436,-2.16 l 2.767,-6.074 c 1.485,0.811 3.104,1.351 4.792,1.351 2.295,0 3.712,-1.013 5.062,-4.05 l -14.848,-35.702 h 8.773 l 10.056,26.456 z"
   id="path1168" />

			<path
   fill="#041a87"
   d="m 203.773,328.953 v -0.135 c 0,-10.123 7.829,-18.627 18.56,-18.627 6.682,0 10.866,2.497 14.241,6.142 l -5.129,5.467 c -2.497,-2.632 -5.129,-4.454 -9.179,-4.454 -5.939,0 -10.326,5.129 -10.326,11.338 v 0.135 c 0,6.345 4.387,11.406 10.663,11.406 3.847,0 6.682,-1.755 9.246,-4.387 l 4.927,4.858 c -3.509,3.915 -7.626,6.682 -14.578,6.682 -10.596,0 -18.425,-8.301 -18.425,-18.425 z"
   id="path1170" />

			<path
   fill="#041a87"
   d="m 244.742,297.301 h 8.167 v 49.268 h -8.167 z"
   id="path1172" />

			<path
   fill="#041a87"
   d="m 261.616,328.953 v -0.135 c 0,-10.19 8.099,-18.627 19.032,-18.627 10.933,0 18.964,8.301 18.964,18.492 v 0.135 c 0,10.124 -8.099,18.56 -19.099,18.56 -10.865,0 -18.897,-8.301 -18.897,-18.425 z m 29.831,0 v -0.135 c 0,-6.276 -4.522,-11.473 -10.933,-11.473 -6.547,0 -10.731,5.129 -10.731,11.338 v 0.135 c 0,6.209 4.521,11.406 10.866,11.406 6.613,0.001 10.798,-5.129 10.798,-11.271 z"
   id="path1174" />

			<path
   fill="#041a87"
   d="m 307.919,310.934 h 8.166 v 5.467 c 2.295,-3.307 5.602,-6.209 11.136,-6.209 8.031,0 12.688,5.399 12.688,13.633 v 22.744 h -8.166 v -20.247 c 0,-5.534 -2.767,-8.706 -7.626,-8.706 -4.724,0 -8.031,3.307 -8.031,8.841 v 20.112 h -8.166 v -35.635 z"
   id="path1176" />

			<path
   fill="#041a87"
   d="m 347.808,328.886 v -0.135 c 0,-10.19 7.222,-18.56 17.412,-18.56 11.338,0 17.075,8.908 17.075,19.167 0,0.742 -0.067,1.485 -0.135,2.295 h -26.187 c 0.878,5.804 4.994,9.043 10.259,9.043 3.981,0 6.816,-1.484 9.651,-4.251 l 4.791,4.251 c -3.374,4.05 -8.031,6.682 -14.577,6.682 -10.325,0 -18.289,-7.491 -18.289,-18.492 z m 26.389,-2.632 c -0.54,-5.264 -3.645,-9.381 -9.044,-9.381 -4.994,0 -8.503,3.847 -9.245,9.381 z"
   id="path1178" />

		</g>

		<g
   enable-background="new    "
   id="g1188">
			<path
   fill="#041a87"
   d="m 404.772,308.909 h -14.376 v -9.584 h 39.145 v 9.584 h -14.375 v 37.659 h -10.394 z"
   id="path1182" />

			<path
   fill="#041a87"
   d="m 433.392,323.082 v -0.135 c 0,-13.431 10.123,-24.432 24.633,-24.432 8.908,0 14.24,2.97 18.627,7.289 l -6.613,7.626 c -3.645,-3.307 -7.356,-5.331 -12.081,-5.331 -7.964,0 -13.7,6.613 -13.7,14.713 v 0.135 c 0,8.099 5.602,14.848 13.7,14.848 5.399,0 8.706,-2.16 12.418,-5.534 l 6.614,6.682 c -4.859,5.196 -10.258,8.436 -19.369,8.436 -13.903,-0.001 -24.229,-10.731 -24.229,-24.297 z"
   id="path1184" />

			<path
   fill="#041a87"
   d="m 485.295,299.325 h 19.303 c 11.271,0 18.088,6.682 18.088,16.333 v 0.135 c 0,10.934 -8.504,16.603 -19.1,16.603 h -7.896 v 14.173 h -10.395 z m 18.628,23.825 c 5.196,0 8.233,-3.104 8.233,-7.154 v -0.135 c 0,-4.656 -3.239,-7.153 -8.436,-7.153 h -8.031 v 14.442 z"
   id="path1186" />

		</g>

		<g
   id="g1215">
			<path
   fill="#041a87"
   d="m 297.572,243.19 c 0.292,-0.004 0.589,-0.019 0.891,-0.034 45.094,-2.998 61.401,-21.814 61.142,-42.621 -0.362,-28.431 -29.014,-39.462 -65.178,-37.642 -21.167,1.063 -44.786,6.549 -49.953,16.872 0,0 -0.75,3.686 0.648,8.698 2.005,7.173 7.813,11.782 7.813,11.782 6.303,-12.469 24.058,-22.328 45.874,-24.004 28.454,-2.188 52.975,10.349 54.769,28.006 1.79,17.661 -19.823,33.747 -48.284,35.938 -13.046,0.998 -25.229,-1.116 -34.812,-5.38 l 6.85,6.642 c 7.383,1.431 11.916,2.101 20.24,1.743 z"
   id="path1190" />

			<path
   fill="#041a87"
   d="m 384.51,142.302 c 0.145,-5.015 -0.068,-9.734 -1.431,-14.133 0.36,0.406 0.754,0.803 1.088,1.214 0.968,-19.508 -41.42,-47.934 -95.476,-42.879 -30.821,2.881 -60.875,13.37 -72.941,31.075 l 1.181,6.294 c -0.057,0.286 -0.084,0.576 -0.133,0.859 -0.343,0.465 -0.729,0.91 -1.048,1.384 l 1.181,6.295 c -0.125,0.66 -0.232,1.315 -0.302,1.988 -0.655,6.42 11.5,16.109 16.028,21.633 0.002,-0.036 0.002,-0.063 0.005,-0.095 0.021,0.027 0.049,0.059 0.071,0.081 -0.021,-0.308 -0.002,-0.606 -0.011,-0.915 0.354,-5.621 1.914,-10.671 4.584,-15.136 11.737,-17.019 42.854,-24.191 57.265,-25.477 42.162,-3.767 72.821,12.646 75.899,40.091 -2.933,24.174 -31.122,40.188 -73.855,48.852 -8.5,1.722 18.774,6.401 6.271,2.347 0,0 19.642,-0.838 39.658,-8.984 -12.11,6.438 -27.691,11.482 -45.929,15.177 -8.5,1.722 18.774,6.406 6.27,2.346 0,0 79.955,-3.354 81.625,-63.475 0.065,-2.307 0.034,-4.555 -0.125,-6.732 0.038,-0.606 0.111,-1.186 0.125,-1.81 z"
   id="path1192" />


			<linearGradient
   id="SVGID_1_"
   gradientUnits="userSpaceOnUse"
   x1="581.29858"
   y1="234.01781"
   x2="361.48691"
   y2="200.8961"
   gradientTransform="matrix(1.063,0.1354,0.2041,-0.8745,-243.293,355.675)">
				<stop
   offset="0"
   style="stop-color:#03E7FF"
   id="stop1194" />

				<stop
   offset="1"
   style="stop-color:#105EFF"
   id="stop1196" />

			</linearGradient>

			<path
   fill="url(#SVGID_1_)"
   d="m 359.378,205.085 c -2.574,17.985 -23.862,35.045 -52.677,36.197 -17.31,0.694 -32.761,-3.524 -42.592,-10.618 0.103,0.451 0.207,0.901 0.341,1.352 4.869,16.564 32.518,25.104 57.395,20.57 43.855,-7.985 37.732,-46.983 37.533,-47.501 z"
   id="path1199"
   style="fill:url(#linearGradient1475)" />


			<linearGradient
   id="SVGID_2_"
   gradientUnits="userSpaceOnUse"
   x1="558.59058"
   y1="300.6868"
   x2="299.7312"
   y2="183.6691"
   gradientTransform="matrix(1,0,0,-1,-100.8999,423.4009)">
				<stop
   offset="0"
   style="stop-color:#03E7FF"
   id="stop1201" />

				<stop
   offset="1"
   style="stop-color:#105EFF"
   id="stop1203" />

			</linearGradient>

			<path
   fill="url(#SVGID_2_)"
   d="m 383.861,151.192 c -0.204,0.334 0.018,0.914 0.049,1.271 0.092,0.962 0.12,1.945 0.104,2.917 -0.023,1.436 -0.163,2.824 -0.531,4.22 -0.851,3.229 -2.476,6.201 -4.461,8.864 -5.133,6.883 -12.517,11.964 -20.006,15.975 -20.033,10.737 -43.778,15.516 -66.395,15.462 -10.607,-0.018 -21.608,-1.035 -31.62,-4.755 -7.157,-2.659 -14.826,-7.36 -16.529,-15.381 -2.355,8.707 -1.646,19.521 4.507,26.439 4.307,4.854 11.757,8.944 17.819,10.872 9.213,2.939 18.986,4.022 28.619,4.167 12.184,0.178 24.738,-0.974 36.589,-3.877 29.154,-7.142 61.651,-33.604 52.405,-67.099 0.085,0.318 -0.42,0.707 -0.55,0.925 z"
   id="path1206"
   style="fill:url(#linearGradient1477)" />


			<linearGradient
   id="SVGID_3_"
   gradientUnits="userSpaceOnUse"
   x1="533.65698"
   y1="348.65259"
   x2="288.4306"
   y2="237.7977"
   gradientTransform="matrix(1,0,0,-1,-100.8999,423.4009)">
				<stop
   offset="0"
   style="stop-color:#03E7FF"
   id="stop1208" />

				<stop
   offset="1"
   style="stop-color:#105EFF"
   id="stop1210" />

			</linearGradient>

			<path
   fill="url(#SVGID_3_)"
   d="m 422.296,93.355 c -1.255,-6.879 -6.027,-12.718 -12.741,-17.566 0.093,0.419 0.209,0.83 0.275,1.267 0.397,2.476 0.385,4.97 -0.02,7.468 -0.086,-0.063 -0.164,-0.134 -0.257,-0.195 0.051,0.23 0.101,0.464 0.152,0.695 -4.381,24.072 -44.603,48.196 -96.517,56.297 -41.852,6.522 -92.619,-0.009 -97.439,-23.74 -0.856,2.007 -4.308,10.305 -0.216,25.927 6.997,26.721 56.866,38.404 114.188,27.301 56.448,-10.94 98.783,-43.457 92.575,-77.454 z"
   id="path1213"
   style="fill:url(#linearGradient1479)" />

		</g>

	</g>
    <g
       id="CycloneSSL"
       transform="matrix(0.20556228,0,0,0.20556228,92.502443,-8.9571215)">
		<g
   enable-background="new    "
   id="g1267">
			<path
   fill="#041a87"
   d="m 122.474,323.082 v -0.135 c 0,-13.431 10.056,-24.432 24.364,-24.432 8.706,0 13.97,3.037 18.492,7.356 l -5.332,6.142 c -3.78,-3.51 -7.829,-5.872 -13.228,-5.872 -8.976,0 -15.59,7.425 -15.59,16.671 v 0.135 c 0,9.246 6.546,16.737 15.59,16.737 5.804,0 9.516,-2.295 13.565,-6.074 l 5.332,5.399 c -4.927,5.129 -10.326,8.368 -19.167,8.368 -13.767,10e-4 -24.026,-10.729 -24.026,-24.295 z"
   id="path1253" />

			<path
   fill="#041a87"
   d="m 197.46,310.934 h 8.503 l -14.173,36.647 c -2.834,7.288 -6.006,9.988 -11.743,9.988 -3.375,0 -5.939,-0.81 -8.436,-2.16 l 2.767,-6.074 c 1.485,0.811 3.104,1.351 4.792,1.351 2.295,0 3.712,-1.013 5.062,-4.05 l -14.848,-35.702 h 8.773 l 10.056,26.456 z"
   id="path1255" />

			<path
   fill="#041a87"
   d="m 209.004,328.953 v -0.135 c 0,-10.123 7.829,-18.627 18.56,-18.627 6.682,0 10.866,2.497 14.241,6.142 l -5.129,5.467 c -2.497,-2.632 -5.129,-4.454 -9.179,-4.454 -5.939,0 -10.326,5.129 -10.326,11.338 v 0.135 c 0,6.345 4.387,11.406 10.663,11.406 3.847,0 6.682,-1.755 9.246,-4.387 l 4.927,4.858 c -3.509,3.915 -7.626,6.682 -14.578,6.682 -10.596,0 -18.425,-8.301 -18.425,-18.425 z"
   id="path1257" />

			<path
   fill="#041a87"
   d="m 249.973,297.301 h 8.167 v 49.268 h -8.167 z"
   id="path1259" />

			<path
   fill="#041a87"
   d="m 266.847,328.953 v -0.135 c 0,-10.19 8.099,-18.627 19.032,-18.627 10.933,0 18.964,8.301 18.964,18.492 v 0.135 c 0,10.124 -8.099,18.56 -19.099,18.56 -10.865,0 -18.897,-8.301 -18.897,-18.425 z m 29.831,0 v -0.135 c 0,-6.276 -4.522,-11.473 -10.933,-11.473 -6.547,0 -10.731,5.129 -10.731,11.338 v 0.135 c 0,6.209 4.521,11.406 10.866,11.406 6.613,0.001 10.798,-5.129 10.798,-11.271 z"
   id="path1261" />

			<path
   fill="#041a87"
   d="m 313.15,310.934 h 8.167 v 5.467 c 2.295,-3.307 5.602,-6.209 11.135,-6.209 8.031,0 12.688,5.399 12.688,13.633 v 22.744 h -8.166 v -20.247 c 0,-5.534 -2.767,-8.706 -7.626,-8.706 -4.725,0 -8.031,3.307 -8.031,8.841 v 20.112 h -8.167 z"
   id="path1263" />

			<path
   fill="#041a87"
   d="m 353.039,328.886 v -0.135 c 0,-10.19 7.223,-18.56 17.413,-18.56 11.338,0 17.075,8.908 17.075,19.167 0,0.742 -0.068,1.485 -0.135,2.295 h -26.187 c 0.878,5.804 4.994,9.043 10.259,9.043 3.981,0 6.816,-1.484 9.65,-4.251 l 4.792,4.251 c -3.374,4.05 -8.031,6.682 -14.577,6.682 -10.325,0 -18.29,-7.491 -18.29,-18.492 z m 26.388,-2.632 c -0.539,-5.264 -3.645,-9.381 -9.043,-9.381 -4.994,0 -8.504,3.847 -9.246,9.381 z"
   id="path1265" />

		</g>

		<g
   enable-background="new    "
   id="g1275">
			<path
   fill="#041a87"
   d="m 395.763,339.685 6.141,-7.356 c 4.252,3.51 8.707,5.736 14.105,5.736 4.252,0 6.816,-1.688 6.816,-4.454 v -0.135 c 0,-2.632 -1.619,-3.982 -9.516,-6.007 -9.516,-2.43 -15.658,-5.062 -15.658,-14.442 v -0.136 c 0,-8.57 6.885,-14.24 16.535,-14.24 6.885,0 12.756,2.16 17.547,6.007 l -5.398,7.829 c -4.185,-2.902 -8.301,-4.657 -12.283,-4.657 -3.982,0 -6.074,1.822 -6.074,4.117 v 0.135 c 0,3.104 2.025,4.117 10.191,6.209 9.584,2.497 14.982,5.939 14.982,14.173 v 0.135 c 0,9.382 -7.154,14.646 -17.345,14.646 -7.152,-0.002 -14.375,-2.499 -20.043,-7.56 z"
   id="path1269" />

			<path
   fill="#041a87"
   d="m 438.285,339.685 6.143,-7.356 c 4.252,3.51 8.705,5.736 14.105,5.736 4.251,0 6.816,-1.688 6.816,-4.454 v -0.135 c 0,-2.632 -1.621,-3.982 -9.517,-6.007 -9.517,-2.43 -15.657,-5.062 -15.657,-14.442 v -0.136 c 0,-8.57 6.883,-14.24 16.535,-14.24 6.883,0 12.755,2.16 17.547,6.007 l -5.399,7.829 c -4.185,-2.902 -8.302,-4.657 -12.283,-4.657 -3.981,0 -6.074,1.822 -6.074,4.117 v 0.135 c 0,3.104 2.024,4.117 10.19,6.209 9.584,2.497 14.983,5.939 14.983,14.173 v 0.135 c 0,9.382 -7.153,14.646 -17.345,14.646 -7.153,-0.002 -14.374,-2.499 -20.044,-7.56 z"
   id="path1271" />

			<path
   fill="#041a87"
   d="m 484.722,299.325 h 10.393 v 37.795 h 23.555 v 9.448 h -33.947 v -47.243 z"
   id="path1273" />

		</g>

		<g
   id="g1302">
			<path
   fill="#041a87"
   d="m 297.572,243.19 c 0.292,-0.004 0.589,-0.019 0.891,-0.034 45.094,-2.998 61.401,-21.814 61.142,-42.621 -0.362,-28.431 -29.014,-39.462 -65.178,-37.642 -21.167,1.063 -44.786,6.549 -49.953,16.872 0,0 -0.75,3.686 0.648,8.698 2.005,7.173 7.813,11.782 7.813,11.782 6.303,-12.469 24.058,-22.328 45.874,-24.004 28.454,-2.188 52.975,10.349 54.769,28.006 1.79,17.661 -19.823,33.747 -48.284,35.938 -13.046,0.998 -25.229,-1.116 -34.812,-5.38 l 6.85,6.642 c 7.383,1.431 11.916,2.101 20.24,1.743 z"
   id="path1277" />

			<path
   fill="#041a87"
   d="m 384.51,142.302 c 0.145,-5.015 -0.068,-9.734 -1.431,-14.133 0.36,0.406 0.754,0.803 1.088,1.214 0.968,-19.508 -41.42,-47.934 -95.476,-42.879 -30.821,2.881 -60.875,13.37 -72.941,31.075 l 1.181,6.294 c -0.057,0.286 -0.084,0.576 -0.133,0.859 -0.343,0.465 -0.729,0.91 -1.048,1.384 l 1.181,6.295 c -0.125,0.66 -0.232,1.315 -0.302,1.988 -0.655,6.42 11.5,16.109 16.028,21.633 0.002,-0.036 0.002,-0.063 0.005,-0.095 0.021,0.027 0.049,0.059 0.071,0.081 -0.021,-0.308 -0.002,-0.606 -0.011,-0.915 0.354,-5.621 1.914,-10.671 4.584,-15.136 11.737,-17.019 42.854,-24.191 57.265,-25.477 42.162,-3.767 72.821,12.646 75.899,40.091 -2.933,24.174 -31.122,40.188 -73.855,48.852 -8.5,1.722 18.774,6.401 6.271,2.347 0,0 19.642,-0.838 39.658,-8.984 -12.11,6.438 -27.691,11.482 -45.929,15.177 -8.5,1.722 18.774,6.406 6.27,2.346 0,0 79.955,-3.354 81.625,-63.475 0.065,-2.307 0.034,-4.555 -0.125,-6.732 0.038,-0.606 0.111,-1.186 0.125,-1.81 z"
   id="path1279" />


			<linearGradient
   id="linearGradient1328"
   gradientUnits="userSpaceOnUse"
   x1="581.29858"
   y1="234.01781"
   x2="361.48691"
   y2="200.8961"
   gradientTransform="matrix(1.063,0.1354,0.2041,-0.8745,-243.293,355.675)">
				<stop
   offset="0"
   style="stop-color:#03E7FF"
   id="stop1281" />

				<stop
   offset="1"
   style="stop-color:#105EFF"
   id="stop1283" />

			</linearGradient>

			<path
   fill="url(#SVGID_1_)"
   d="m 359.378,205.085 c -2.574,17.985 -23.862,35.045 -52.677,36.197 -17.31,0.694 -32.761,-3.524 -42.592,-10.618 0.103,0.451 0.207,0.901 0.341,1.352 4.869,16.564 32.518,25.104 57.395,20.57 43.855,-7.985 37.732,-46.983 37.533,-47.501 z"
   id="path1286"
   style="fill:url(#linearGradient1481)" />


			<linearGradient
   id="linearGradient1333"
   gradientUnits="userSpaceOnUse"
   x1="558.59058"
   y1="300.6868"
   x2="299.7312"
   y2="183.6691"
   gradientTransform="matrix(1,0,0,-1,-100.8999,423.4009)">
				<stop
   offset="0"
   style="stop-color:#03E7FF"
   id="stop1288" />

				<stop
   offset="1"
   style="stop-color:#105EFF"
   id="stop1290" />

			</linearGradient>

			<path
   fill="url(#SVGID_2_)"
   d="m 383.861,151.192 c -0.204,0.334 0.018,0.914 0.049,1.271 0.092,0.962 0.12,1.945 0.104,2.917 -0.023,1.436 -0.163,2.824 -0.531,4.22 -0.851,3.229 -2.476,6.201 -4.461,8.864 -5.133,6.883 -12.517,11.964 -20.006,15.975 -20.033,10.737 -43.778,15.516 -66.395,15.462 -10.607,-0.018 -21.608,-1.035 -31.62,-4.755 -7.157,-2.659 -14.826,-7.36 -16.529,-15.381 -2.355,8.707 -1.646,19.521 4.507,26.439 4.307,4.854 11.757,8.944 17.819,10.872 9.213,2.939 18.986,4.022 28.619,4.167 12.184,0.178 24.738,-0.974 36.589,-3.877 29.154,-7.142 61.651,-33.604 52.405,-67.099 0.085,0.318 -0.42,0.707 -0.55,0.925 z"
   id="path1293"
   style="fill:url(#linearGradient1483)" />


			<linearGradient
   id="linearGradient1338"
   gradientUnits="userSpaceOnUse"
   x1="533.65698"
   y1="348.65259"
   x2="288.4306"
   y2="237.7977"
   gradientTransform="matrix(1,0,0,-1,-100.8999,423.4009)">
				<stop
   offset="0"
   style="stop-color:#03E7FF"
   id="stop1295" />

				<stop
   offset="1"
   style="stop-color:#105EFF"
   id="stop1297" />

			</linearGradient>

			<path
   fill="url(#SVGID_3_)"
   d="m 422.296,93.355 c -1.255,-6.879 -6.027,-12.718 -12.741,-17.566 0.093,0.419 0.209,0.83 0.275,1.267 0.397,2.476 0.385,4.97 -0.02,7.468 -0.086,-0.063 -0.164,-0.134 -0.257,-0.195 0.051,0.23 0.101,0.464 0.152,0.695 -4.381,24.072 -44.603,48.196 -96.517,56.297 -41.852,6.522 -92.619,-0.009 -97.439,-23.74 -0.856,2.007 -4.308,10.305 -0.216,25.927 6.997,26.721 56.866,38.404 114.188,27.301 56.448,-10.94 98.783,-43.457 92.575,-77.454 z"
   id="path1300"
   style="fill:url(#linearGradient1485)" />

		</g>

	</g>
    <g
       id="CycloneCRYPTO"
       transform="matrix(0.20098275,0,0,0.20098275,42.819866,54.160951)">
		<g
   display="none"
   enable-background="new    "
   id="g1355">
			<path
   display="inline"
   fill="#041a87"
   d="m 342.544,323.082 v -0.135 c 0,-13.431 10.123,-24.432 24.634,-24.432 8.908,0 14.24,2.97 18.627,7.289 l -6.614,7.626 c -3.644,-3.307 -7.356,-5.331 -12.081,-5.331 -7.963,0 -13.699,6.613 -13.699,14.713 v 0.135 c 0,8.099 5.602,14.848 13.699,14.848 5.4,0 8.707,-2.16 12.418,-5.534 l 6.615,6.682 c -4.859,5.196 -10.259,8.436 -19.37,8.436 -13.904,-0.001 -24.229,-10.731 -24.229,-24.297 z"
   id="path1343" />

			<path
   display="inline"
   fill="#041a87"
   d="m 393.367,310.394 h 10.259 v 7.289 c 2.093,-4.994 5.467,-8.233 11.541,-7.964 v 10.731 h -0.54 c -6.816,0 -11.001,4.116 -11.001,12.755 v 13.363 h -10.259 z"
   id="path1345" />

			<path
   display="inline"
   fill="#041a87"
   d="M 445.338,310.394 H 456 l -13.902,37.052 c -2.768,7.356 -5.736,10.124 -11.878,10.124 -3.712,0 -6.479,-0.945 -9.111,-2.497 l 3.442,-7.424 c 1.35,0.81 3.037,1.417 4.387,1.417 1.754,0 2.699,-0.54 3.576,-2.362 l -14.172,-36.31 h 10.865 l 8.234,24.634 z"
   id="path1347" />

			<path
   display="inline"
   fill="#041a87"
   d="m 462.078,310.394 h 10.258 v 5.197 c 2.498,-3.375 5.939,-5.872 11.271,-5.872 8.436,0 16.467,6.614 16.467,18.695 v 0.135 c 0,12.08 -7.896,18.694 -16.467,18.694 -5.467,0 -8.842,-2.497 -11.271,-5.399 v 15.523 h -10.258 z m 27.738,18.155 v -0.135 c 0,-6.007 -4.049,-9.989 -8.842,-9.989 -4.791,0 -8.773,3.982 -8.773,9.989 v 0.135 c 0,6.007 3.982,9.988 8.773,9.988 4.793,0 8.842,-3.914 8.842,-9.988 z"
   id="path1349" />

			<path
   display="inline"
   fill="#041a87"
   d="m 509.324,336.31 v -17.142 h -4.319 v -8.774 h 4.319 v -9.246 h 10.259 v 9.246 h 8.503 v 8.774 h -8.503 v 15.455 c 0,2.361 1.013,3.509 3.307,3.509 1.89,0 3.577,-0.472 5.062,-1.282 v 8.234 c -2.159,1.282 -4.656,2.092 -8.099,2.092 -6.277,0 -10.529,-2.497 -10.529,-10.866 z"
   id="path1351" />

			<path
   display="inline"
   fill="#041a87"
   d="m 532.881,328.684 v -0.135 c 0,-10.394 8.368,-18.83 19.639,-18.83 11.203,0 19.505,8.302 19.505,18.695 v 0.135 c 0,10.394 -8.368,18.829 -19.64,18.829 -11.204,0 -19.504,-8.301 -19.504,-18.694 z m 29.019,0 v -0.135 c 0,-5.332 -3.846,-9.988 -9.516,-9.988 -5.871,0 -9.381,4.521 -9.381,9.854 v 0.135 c 0,5.331 3.847,9.988 9.516,9.988 5.872,-0.001 9.381,-4.522 9.381,-9.854 z"
   id="path1353" />

		</g>

		<rect
   x="338.63501"
   y="298.03"
   fill="none"
   width="316.26901"
   height="77.646004"
   id="rect1357" />


		<text
   transform="translate(338.6335,347.6926)"
   display="none"
   fill="#041a87"
   font-family="Gotham-Bold"
   font-size="68.0315px"
   id="text1359">CRYPTO</text>

		<g
   enable-background="new    "
   id="g1375">
			<path
   fill="#041a87"
   d="m 45.094,323.082 v -0.135 c 0,-13.431 10.056,-24.432 24.364,-24.432 8.706,0 13.97,3.037 18.492,7.356 l -5.332,6.142 c -3.78,-3.51 -7.829,-5.872 -13.228,-5.872 -8.976,0 -15.59,7.425 -15.59,16.671 v 0.135 c 0,9.246 6.546,16.737 15.59,16.737 5.804,0 9.516,-2.295 13.565,-6.074 l 5.332,5.399 c -4.927,5.129 -10.326,8.368 -19.167,8.368 -13.768,10e-4 -24.026,-10.729 -24.026,-24.295 z"
   id="path1361" />

			<path
   fill="#041a87"
   d="m 120.079,310.934 h 8.503 l -14.173,36.647 c -2.834,7.288 -6.006,9.988 -11.743,9.988 -3.375,0 -5.939,-0.81 -8.436,-2.16 l 2.767,-6.074 c 1.485,0.811 3.104,1.351 4.792,1.351 2.295,0 3.712,-1.013 5.062,-4.05 L 92.003,310.934 h 8.773 l 10.056,26.456 z"
   id="path1363" />

			<path
   fill="#041a87"
   d="m 131.623,328.953 v -0.135 c 0,-10.123 7.829,-18.627 18.56,-18.627 6.682,0 10.866,2.497 14.241,6.142 l -5.129,5.467 c -2.497,-2.632 -5.129,-4.454 -9.179,-4.454 -5.939,0 -10.326,5.129 -10.326,11.338 v 0.135 c 0,6.345 4.387,11.406 10.663,11.406 3.847,0 6.682,-1.755 9.246,-4.387 l 4.927,4.858 c -3.509,3.915 -7.626,6.682 -14.578,6.682 -10.596,0 -18.425,-8.301 -18.425,-18.425 z"
   id="path1365" />

			<path
   fill="#041a87"
   d="m 172.593,297.301 h 8.167 v 49.268 h -8.167 z"
   id="path1367" />

			<path
   fill="#041a87"
   d="m 189.467,328.953 v -0.135 c 0,-10.19 8.099,-18.627 19.032,-18.627 10.933,0 18.964,8.301 18.964,18.492 v 0.135 c 0,10.124 -8.099,18.56 -19.099,18.56 -10.866,0 -18.897,-8.301 -18.897,-18.425 z m 29.83,0 v -0.135 c 0,-6.276 -4.522,-11.473 -10.933,-11.473 -6.547,0 -10.731,5.129 -10.731,11.338 v 0.135 c 0,6.209 4.521,11.406 10.866,11.406 6.614,0.001 10.798,-5.129 10.798,-11.271 z"
   id="path1369" />

			<path
   fill="#041a87"
   d="m 235.769,310.934 h 8.166 v 5.467 c 2.295,-3.307 5.602,-6.209 11.136,-6.209 8.031,0 12.688,5.399 12.688,13.633 v 22.744 h -8.166 v -20.247 c 0,-5.534 -2.767,-8.706 -7.626,-8.706 -4.724,0 -8.031,3.307 -8.031,8.841 v 20.112 h -8.166 v -35.635 z"
   id="path1371" />

			<path
   fill="#041a87"
   d="m 275.658,328.886 v -0.135 c 0,-10.19 7.222,-18.56 17.413,-18.56 11.338,0 17.075,8.908 17.075,19.167 0,0.742 -0.067,1.485 -0.135,2.295 h -26.187 c 0.877,5.804 4.994,9.043 10.258,9.043 3.982,0 6.816,-1.484 9.65,-4.251 l 4.793,4.251 c -3.375,4.05 -8.032,6.682 -14.579,6.682 -10.324,0 -18.288,-7.491 -18.288,-18.492 z m 26.389,-2.632 c -0.54,-5.264 -3.645,-9.381 -9.044,-9.381 -4.994,0 -8.503,3.847 -9.246,9.381 z"
   id="path1373" />

		</g>

		<g
   id="g1389">
			<path
   fill="#041a87"
   d="m 319.225,324.015 v -0.136 c 0,-13.54 10.206,-24.631 24.834,-24.631 8.98,0 14.355,2.994 18.778,7.349 l -6.668,7.688 c -3.674,-3.334 -7.416,-5.375 -12.179,-5.375 -8.028,0 -13.812,6.668 -13.812,14.832 v 0.137 c 0,8.164 5.646,14.969 13.812,14.969 5.443,0 8.777,-2.178 12.52,-5.58 l 6.667,6.736 c -4.898,5.239 -10.342,8.505 -19.526,8.505 -14.016,0 -24.426,-10.818 -24.426,-24.494 z"
   id="path1377" />

			<path
   fill="#041a87"
   d="m 371.541,300.065 h 21.772 c 6.055,0 10.75,1.701 13.88,4.832 2.653,2.652 4.082,6.395 4.082,10.886 v 0.136 c 0,7.688 -4.15,12.52 -10.206,14.765 l 11.635,17.01 h -12.247 l -10.206,-15.241 h -8.232 v 15.241 h -10.478 z m 21.092,23.133 c 5.103,0 8.028,-2.722 8.028,-6.735 v -0.137 c 0,-4.49 -3.13,-6.804 -8.232,-6.804 h -10.41 v 13.676 z"
   id="path1379" />

			<path
   fill="#041a87"
   d="m 432.43,328.914 -18.303,-28.85 h 12.247 l 11.362,19.119 11.566,-19.119 h 11.907 l -18.303,28.645 v 18.983 H 432.43 Z"
   id="path1381" />

			<path
   fill="#041a87"
   d="m 467.736,300.065 h 19.459 c 11.363,0 18.234,6.736 18.234,16.467 v 0.135 c 0,11.023 -8.572,16.738 -19.255,16.738 h -7.96 v 14.288 h -10.479 v -47.628 z m 18.779,24.018 c 5.238,0 8.301,-3.13 8.301,-7.212 v -0.137 c 0,-4.694 -3.267,-7.212 -8.505,-7.212 h -8.097 v 14.561 z"
   id="path1383" />

			<path
   fill="#041a87"
   d="m 524.271,309.727 h -14.492 v -9.662 h 39.463 v 9.662 H 534.75 v 37.966 h -10.479 z"
   id="path1385" />

			<path
   fill="#041a87"
   d="m 553.115,324.015 v -0.136 c 0,-13.54 10.682,-24.631 25.379,-24.631 14.696,0 25.242,10.955 25.242,24.494 v 0.137 c 0,13.539 -10.682,24.63 -25.379,24.63 -14.696,0 -25.242,-10.954 -25.242,-24.494 z m 39.667,0 v -0.136 c 0,-8.165 -5.987,-14.969 -14.425,-14.969 -8.437,0 -14.288,6.668 -14.288,14.832 v 0.137 c 0,8.164 5.987,14.969 14.425,14.969 8.436,0 14.288,-6.668 14.288,-14.833 z"
   id="path1387" />

		</g>

		<g
   id="g1416">
			<path
   fill="#041a87"
   d="m 297.572,243.19 c 0.292,-0.004 0.589,-0.019 0.891,-0.034 45.094,-2.998 61.401,-21.814 61.142,-42.621 -0.362,-28.431 -29.014,-39.462 -65.178,-37.642 -21.167,1.063 -44.786,6.549 -49.953,16.872 0,0 -0.75,3.686 0.648,8.698 2.005,7.173 7.813,11.782 7.813,11.782 6.303,-12.469 24.058,-22.328 45.874,-24.004 28.454,-2.188 52.975,10.349 54.769,28.006 1.79,17.661 -19.823,33.747 -48.284,35.938 -13.046,0.998 -25.229,-1.116 -34.812,-5.38 l 6.85,6.642 c 7.383,1.431 11.916,2.101 20.24,1.743 z"
   id="path1391" />

			<path
   fill="#041a87"
   d="m 384.51,142.302 c 0.145,-5.015 -0.068,-9.734 -1.431,-14.133 0.36,0.406 0.754,0.803 1.088,1.214 0.968,-19.508 -41.42,-47.934 -95.476,-42.879 -30.821,2.881 -60.875,13.37 -72.941,31.075 l 1.181,6.294 c -0.057,0.286 -0.084,0.576 -0.133,0.859 -0.343,0.465 -0.729,0.91 -1.048,1.384 l 1.181,6.295 c -0.125,0.66 -0.232,1.315 -0.302,1.988 -0.655,6.42 11.5,16.109 16.028,21.633 0.002,-0.036 0.002,-0.063 0.005,-0.095 0.021,0.027 0.049,0.059 0.071,0.081 -0.021,-0.308 -0.002,-0.606 -0.011,-0.915 0.354,-5.621 1.914,-10.671 4.584,-15.136 11.737,-17.019 42.854,-24.191 57.265,-25.477 42.162,-3.767 72.821,12.646 75.899,40.091 -2.933,24.174 -31.122,40.188 -73.855,48.852 -8.5,1.722 18.774,6.401 6.271,2.347 0,0 19.642,-0.838 39.658,-8.984 -12.11,6.438 -27.691,11.482 -45.929,15.177 -8.5,1.722 18.774,6.406 6.27,2.346 0,0 79.955,-3.354 81.625,-63.475 0.065,-2.307 0.034,-4.555 -0.125,-6.732 0.038,-0.606 0.111,-1.186 0.125,-1.81 z"
   id="path1393" />


			<linearGradient
   id="linearGradient1454"
   gradientUnits="userSpaceOnUse"
   x1="581.29858"
   y1="234.01781"
   x2="361.48691"
   y2="200.8961"
   gradientTransform="matrix(1.063,0.1354,0.2041,-0.8745,-243.293,355.675)">
				<stop
   offset="0"
   style="stop-color:#03E7FF"
   id="stop1395" />

				<stop
   offset="1"
   style="stop-color:#105EFF"
   id="stop1397" />

			</linearGradient>

			<path
   fill="url(#SVGID_1_)"
   d="m 359.378,205.085 c -2.574,17.985 -23.862,35.045 -52.677,36.197 -17.31,0.694 -32.761,-3.524 -42.592,-10.618 0.103,0.451 0.207,0.901 0.341,1.352 4.869,16.564 32.518,25.104 57.395,20.57 43.855,-7.985 37.732,-46.983 37.533,-47.501 z"
   id="path1400"
   style="fill:url(#linearGradient1469)" />


			<linearGradient
   id="linearGradient1459"
   gradientUnits="userSpaceOnUse"
   x1="558.59058"
   y1="300.6868"
   x2="299.7312"
   y2="183.6691"
   gradientTransform="matrix(1,0,0,-1,-100.8999,423.4009)">
				<stop
   offset="0"
   style="stop-color:#03E7FF"
   id="stop1402" />

				<stop
   offset="1"
   style="stop-color:#105EFF"
   id="stop1404" />

			</linearGradient>

			<path
   fill="url(#SVGID_2_)"
   d="m 383.861,151.192 c -0.204,0.334 0.018,0.914 0.049,1.271 0.092,0.962 0.12,1.945 0.104,2.917 -0.023,1.436 -0.163,2.824 -0.531,4.22 -0.851,3.229 -2.476,6.201 -4.461,8.864 -5.133,6.883 -12.517,11.964 -20.006,15.975 -20.033,10.737 -43.778,15.516 -66.395,15.462 -10.607,-0.018 -21.608,-1.035 -31.62,-4.755 -7.157,-2.659 -14.826,-7.36 -16.529,-15.381 -2.355,8.707 -1.646,19.521 4.507,26.439 4.307,4.854 11.757,8.944 17.819,10.872 9.213,2.939 18.986,4.022 28.619,4.167 12.184,0.178 24.738,-0.974 36.589,-3.877 29.154,-7.142 61.651,-33.604 52.405,-67.099 0.085,0.318 -0.42,0.707 -0.55,0.925 z"
   id="path1407"
   style="fill:url(#linearGradient1471)" />


			<linearGradient
   id="linearGradient1464"
   gradientUnits="userSpaceOnUse"
   x1="533.65698"
   y1="348.65259"
   x2="288.4306"
   y2="237.7977"
   gradientTransform="matrix(1,0,0,-1,-100.8999,423.4009)">
				<stop
   offset="0"
   style="stop-color:#03E7FF"
   id="stop1409" />

				<stop
   offset="1"
   style="stop-color:#105EFF"
   id="stop1411" />

			</linearGradient>

			<path
   fill="url(#SVGID_3_)"
   d="m 422.296,93.355 c -1.255,-6.879 -6.027,-12.718 -12.741,-17.566 0.093,0.419 0.209,0.83 0.275,1.267 0.397,2.476 0.385,4.97 -0.02,7.468 -0.086,-0.063 -0.164,-0.134 -0.257,-0.195 0.051,0.23 0.101,0.464 0.152,0.695 -4.381,24.072 -44.603,48.196 -96.517,56.297 -41.852,6.522 -92.619,-0.009 -97.439,-23.74 -0.856,2.007 -4.308,10.305 -0.216,25.927 6.997,26.721 56.866,38.404 114.188,27.301 56.448,-10.94 98.783,-43.457 92.575,-77.454 z"
   id="path1414"
   style="fill:url(#linearGradient1473)" />

		</g>

	</g>
  </g>
</svg>
